STARTFONT 2.1
COMMENT  (c) Copyright Bigelow & Holmes 1986, 1985. Lucida is a registered
COMMENT  trademark of Bigelow & Holmes. See LEGAL NOTICE file for terms 
COMMENT  of the license. 
FONT -B&H-Lucida-Medium-R-Normal-Sans-26-190-100-100-P-147-ISO8859-1
SIZE 19 100 100
FONTBOUNDINGBOX 43 29 -17 -5
STARTPROPERTIES 19
COMMENT Begin LogicalFontDescription
FONTNAME_REGISTRY ""
FOUNDRY "B&H"
FAMILY_NAME "Lucida"
WEIGHT_NAME "Medium"
SLANT "R"
SETWIDTH_NAME "Normal"
ADD_STYLE_NAME "Sans"
PIXEL_SIZE 26
POINT_SIZE 190
RESOLUTION_X 100
RESOLUTION_Y 100
SPACING "P"
AVERAGE_WIDTH "147"
CHARSET_REGISTRY "ISO8859"
CHARSET_ENCODING "1"
COMMENT END LogicalFontDescription
COPYRIGHT "Copyright Bigelow & Holmes 1986, 1985."
FONT_ASCENT 24
FONT_DESCENT 6
DEFAULT_CHAR 0
ENDPROPERTIES
CHARS 228
STARTCHAR space
ENCODING 32
SWIDTH 42 0
DWIDTH 8 0
BBX 1 1 0 0
BITMAP
00
ENDCHAR
STARTCHAR exclam
ENCODING 33
SWIDTH 42 0
DWIDTH 8 0
BBX 2 19 3 0
BITMAP
C0
C0
C0
C0
C0
C0
C0
C0
C0
C0
C0
C0
C0
C0
00
00
C0
C0
C0
ENDCHAR
STARTCHAR quotedbl
ENCODING 34
SWIDTH 42 0
DWIDTH 10 0
BBX 6 6 2 13
BITMAP
CC
CC
CC
CC
CC
CC
ENDCHAR
STARTCHAR numbersign
ENCODING 35
SWIDTH 42 0
DWIDTH 16 0
BBX 16 19 0 0
BITMAP
018C
0318
0318
0318
0338
7FFF
7FFF
0630
0630
0C60
0C60
FFFE
FFFE
1CC0
18C0
18C0
18C0
39C0
3180
ENDCHAR
STARTCHAR dollar
ENCODING 36
SWIDTH 42 0
DWIDTH 16 0
BBX 11 22 3 -2
BITMAP
0600
1FC0
3FE0
7620
6600
6600
6600
7600
3E00
1E00
0F00
0780
06C0
0660
0660
0660
0660
C6E0
FFC0
7F80
0600
0600
ENDCHAR
STARTCHAR percent
ENCODING 37
SWIDTH 42 0
DWIDTH 17 0
BBX 17 19 0 0
BITMAP
3C0380
7E0700
E70600
C30C00
C31C00
C33800
E73000
7E6000
3CE000
01DE00
03BF00
037380
066180
0E6180
1C6180
186180
307380
703F00
E01E00
ENDCHAR
STARTCHAR ampersand
ENCODING 38
SWIDTH 42 0
DWIDTH 18 0
BBX 16 19 1 0
BITMAP
03C0
07E0
0E30
0E30
0E30
0E70
07E0
07C0
1F00
3B87
7187
E1C7
E0E6
E07E
F03C
F03C
7C38
3FEC
0F8F
ENDCHAR
STARTCHAR quoteright
ENCODING 39
SWIDTH 42 0
DWIDTH 6 0
BBX 3 7 1 12
BITMAP
E0
E0
E0
60
60
60
C0
ENDCHAR
STARTCHAR parenleft
ENCODING 40
SWIDTH 42 0
DWIDTH 8 0
BBX 6 23 2 -4
BITMAP
04
0C
18
38
30
70
70
60
E0
E0
E0
E0
E0
E0
E0
60
70
70
30
38
18
0C
04
ENDCHAR
STARTCHAR parenright
ENCODING 41
SWIDTH 42 0
DWIDTH 8 0
BBX 6 23 1 -4
BITMAP
80
C0
60
70
30
38
38
18
1C
1C
1C
1C
1C
1C
1C
18
38
38
30
70
60
C0
80
ENDCHAR
STARTCHAR asterisk
ENCODING 42
SWIDTH 42 0
DWIDTH 13 0
BBX 10 9 1 10
BITMAP
0C00
0C00
4C40
EDC0
3300
0E00
1A00
7300
2180
ENDCHAR
STARTCHAR plus
ENCODING 43
SWIDTH 42 0
DWIDTH 16 0
BBX 16 16 0 0
BITMAP
0180
0180
0180
0180
0180
0180
0180
FFFF
FFFF
0180
0180
0180
0180
0180
0180
0180
ENDCHAR
STARTCHAR comma
ENCODING 44
SWIDTH 42 0
DWIDTH 8 0
BBX 3 9 3 -5
BITMAP
E0
E0
E0
E0
60
60
60
C0
80
ENDCHAR
STARTCHAR minus
ENCODING 45
SWIDTH 42 0
DWIDTH 16 0
BBX 15 2 1 7
BITMAP
FFFE
FFFE
ENDCHAR
STARTCHAR period
ENCODING 46
SWIDTH 42 0
DWIDTH 8 0
BBX 3 3 3 0
BITMAP
E0
E0
E0
ENDCHAR
STARTCHAR slash
ENCODING 47
SWIDTH 42 0
DWIDTH 13 0
BBX 13 23 0 -4
BITMAP
0018
0030
0030
0060
0060
00C0
00C0
0180
0180
0380
0300
0700
0600
0E00
0C00
0C00
1800
1800
3000
3000
6000
6000
C000
ENDCHAR
STARTCHAR zero
ENCODING 48
SWIDTH 42 0
DWIDTH 16 0
BBX 13 19 2 0
BITMAP
0F80
1FC0
38E0
7070
7070
E038
E038
E038
E038
E038
E038
E038
E038
E038
7070
7070
38E0
1FC0
0F80
ENDCHAR
STARTCHAR one
ENCODING 49
SWIDTH 42 0
DWIDTH 16 0
BBX 6 19 4 0
BITMAP
FC
FC
1C
1C
1C
1C
1C
1C
1C
1C
1C
1C
1C
1C
1C
1C
1C
1C
1C
ENDCHAR
STARTCHAR two
ENCODING 50
SWIDTH 42 0
DWIDTH 16 0
BBX 12 19 2 0
BITMAP
3F80
FFC0
E1E0
8070
0070
0070
0070
0060
00E0
01C0
0380
0F00
1C00
3800
3000
7000
E000
FFF0
FFF0
ENDCHAR
STARTCHAR three
ENCODING 51
SWIDTH 42 0
DWIDTH 16 0
BBX 11 19 3 0
BITMAP
7F00
FFC0
C1E0
00E0
00E0
00E0
00C0
0380
3E00
3F00
03C0
01E0
00E0
00E0
00E0
01E0
83C0
FF80
FF00
ENDCHAR
STARTCHAR four
ENCODING 52
SWIDTH 42 0
DWIDTH 16 0
BBX 14 19 1 0
BITMAP
00E0
00E0
01E0
03E0
0760
0660
0C60
1C60
1860
3060
7060
E060
FFFC
FFFC
0060
0060
0060
0060
0060
ENDCHAR
STARTCHAR five
ENCODING 53
SWIDTH 42 0
DWIDTH 16 0
BBX 10 19 3 0
BITMAP
FFC0
FFC0
C000
C000
C000
C000
C000
FC00
FF00
0780
03C0
01C0
01C0
01C0
01C0
03C0
8780
FF00
FC00
ENDCHAR
STARTCHAR six
ENCODING 54
SWIDTH 42 0
DWIDTH 16 0
BBX 13 19 2 0
BITMAP
07E0
1FF0
3C10
7800
7000
7000
E000
E7C0
EFE0
F8F0
F078
E038
E038
E038
6038
7070
38F0
1FE0
0F80
ENDCHAR
STARTCHAR seven
ENCODING 55
SWIDTH 42 0
DWIDTH 16 0
BBX 12 19 3 0
BITMAP
FFF0
FFF0
0070
0060
00E0
01C0
0180
0380
0300
0700
0E00
0E00
1C00
1C00
3800
3800
3800
7000
7000
ENDCHAR
STARTCHAR eight
ENCODING 56
SWIDTH 42 0
DWIDTH 16 0
BBX 13 19 2 0
BITMAP
07C0
1FE0
1870
3030
3030
3030
3860
1EC0
0F80
1FC0
3BF0
70F0
E078
E038
E038
E038
7070
3FE0
1F80
ENDCHAR
STARTCHAR nine
ENCODING 57
SWIDTH 42 0
DWIDTH 16 0
BBX 13 19 2 0
BITMAP
0F80
3FC0
78E0
7070
E030
E038
E038
E038
F078
78F8
3FB8
1F38
0038
0070
0070
0060
41E0
7FC0
7F00
ENDCHAR
STARTCHAR colon
ENCODING 58
SWIDTH 42 0
DWIDTH 8 0
BBX 3 14 3 0
BITMAP
E0
E0
E0
00
00
00
00
00
00
00
00
E0
E0
E0
ENDCHAR
STARTCHAR semicolon
ENCODING 59
SWIDTH 42 0
DWIDTH 8 0
BBX 3 19 3 -5
BITMAP
E0
E0
E0
00
00
00
00
00
00
00
00
E0
E0
E0
60
60
60
C0
80
ENDCHAR
STARTCHAR less
ENCODING 60
SWIDTH 42 0
DWIDTH 16 0
BBX 15 16 1 0
BITMAP
0002
000E
003E
00F8
01E0
0780
1E00
F800
7800
1E00
0780
01E0
00F8
003E
000E
0002
ENDCHAR
STARTCHAR equal
ENCODING 61
SWIDTH 42 0
DWIDTH 16 0
BBX 15 7 1 4
BITMAP
FFFE
FFFE
0000
0000
0000
FFFE
FFFE
ENDCHAR
STARTCHAR greater
ENCODING 62
SWIDTH 42 0
DWIDTH 16 0
BBX 15 16 1 0
BITMAP
8000
E000
F800
3E00
0F00
03C0
00F0
003C
003E
00F0
03C0
0F00
3E00
F800
E000
8000
ENDCHAR
STARTCHAR question
ENCODING 63
SWIDTH 42 0
DWIDTH 11 0
BBX 10 19 0 0
BITMAP
7E00
FF80
83C0
01C0
01C0
01C0
0380
0380
0700
0E00
0C00
1C00
1C00
1C00
0000
0000
1C00
1C00
1C00
ENDCHAR
STARTCHAR at
ENCODING 64
SWIDTH 42 0
DWIDTH 22 0
BBX 20 19 3 0
BITMAP
00FE00
03FF80
0783C0
1C00E0
187E60
30FC30
618430
630C30
C20C30
C61830
C63870
C63860
C64CE0
E7CFC0
630700
700000
3C0800
1FF800
07E000
ENDCHAR
STARTCHAR A
ENCODING 65
SWIDTH 42 0
DWIDTH 18 0
BBX 17 19 0 0
BITMAP
01C000
01E000
03E000
03E000
037000
067000
067000
063800
0C3800
0C3C00
1C1C00
181C00
1FFE00
3FFE00
300E00
700700
600700
600380
C00380
ENDCHAR
STARTCHAR B
ENCODING 66
SWIDTH 42 0
DWIDTH 15 0
BBX 11 19 3 0
BITMAP
FE00
FF80
E3C0
E1C0
E1C0
E1C0
E380
E380
FE00
FE00
E380
E1C0
E0E0
E0E0
E0E0
E0E0
E1C0
FFC0
FF00
ENDCHAR
STARTCHAR C
ENCODING 67
SWIDTH 42 0
DWIDTH 18 0
BBX 15 19 1 0
BITMAP
03FC
0FFE
3E06
3800
7000
7000
E000
E000
E000
E000
E000
E000
E000
7000
7000
3802
3E0E
1FFE
03F8
ENDCHAR
STARTCHAR D
ENCODING 68
SWIDTH 42 0
DWIDTH 19 0
BBX 16 19 2 0
BITMAP
FFC0
FFF0
E07C
E01C
E00E
E00E
E007
E007
E007
E007
E007
E007
E007
E00E
E00E
E01C
E078
FFF0
FFC0
ENDCHAR
STARTCHAR E
ENCODING 69
SWIDTH 42 0
DWIDTH 14 0
BBX 11 19 2 0
BITMAP
FFC0
FFC0
E000
E000
E000
E000
E000
E000
FF80
FF80
E000
E000
E000
E000
E000
E000
E000
FFE0
FFE0
ENDCHAR
STARTCHAR F
ENCODING 70
SWIDTH 42 0
DWIDTH 14 0
BBX 11 19 2 0
BITMAP
FFE0
FFE0
E000
E000
E000
E000
E000
E000
FFC0
FFC0
E000
E000
E000
E000
E000
E000
E000
E000
E000
ENDCHAR
STARTCHAR G
ENCODING 71
SWIDTH 42 0
DWIDTH 19 0
BBX 15 19 1 0
BITMAP
03FC
0FFE
3E06
3800
7000
7000
E000
E000
E000
E000
E00E
E00E
E00E
700E
700E
380E
3E0E
1FFE
07F8
ENDCHAR
STARTCHAR H
ENCODING 72
SWIDTH 42 0
DWIDTH 19 0
BBX 14 19 3 0
BITMAP
E01C
E01C
E01C
E01C
E01C
E01C
E01C
E01C
FFFC
FFFC
E01C
E01C
E01C
E01C
E01C
E01C
E01C
E01C
E01C
ENDCHAR
STARTCHAR I
ENCODING 73
SWIDTH 42 0
DWIDTH 7 0
BBX 3 19 2 0
BITMAP
E0
E0
E0
E0
E0
E0
E0
E0
E0
E0
E0
E0
E0
E0
E0
E0
E0
E0
E0
ENDCHAR
STARTCHAR J
ENCODING 74
SWIDTH 42 0
DWIDTH 8 0
BBX 8 23 -1 -4
BITMAP
07
07
07
07
07
07
07
07
07
07
07
07
07
07
07
07
07
07
07
07
8E
FC
F8
ENDCHAR
STARTCHAR K
ENCODING 75
SWIDTH 42 0
DWIDTH 17 0
BBX 14 19 2 0
BITMAP
E038
E070
E0E0
E0C0
E180
E380
E700
EE00
EC00
FE00
EE00
EF00
E780
E3C0
E1E0
E0E0
E0F0
E078
E03C
ENDCHAR
STARTCHAR L
ENCODING 76
SWIDTH 42 0
DWIDTH 14 0
BBX 11 19 2 0
BITMAP
E000
E000
E000
E000
E000
E000
E000
E000
E000
E000
E000
E000
E000
E000
E000
E000
E000
FFE0
FFE0
ENDCHAR
STARTCHAR M
ENCODING 77
SWIDTH 42 0
DWIDTH 22 0
BBX 18 19 2 0
BITMAP
F003C0
F003C0
F807C0
F807C0
F807C0
DC0DC0
DC0DC0
DE0DC0
CE19C0
CE19C0
CF39C0
C731C0
C731C0
C3E1C0
C3E1C0
C3E1C0
C1C1C0
C1C1C0
C001C0
ENDCHAR
STARTCHAR N
ENCODING 78
SWIDTH 42 0
DWIDTH 19 0
BBX 14 19 3 0
BITMAP
E00C
F00C
F00C
F80C
FC0C
DC0C
DE0C
CF0C
C70C
C78C
C38C
C1CC
C1EC
C0EC
C0FC
C07C
C03C
C03C
C01C
ENDCHAR
STARTCHAR O
ENCODING 79
SWIDTH 42 0
DWIDTH 20 0
BBX 18 19 1 0
BITMAP
03F000
0FFC00
1E1E00
380700
700380
700380
E001C0
E001C0
E001C0
E001C0
E001C0
E001C0
E001C0
700380
700380
380700
1C0E00
0FFC00
03F000
ENDCHAR
STARTCHAR P
ENCODING 80
SWIDTH 42 0
DWIDTH 14 0
BBX 11 19 3 0
BITMAP
FF80
FFC0
E1E0
E0E0
E0E0
E0E0
E0E0
E1E0
E3C0
FF80
FE00
E000
E000
E000
E000
E000
E000
E000
E000
ENDCHAR
STARTCHAR Q
ENCODING 81
SWIDTH 42 0
DWIDTH 20 0
BBX 20 23 1 -4
BITMAP
03F000
0FFC00
1E1E00
380700
700380
700380
E001C0
E001C0
E001C0
E001C0
E001C0
E001C0
E001C0
700380
700380
380700
1C0F00
0FFC00
03FC00
001F00
0007F0
0001E0
000060
ENDCHAR
STARTCHAR R
ENCODING 82
SWIDTH 42 0
DWIDTH 16 0
BBX 13 19 3 0
BITMAP
FF00
FFC0
E1E0
E0E0
E0E0
E0E0
E0E0
E1C0
E380
FF00
FF00
E700
E380
E3C0
E1C0
E1E0
E0F0
E070
E078
ENDCHAR
STARTCHAR S
ENCODING 83
SWIDTH 42 0
DWIDTH 14 0
BBX 11 19 1 0
BITMAP
1F80
7FC0
70C0
E000
E000
E000
F000
7C00
3E00
1F80
07C0
03C0
01E0
00E0
00E0
00E0
C1C0
FF80
7F00
ENDCHAR
STARTCHAR T
ENCODING 84
SWIDTH 42 0
DWIDTH 16 0
BBX 17 19 0 0
BITMAP
FFFF80
FFFF80
01C000
01C000
01C000
01C000
01C000
01C000
01C000
01C000
01C000
01C000
01C000
01C000
01C000
01C000
01C000
01C000
01C000
ENDCHAR
STARTCHAR U
ENCODING 85
SWIDTH 42 0
DWIDTH 18 0
BBX 13 19 3 0
BITMAP
E018
E018
E018
E018
E018
E018
E018
E018
E018
E018
E018
E018
E018
E018
E018
7038
7870
3FE0
1FC0
ENDCHAR
STARTCHAR V
ENCODING 86
SWIDTH 42 0
DWIDTH 17 0
BBX 16 19 1 0
BITMAP
E003
E006
7006
7006
700C
380C
380C
3C18
1C18
1C18
1E30
0E30
0E70
0760
0760
07C0
03C0
03C0
0380
ENDCHAR
STARTCHAR W
ENCODING 87
SWIDTH 42 0
DWIDTH 22 0
BBX 22 19 0 0
BITMAP
E0380C
E0781C
E07818
707818
707C18
707C30
70DC30
38DC30
38DE30
38CE60
398E60
1D8E60
1D8EE0
1D87C0
1F87C0
0F07C0
0F0780
0F0380
0F0380
ENDCHAR
STARTCHAR X
ENCODING 88
SWIDTH 42 0
DWIDTH 16 0
BBX 15 19 0 0
BITMAP
F00E
701C
3818
3C38
1C30
1E60
0FE0
07C0
0780
03C0
07C0
07E0
0EE0
0CF0
1878
3838
303C
601C
E01E
ENDCHAR
STARTCHAR Y
ENCODING 89
SWIDTH 42 0
DWIDTH 16 0
BBX 16 19 0 0
BITMAP
E007
7006
780C
381C
3C18
1C30
1E30
0F60
07E0
07C0
0380
0380
0380
0380
0380
0380
0380
0380
0380
ENDCHAR
STARTCHAR Z
ENCODING 90
SWIDTH 42 0
DWIDTH 16 0
BBX 13 19 1 0
BITMAP
7FF8
7FF8
0078
0070
00F0
01E0
01C0
03C0
0780
0700
0F00
1E00
1C00
3C00
7800
7000
F000
FFF8
FFF8
ENDCHAR
STARTCHAR bracketleft
ENCODING 91
SWIDTH 42 0
DWIDTH 8 0
BBX 5 23 3 -4
BITMAP
F8
F8
C0
C0
C0
C0
C0
C0
C0
C0
C0
C0
C0
C0
C0
C0
C0
C0
C0
C0
C0
F8
F8
ENDCHAR
STARTCHAR backslash
ENCODING 92
SWIDTH 42 0
DWIDTH 13 0
BBX 13 23 0 -4
BITMAP
C000
6000
6000
3000
3000
1800
1800
0C00
0C00
0E00
0600
0700
0300
0380
0180
0180
00C0
00C0
0060
0060
0030
0030
0018
ENDCHAR
STARTCHAR bracketright
ENCODING 93
SWIDTH 42 0
DWIDTH 8 0
BBX 5 23 1 -4
BITMAP
F8
F8
18
18
18
18
18
18
18
18
18
18
18
18
18
18
18
18
18
18
18
F8
F8
ENDCHAR
STARTCHAR asciicircum
ENCODING 94
SWIDTH 42 0
DWIDTH 16 0
BBX 15 16 1 3
BITMAP
0100
0100
0380
0380
07C0
06C0
0EE0
0C60
1C70
1830
1830
3018
3018
600C
600C
C006
ENDCHAR
STARTCHAR underscore
ENCODING 95
SWIDTH 42 0
DWIDTH 13 0
BBX 11 2 1 -2
BITMAP
FFE0
FFE0
ENDCHAR
STARTCHAR quoteleft
ENCODING 96
SWIDTH 42 0
DWIDTH 6 0
BBX 3 7 1 12
BITMAP
60
C0
C0
C0
E0
E0
E0
ENDCHAR
STARTCHAR a
ENCODING 97
SWIDTH 42 0
DWIDTH 14 0
BBX 12 14 2 0
BITMAP
1F80
7FC0
41C0
01C0
01C0
01C0
1FC0
7FC0
F1C0
E1C0
E1C0
E3C0
7EF0
3C70
ENDCHAR
STARTCHAR b
ENCODING 98
SWIDTH 42 0
DWIDTH 16 0
BBX 12 19 3 0
BITMAP
E000
E000
E000
E000
E000
E780
EFE0
F8E0
F0F0
E070
E070
E070
E070
E070
E070
E0E0
F1E0
FFC0
CF80
ENDCHAR
STARTCHAR c
ENCODING 99
SWIDTH 42 0
DWIDTH 13 0
BBX 11 14 1 0
BITMAP
0FE0
3FE0
7820
7000
E000
E000
E000
E000
E000
E000
7000
7820
3FE0
0FC0
ENDCHAR
STARTCHAR d
ENCODING 100
SWIDTH 42 0
DWIDTH 16 0
BBX 12 19 2 0
BITMAP
0070
0070
0070
0070
0070
1E70
3FF0
78F0
7070
E070
E070
E070
E070
E070
E070
F0F0
71F0
7F70
1E70
ENDCHAR
STARTCHAR e
ENCODING 101
SWIDTH 42 0
DWIDTH 14 0
BBX 12 14 1 0
BITMAP
0F80
3FC0
70E0
7060
E070
E070
FFF0
FFF0
E000
E000
7000
7C10
1FF0
0FE0
ENDCHAR
STARTCHAR f
ENCODING 102
SWIDTH 42 0
DWIDTH 10 0
BBX 10 20 1 0
BITMAP
0FC0
1FC0
3840
3800
3800
3800
FF00
FF00
3800
3800
3800
3800
3800
3800
3800
3800
3800
3800
3800
3800
ENDCHAR
STARTCHAR g
ENCODING 103
SWIDTH 42 0
DWIDTH 16 0
BBX 12 19 2 -5
BITMAP
1E70
3FF0
78F0
7070
E070
E070
E070
E070
E070
E070
F0F0
71F0
3F70
1E70
0070
0060
40E0
7FC0
3F80
ENDCHAR
STARTCHAR h
ENCODING 104
SWIDTH 42 0
DWIDTH 16 0
BBX 11 19 3 0
BITMAP
E000
E000
E000
E000
E000
E780
EFC0
F8E0
F0E0
E0E0
E0E0
E0E0
E0E0
E0E0
E0E0
E0E0
E0E0
E0E0
E0E0
ENDCHAR
STARTCHAR i
ENCODING 105
SWIDTH 42 0
DWIDTH 8 0
BBX 3 19 2 0
BITMAP
E0
E0
E0
00
00
E0
E0
E0
E0
E0
E0
E0
E0
E0
E0
E0
E0
E0
E0
ENDCHAR
STARTCHAR j
ENCODING 106
SWIDTH 42 0
DWIDTH 8 0
BBX 8 24 -1 -5
BITMAP
07
07
07
00
00
07
07
07
07
07
07
07
07
07
07
07
07
07
07
07
07
8E
FE
F8
ENDCHAR
STARTCHAR k
ENCODING 107
SWIDTH 42 0
DWIDTH 15 0
BBX 13 19 2 0
BITMAP
E000
E000
E000
E000
E000
E070
E0C0
E1C0
E380
E700
EE00
FC00
FE00
EF00
E780
E3C0
E1E0
E0F0
E078
ENDCHAR
STARTCHAR l
ENCODING 108
SWIDTH 42 0
DWIDTH 8 0
BBX 3 19 2 0
BITMAP
E0
E0
E0
E0
E0
E0
E0
E0
E0
E0
E0
E0
E0
E0
E0
E0
E0
E0
E0
ENDCHAR
STARTCHAR m
ENCODING 109
SWIDTH 42 0
DWIDTH 24 0
BBX 19 14 3 0
BITMAP
E7C780
EFCFC0
F8F9E0
F0F0E0
E0E0E0
E0E0E0
E0E0E0
E0E0E0
E0E0E0
E0E0E0
E0E0E0
E0E0E0
E0E0E0
E0E0E0
ENDCHAR
STARTCHAR n
ENCODING 110
SWIDTH 42 0
DWIDTH 16 0
BBX 11 14 3 0
BITMAP
E780
EFC0
F8E0
F0E0
E0E0
E0E0
E0E0
E0E0
E0E0
E0E0
E0E0
E0E0
E0E0
E0E0
ENDCHAR
STARTCHAR o
ENCODING 111
SWIDTH 42 0
DWIDTH 16 0
BBX 13 14 1 0
BITMAP
0F80
3FE0
78F0
7070
E038
E038
E038
E038
E038
E038
7070
78F0
3FE0
0F80
ENDCHAR
STARTCHAR p
ENCODING 112
SWIDTH 42 0
DWIDTH 16 0
BBX 12 19 3 -5
BITMAP
E780
EFE0
F8E0
F0F0
E070
E070
E070
E070
E070
E070
E0E0
F1E0
FFC0
E780
E000
E000
E000
E000
E000
ENDCHAR
STARTCHAR q
ENCODING 113
SWIDTH 42 0
DWIDTH 16 0
BBX 12 19 2 -5
BITMAP
1E70
3FF0
78F0
7070
E070
E070
E070
E070
E070
E070
F0F0
71F0
7F70
1E70
0070
0070
0070
0070
0070
ENDCHAR
STARTCHAR r
ENCODING 114
SWIDTH 42 0
DWIDTH 11 0
BBX 8 14 2 0
BITMAP
E7
EF
F8
F0
E0
E0
E0
E0
E0
E0
E0
E0
E0
E0
ENDCHAR
STARTCHAR s
ENCODING 115
SWIDTH 42 0
DWIDTH 13 0
BBX 9 14 2 0
BITMAP
3F00
7F00
F100
E000
E000
F800
7E00
3F00
0780
0380
0380
8780
FF00
7E00
ENDCHAR
STARTCHAR t
ENCODING 116
SWIDTH 42 0
DWIDTH 10 0
BBX 9 17 0 0
BITMAP
3800
3800
3800
FF80
FF80
3800
3800
3800
3800
3800
3800
3800
3800
3800
3C00
1F80
0F80
ENDCHAR
STARTCHAR u
ENCODING 117
SWIDTH 42 0
DWIDTH 16 0
BBX 11 14 2 0
BITMAP
E0E0
E0E0
E0E0
E0E0
E0E0
E0E0
E0E0
E0E0
E0E0
E0E0
E1E0
E3E0
7EE0
3CE0
ENDCHAR
STARTCHAR v
ENCODING 118
SWIDTH 42 0
DWIDTH 13 0
BBX 13 14 0 0
BITMAP
E018
E030
7030
7070
7060
3860
38C0
3CC0
1DC0
1D80
1F80
0F00
0F00
0700
ENDCHAR
STARTCHAR w
ENCODING 119
SWIDTH 42 0
DWIDTH 20 0
BBX 20 14 0 0
BITMAP
C06030
60F060
60F060
60F060
71F0C0
3198C0
3198C0
319980
1B1D80
1B0D80
1B0F00
1E0F00
0E0F00
0E0600
ENDCHAR
STARTCHAR x
ENCODING 120
SWIDTH 42 0
DWIDTH 16 0
BBX 14 14 1 0
BITMAP
E01C
3030
3870
1C60
0CC0
07C0
0780
0780
0F80
1CC0
1860
3070
7038
E01C
ENDCHAR
STARTCHAR y
ENCODING 121
SWIDTH 42 0
DWIDTH 14 0
BBX 13 19 0 -5
BITMAP
E018
F030
7030
7070
7860
3860
38C0
1CC0
1DC0
1D80
0F80
0F00
0F00
0700
0600
0600
0E00
0C00
1C00
ENDCHAR
STARTCHAR z
ENCODING 122
SWIDTH 42 0
DWIDTH 15 0
BBX 12 14 1 0
BITMAP
FFF0
FFF0
0060
00C0
0180
0380
0700
0E00
1C00
3800
3000
6000
FFF0
FFF0
ENDCHAR
STARTCHAR braceleft
ENCODING 123
SWIDTH 42 0
DWIDTH 8 0
BBX 7 23 0 -4
BITMAP
0E
1E
38
30
30
38
18
18
18
18
10
E0
F0
18
18
18
18
38
30
30
38
1E
06
ENDCHAR
STARTCHAR bar
ENCODING 124
SWIDTH 42 0
DWIDTH 7 0
BBX 2 23 2 -4
BITMAP
C0
C0
C0
C0
C0
C0
C0
C0
C0
C0
C0
C0
C0
C0
C0
C0
C0
C0
C0
C0
C0
C0
C0
ENDCHAR
STARTCHAR braceright
ENCODING 125
SWIDTH 42 0
DWIDTH 8 0
BBX 7 23 1 -4
BITMAP
C0
F0
38
18
18
38
30
30
30
30
1E
0E
10
30
30
30
30
38
18
18
38
F0
E0
ENDCHAR
STARTCHAR asciitilde
ENCODING 126
SWIDTH 42 0
DWIDTH 16 0
BBX 15 6 1 5
BITMAP
3C06
7E06
6786
C3CC
C0FC
C078
ENDCHAR
STARTCHAR exclamdown
ENCODING 161
SWIDTH 42 0
DWIDTH 8 0
BBX 2 19 3 -5
BITMAP
C0
C0
C0
00
00
C0
C0
C0
C0
C0
C0
C0
C0
C0
C0
C0
C0
C0
C0
ENDCHAR
STARTCHAR cent
ENCODING 162
SWIDTH 42 0
DWIDTH 16 0
BBX 11 19 2 0
BITMAP
0600
0600
0FE0
3FE0
7E20
7600
E600
E600
E600
E600
E600
E600
E600
7600
7620
3FE0
1FC0
0600
0600
ENDCHAR
STARTCHAR sterling
ENCODING 163
SWIDTH 42 0
DWIDTH 16 0
BBX 12 19 3 0
BITMAP
03F0
0FF0
0E10
1C00
1C00
1C00
1C00
1C00
FF80
FF80
1C00
1C00
1C00
1C00
1C00
3800
7000
FFF0
FFF0
ENDCHAR
STARTCHAR currency
ENCODING 164
SWIDTH 42 0
DWIDTH 16 0
BBX 15 17 1 1
BITMAP
4004
E00E
77DC
3FF8
1C70
1830
3018
3018
3018
3018
3018
1830
1C70
3FF8
77DC
E00E
4004
ENDCHAR
STARTCHAR yen
ENCODING 165
SWIDTH 42 0
DWIDTH 16 0
BBX 15 19 1 0
BITMAP
F00E
700C
7818
3838
3C30
1C70
0E60
0FC0
07C0
0780
3FF0
3FF0
0380
3FF0
3FF0
0380
0380
0380
0380
ENDCHAR
STARTCHAR brokenbar
ENCODING 166
SWIDTH 42 0
DWIDTH 7 0
BBX 2 23 2 -4
BITMAP
C0
C0
C0
C0
C0
C0
C0
C0
C0
00
00
00
00
00
C0
C0
C0
C0
C0
C0
C0
C0
C0
ENDCHAR
STARTCHAR section
ENCODING 167
SWIDTH 42 0
DWIDTH 16 0
BBX 11 24 3 -5
BITMAP
1FC0
7FC0
6040
C000
C000
E000
F800
7E00
7F80
CFC0
C1E0
C0E0
E060
F060
7E40
3FC0
0FC0
03E0
00E0
0060
0060
C0E0
FFC0
7F00
ENDCHAR
STARTCHAR dieresis
ENCODING 168
SWIDTH 42 0
DWIDTH 16 0
BBX 7 2 4 17
BITMAP
C6
C6
ENDCHAR
STARTCHAR copyright
ENCODING 169
SWIDTH 42 0
DWIDTH 22 0
BBX 20 19 1 0
BITMAP
01F800
07FE00
1E0780
3801C0
70F0C0
63F860
638860
C70030
C60030
C60030
C60030
C70030
638860
63F860
70F0C0
3801C0
1E0780
07FE00
01F800
ENDCHAR
STARTCHAR ordfeminine
ENCODING 170
SWIDTH 42 0
DWIDTH 11 0
BBX 9 10 1 9
BITMAP
7E00
7F00
4700
0300
3F00
7F00
E300
C300
FF80
7B80
ENDCHAR
STARTCHAR guillemotleft
ENCODING 171
SWIDTH 42 0
DWIDTH 14 0
BBX 11 12 2 1
BITMAP
0C40
0CE0
18C0
3180
7380
E700
E700
7380
3180
18C0
0CE0
0C40
ENDCHAR
STARTCHAR logicalnot
ENCODING 172
SWIDTH 42 0
DWIDTH 16 0
BBX 15 7 1 4
BITMAP
FFFE
FFFE
0006
0006
0006
0006
0006
ENDCHAR
STARTCHAR hyphen
ENCODING 173
SWIDTH 42 0
DWIDTH 8 0
BBX 6 2 1 7
BITMAP
FC
FC
ENDCHAR
STARTCHAR registered
ENCODING 174
SWIDTH 42 0
DWIDTH 16 0
BBX 11 12 3 7
BITMAP
1F00
3F80
71C0
FFE0
DB60
DF60
DE60
DF60
FBE0
71C0
3F80
1F00
ENDCHAR
STARTCHAR macron
ENCODING 175
SWIDTH 42 0
DWIDTH 16 0
BBX 7 2 4 17
BITMAP
FE
FE
ENDCHAR
STARTCHAR degree
ENCODING 176
SWIDTH 42 0
DWIDTH 7 0
BBX 4 5 2 14
BITMAP
60
90
90
90
60
ENDCHAR
STARTCHAR plusminus
ENCODING 177
SWIDTH 42 0
DWIDTH 16 0
BBX 16 16 0 0
BITMAP
0180
0180
0180
0180
0180
FFFF
FFFF
0180
0180
0180
0180
0180
0000
0000
FFFF
FFFF
ENDCHAR
STARTCHAR twosuperior
ENCODING 178
SWIDTH 42 0
DWIDTH 10 0
BBX 7 11 -16 8
BITMAP
7C
FE
8E
06
0E
1C
38
70
60
FE
FE
ENDCHAR
STARTCHAR threesuperior
ENCODING 179
SWIDTH 42 0
DWIDTH 10 0
BBX 7 11 -16 8
BITMAP
7C
FE
86
06
78
78
06
06
8E
FE
F8
ENDCHAR
STARTCHAR acute
ENCODING 180
SWIDTH 42 0
DWIDTH 16 0
BBX 6 4 6 15
BITMAP
1C
38
70
E0
ENDCHAR
STARTCHAR mu
ENCODING 181
SWIDTH 42 0
DWIDTH 16 0
BBX 11 18 3 -4
BITMAP
E0E0
E0E0
E0E0
E0E0
E0E0
E0E0
E0E0
E0E0
E0E0
E0E0
E1E0
E3E0
FEE0
FCE0
E000
E000
E000
E000
ENDCHAR
STARTCHAR paragraph
ENCODING 182
SWIDTH 42 0
DWIDTH 16 0
BBX 10 23 3 -4
BITMAP
3FC0
7FC0
FEC0
FEC0
FEC0
FEC0
FEC0
7EC0
3EC0
0EC0
06C0
06C0
06C0
06C0
06C0
06C0
06C0
06C0
06C0
06C0
06C0
06C0
06C0
ENDCHAR
STARTCHAR periodcentered
ENCODING 183
SWIDTH 42 0
DWIDTH 16 0
BBX 3 3 7 7
BITMAP
E0
E0
E0
ENDCHAR
STARTCHAR cedilla
ENCODING 184
SWIDTH 42 0
DWIDTH 16 0
BBX 4 6 6 -5
BITMAP
60
40
70
30
30
E0
ENDCHAR
STARTCHAR onesuperior
ENCODING 185
SWIDTH 42 0
DWIDTH 10 0
BBX 4 11 -17 8
BITMAP
F0
F0
30
30
30
30
30
30
30
30
30
ENDCHAR
STARTCHAR ordmasculine
ENCODING 186
SWIDTH 42 0
DWIDTH 11 0
BBX 9 10 1 9
BITMAP
3E00
7F00
6700
C380
C380
C380
C380
6700
7F00
3E00
ENDCHAR
STARTCHAR guillemotright
ENCODING 187
SWIDTH 42 0
DWIDTH 14 0
BBX 11 12 1 1
BITMAP
4600
E600
6300
3180
39C0
1CE0
1CE0
39C0
3180
6300
E600
4600
ENDCHAR
STARTCHAR onequarter
ENCODING 188
SWIDTH 42 0
DWIDTH 21 0
BBX 19 19 6 0
BITMAP
F00380
F00700
300600
300E00
301C00
301800
303000
307000
30E380
30C780
31C780
038D80
031D80
063980
0E3FE0
1C3FE0
180180
380180
700180
ENDCHAR
STARTCHAR onehalf
ENCODING 189
SWIDTH 42 0
DWIDTH 21 0
BBX 17 19 6 0
BITMAP
F00380
F00700
300600
300E00
301C00
301800
303000
307000
30FF00
30FF80
31E380
038180
030380
060700
0E0E00
1C1C00
181800
383F80
703F80
ENDCHAR
STARTCHAR threequarters
ENCODING 190
SWIDTH 42 0
DWIDTH 21 0
BBX 19 19 6 0
BITMAP
7C0380
FE0700
860600
060E00
781C00
781800
063000
067000
8EE380
FEC780
F9C780
038D80
031D80
063980
0E3FE0
1C3FE0
180180
380180
700180
ENDCHAR
STARTCHAR questiondown
ENCODING 191
SWIDTH 42 0
DWIDTH 11 0
BBX 10 19 0 -5
BITMAP
0E00
0E00
0E00
0000
0000
0E00
0E00
0E00
0C00
1C00
3800
7000
6000
E000
E000
E000
F040
7FC0
1F80
ENDCHAR
STARTCHAR Agrave
ENCODING 192
SWIDTH 42 0
DWIDTH 18 0
BBX 17 24 0 0
BITMAP
070000
038000
01C000
00E000
000000
01C000
01E000
03E000
03E000
037000
067000
067000
063800
0C3800
0C3C00
1C1C00
181C00
1FFE00
3FFE00
300E00
700700
600700
600380
C00380
ENDCHAR
STARTCHAR Aacute
ENCODING 193
SWIDTH 42 0
DWIDTH 18 0
BBX 17 24 0 0
BITMAP
007000
00E000
01C000
038000
000000
01C000
01E000
03E000
03E000
037000
067000
067000
063800
0C3800
0C3C00
1C1C00
181C00
1FFE00
3FFE00
300E00
700700
600700
600380
C00380
ENDCHAR
STARTCHAR Acircumflex
ENCODING 194
SWIDTH 42 0
DWIDTH 18 0
BBX 17 24 0 0
BITMAP
01E000
01E000
033000
061800
000000
01C000
01E000
03E000
03E000
037000
067000
067000
063800
0C3800
0C3C00
1C1C00
181C00
1FFE00
3FFE00
300E00
700700
600700
600380
C00380
ENDCHAR
STARTCHAR Atilde
ENCODING 195
SWIDTH 42 0
DWIDTH 18 0
BBX 17 23 0 0
BITMAP
038800
07F800
067000
000000
01C000
01E000
03E000
03E000
037000
067000
067000
063800
0C3800
0C3C00
1C1C00
181C00
1FFE00
3FFE00
300E00
700700
600700
600380
C00380
ENDCHAR
STARTCHAR Adieresis
ENCODING 196
SWIDTH 42 0
DWIDTH 18 0
BBX 17 22 0 0
BITMAP
063000
063000
000000
01C000
01E000
03E000
03E000
037000
067000
067000
063800
0C3800
0C3C00
1C1C00
181C00
1FFE00
3FFE00
300E00
700700
600700
600380
C00380
ENDCHAR
STARTCHAR Aring
ENCODING 197
SWIDTH 42 0
DWIDTH 18 0
BBX 17 24 0 0
BITMAP
00C000
012000
012000
00C000
000000
01C000
01E000
03E000
03E000
037000
067000
067000
063800
0C3800
0C3C00
1C1C00
181C00
1FFE00
3FFE00
300E00
700700
600700
600380
C00380
ENDCHAR
STARTCHAR AE
ENCODING 198
SWIDTH 42 0
DWIDTH 24 0
BBX 23 19 0 0
BITMAP
001FFC
003FFC
003E00
006E00
006E00
00CE00
00CE00
018E00
038FF8
030FF8
060E00
060E00
0FFE00
1FFE00
180E00
380E00
300E00
600FFE
E00FFE
ENDCHAR
STARTCHAR Ccedilla
ENCODING 199
SWIDTH 42 0
DWIDTH 18 0
BBX 15 24 1 -5
BITMAP
03FC
0FFE
3E06
3800
7000
7000
E000
E000
E000
E000
E000
E000
E000
7000
7000
3802
3E0E
1FFE
03F8
0100
01C0
00C0
00C0
0380
ENDCHAR
STARTCHAR Egrave
ENCODING 200
SWIDTH 42 0
DWIDTH 14 0
BBX 11 24 2 0
BITMAP
7000
3800
1C00
0E00
0000
FFC0
FFC0
E000
E000
E000
E000
E000
E000
FF80
FF80
E000
E000
E000
E000
E000
E000
E000
FFE0
FFE0
ENDCHAR
STARTCHAR Eacute
ENCODING 201
SWIDTH 42 0
DWIDTH 14 0
BBX 11 24 2 0
BITMAP
0700
0E00
1C00
3800
0000
FFC0
FFC0
E000
E000
E000
E000
E000
E000
FF80
FF80
E000
E000
E000
E000
E000
E000
E000
FFE0
FFE0
ENDCHAR
STARTCHAR Ecircumflex
ENCODING 202
SWIDTH 42 0
DWIDTH 14 0
BBX 11 24 2 0
BITMAP
1E00
1E00
3300
6180
0000
FFC0
FFC0
E000
E000
E000
E000
E000
E000
FF80
FF80
E000
E000
E000
E000
E000
E000
E000
FFE0
FFE0
ENDCHAR
STARTCHAR Edieresis
ENCODING 203
SWIDTH 42 0
DWIDTH 14 0
BBX 11 22 2 0
BITMAP
6300
6300
0000
FFC0
FFC0
E000
E000
E000
E000
E000
E000
FF80
FF80
E000
E000
E000
E000
E000
E000
E000
FFE0
FFE0
ENDCHAR
STARTCHAR Igrave
ENCODING 204
SWIDTH 42 0
DWIDTH 7 0
BBX 6 24 4 0
BITMAP
E0
70
38
1C
00
38
38
38
38
38
38
38
38
38
38
38
38
38
38
38
38
38
38
38
ENDCHAR
STARTCHAR Iacute
ENCODING 205
SWIDTH 42 0
DWIDTH 7 0
BBX 6 24 3 0
BITMAP
1C
38
70
E0
00
70
70
70
70
70
70
70
70
70
70
70
70
70
70
70
70
70
70
70
ENDCHAR
STARTCHAR Icircumflex
ENCODING 206
SWIDTH 42 0
DWIDTH 7 0
BBX 8 24 4 0
BITMAP
3C
3C
66
C3
00
38
38
38
38
38
38
38
38
38
38
38
38
38
38
38
38
38
38
38
ENDCHAR
STARTCHAR Idieresis
ENCODING 207
SWIDTH 42 0
DWIDTH 7 0
BBX 7 22 4 0
BITMAP
C6
C6
00
38
38
38
38
38
38
38
38
38
38
38
38
38
38
38
38
38
38
38
ENDCHAR
STARTCHAR Eth
ENCODING 208
SWIDTH 42 0
DWIDTH 19 0
BBX 19 19 0 0
BITMAP
1FF800
1FFE00
1C0F80
1C0380
1C01C0
1C01C0
1C00E0
1C00E0
FFC0E0
FFC0E0
1C00E0
1C00E0
1C00E0
1C01C0
1C01C0
1C0380
1C0F00
1FFE00
1FF800
ENDCHAR
STARTCHAR Ntilde
ENCODING 209
SWIDTH 42 0
DWIDTH 19 0
BBX 14 23 3 0
BITMAP
0E20
1FE0
19C0
0000
E00C
F00C
F00C
F80C
FC0C
DC0C
DE0C
CF0C
C70C
C78C
C38C
C1CC
C1EC
C0EC
C0FC
C07C
C03C
C03C
C01C
ENDCHAR
STARTCHAR Ograve
ENCODING 210
SWIDTH 42 0
DWIDTH 20 0
BBX 18 24 1 0
BITMAP
070000
038000
01C000
00E000
000000
03F000
0FFC00
1E1E00
380700
700380
700380
E001C0
E001C0
E001C0
E001C0
E001C0
E001C0
E001C0
700380
700380
380700
1C0E00
0FFC00
03F000
ENDCHAR
STARTCHAR Oacute
ENCODING 211
SWIDTH 42 0
DWIDTH 20 0
BBX 18 24 1 0
BITMAP
003800
007000
00E000
01C000
000000
03F000
0FFC00
1E1E00
380700
700380
700380
E001C0
E001C0
E001C0
E001C0
E001C0
E001C0
E001C0
700380
700380
380700
1C0E00
0FFC00
03F000
ENDCHAR
STARTCHAR Ocircumflex
ENCODING 212
SWIDTH 42 0
DWIDTH 20 0
BBX 18 24 1 0
BITMAP
01E000
01E000
033000
061800
000000
03F000
0FFC00
1E1E00
380700
700380
700380
E001C0
E001C0
E001C0
E001C0
E001C0
E001C0
E001C0
700380
700380
380700
1C0E00
0FFC00
03F000
ENDCHAR
STARTCHAR Otilde
ENCODING 213
SWIDTH 42 0
DWIDTH 20 0
BBX 18 23 1 0
BITMAP
038800
07F800
067000
000000
03F000
0FFC00
1E1E00
380700
700380
700380
E001C0
E001C0
E001C0
E001C0
E001C0
E001C0
E001C0
700380
700380
380700
1C0E00
0FFC00
03F000
ENDCHAR
STARTCHAR Odieresis
ENCODING 214
SWIDTH 42 0
DWIDTH 20 0
BBX 18 22 1 0
BITMAP
063000
063000
000000
03F000
0FFC00
1E1E00
380700
700380
700380
E001C0
E001C0
E001C0
E001C0
E001C0
E001C0
E001C0
700380
700380
380700
1C0E00
0FFC00
03F000
ENDCHAR
STARTCHAR multiply
ENCODING 215
SWIDTH 42 0
DWIDTH 16 0
BBX 15 16 1 0
BITMAP
4004
E00E
701C
3838
1C70
0EE0
06C0
0380
0380
06C0
0EE0
1C70
3838
701C
E00E
4004
ENDCHAR
STARTCHAR Oslash
ENCODING 216
SWIDTH 42 0
DWIDTH 20 0
BBX 18 19 1 0
BITMAP
03F1C0
0FFF80
1E1F00
380700
700F80
701F80
E039C0
E071C0
E061C0
E0C1C0
E181C0
E381C0
E701C0
7E0380
7C0380
380700
3C0E00
7FFC00
E3F000
ENDCHAR
STARTCHAR Ugrave
ENCODING 217
SWIDTH 42 0
DWIDTH 18 0
BBX 13 24 3 0
BITMAP
1C00
0E00
0700
0380
0000
E018
E018
E018
E018
E018
E018
E018
E018
E018
E018
E018
E018
E018
E018
E018
7038
7870
3FE0
1FC0
ENDCHAR
STARTCHAR Uacute
ENCODING 218
SWIDTH 42 0
DWIDTH 18 0
BBX 13 24 3 0
BITMAP
01C0
0380
0700
0E00
0000
E018
E018
E018
E018
E018
E018
E018
E018
E018
E018
E018
E018
E018
E018
E018
7038
7870
3FE0
1FC0
ENDCHAR
STARTCHAR Ucircumflex
ENCODING 219
SWIDTH 42 0
DWIDTH 18 0
BBX 13 24 3 0
BITMAP
0780
0780
0CC0
1860
0000
E018
E018
E018
E018
E018
E018
E018
E018
E018
E018
E018
E018
E018
E018
E018
7038
7870
3FE0
1FC0
ENDCHAR
STARTCHAR Udieresis
ENCODING 220
SWIDTH 42 0
DWIDTH 18 0
BBX 13 22 3 0
BITMAP
18C0
18C0
0000
E018
E018
E018
E018
E018
E018
E018
E018
E018
E018
E018
E018
E018
E018
E018
7038
7870
3FE0
1FC0
ENDCHAR
STARTCHAR Yacute
ENCODING 221
SWIDTH 42 0
DWIDTH 16 0
BBX 16 24 0 0
BITMAP
0070
00E0
01C0
0380
0000
E007
7006
780C
381C
3C18
1C30
1E30
0F60
07E0
07C0
0380
0380
0380
0380
0380
0380
0380
0380
0380
ENDCHAR
STARTCHAR Thorn
ENCODING 222
SWIDTH 42 0
DWIDTH 14 0
BBX 11 19 3 0
BITMAP
E000
E000
E000
E000
FF80
FFC0
E1E0
E0E0
E0E0
E0E0
E0E0
E1E0
E3C0
FF80
FE00
E000
E000
E000
E000
ENDCHAR
STARTCHAR germandbls
ENCODING 223
SWIDTH 42 0
DWIDTH 16 0
BBX 13 20 2 0
BITMAP
3F00
7F80
F3C0
E1C0
E1C0
E180
E300
E700
E600
E700
E780
E3C0
E1F0
E0F0
E038
E018
E018
E438
E7F0
E3E0
ENDCHAR
STARTCHAR agrave
ENCODING 224
SWIDTH 42 0
DWIDTH 14 0
BBX 12 19 2 0
BITMAP
3800
1C00
0E00
0700
0000
1F80
7FC0
41C0
01C0
01C0
01C0
1FC0
7FC0
F1C0
E1C0
E1C0
E3C0
7EF0
3C70
ENDCHAR
STARTCHAR aacute
ENCODING 225
SWIDTH 42 0
DWIDTH 14 0
BBX 12 19 2 0
BITMAP
0380
0700
0E00
1C00
0000
1F80
7FC0
41C0
01C0
01C0
01C0
1FC0
7FC0
F1C0
E1C0
E1C0
E3C0
7EF0
3C70
ENDCHAR
STARTCHAR acircumflex
ENCODING 226
SWIDTH 42 0
DWIDTH 14 0
BBX 12 19 2 0
BITMAP
0F00
0F00
1980
30C0
0000
1F80
7FC0
41C0
01C0
01C0
01C0
1FC0
7FC0
F1C0
E1C0
E1C0
E3C0
7EF0
3C70
ENDCHAR
STARTCHAR atilde
ENCODING 227
SWIDTH 42 0
DWIDTH 14 0
BBX 12 18 2 0
BITMAP
1C40
3FC0
3380
0000
1F80
7FC0
41C0
01C0
01C0
01C0
1FC0
7FC0
F1C0
E1C0
E1C0
E3C0
7EF0
3C70
ENDCHAR
STARTCHAR adieresis
ENCODING 228
SWIDTH 42 0
DWIDTH 14 0
BBX 12 17 2 0
BITMAP
3180
3180
0000
1F80
7FC0
41C0
01C0
01C0
01C0
1FC0
7FC0
F1C0
E1C0
E1C0
E3C0
7EF0
3C70
ENDCHAR
STARTCHAR aring
ENCODING 229
SWIDTH 42 0
DWIDTH 14 0
BBX 12 19 2 0
BITMAP
0600
0900
0900
0600
0000
1F80
7FC0
41C0
01C0
01C0
01C0
1FC0
7FC0
F1C0
E1C0
E1C0
E3C0
7EF0
3C70
ENDCHAR
STARTCHAR ae
ENCODING 230
SWIDTH 42 0
DWIDTH 22 0
BBX 19 14 1 0
BITMAP
1F9F00
7FFF80
60F1C0
00F0C0
00E0E0
00E0E0
0FFFE0
7FFFE0
70E000
E0E000
E0F000
F17820
7E3FE0
3C0FC0
ENDCHAR
STARTCHAR ccedilla
ENCODING 231
SWIDTH 42 0
DWIDTH 13 0
BBX 11 19 1 -5
BITMAP
0FE0
3FE0
7820
7000
E000
E000
E000
E000
E000
E000
7000
7820
3FE0
0FC0
0400
0700
0300
0300
0E00
ENDCHAR
STARTCHAR egrave
ENCODING 232
SWIDTH 42 0
DWIDTH 14 0
BBX 12 19 1 0
BITMAP
1C00
0E00
0700
0380
0000
0F80
3FC0
70E0
7060
E070
E070
FFF0
FFF0
E000
E000
7000
7C10
1FF0
0FE0
ENDCHAR
STARTCHAR eacute
ENCODING 233
SWIDTH 42 0
DWIDTH 14 0
BBX 12 19 1 0
BITMAP
01C0
0380
0700
0E00
0000
0F80
3FC0
70E0
7060
E070
E070
FFF0
FFF0
E000
E000
7000
7C10
1FF0
0FE0
ENDCHAR
STARTCHAR ecircumflex
ENCODING 234
SWIDTH 42 0
DWIDTH 14 0
BBX 12 19 1 0
BITMAP
0F00
0F00
1980
30C0
0000
0F80
3FC0
70E0
7060
E070
E070
FFF0
FFF0
E000
E000
7000
7C10
1FF0
0FE0
ENDCHAR
STARTCHAR edieresis
ENCODING 235
SWIDTH 42 0
DWIDTH 14 0
BBX 12 17 1 0
BITMAP
18C0
18C0
0000
0F80
3FC0
70E0
7060
E070
E070
FFF0
FFF0
E000
E000
7000
7C10
1FF0
0FE0
ENDCHAR
STARTCHAR igrave
ENCODING 236
SWIDTH 42 0
DWIDTH 8 0
BBX 6 19 4 0
BITMAP
E0
70
38
1C
00
38
38
38
38
38
38
38
38
38
38
38
38
38
38
ENDCHAR
STARTCHAR iacute
ENCODING 237
SWIDTH 42 0
DWIDTH 8 0
BBX 6 19 3 0
BITMAP
1C
38
70
E0
00
70
70
70
70
70
70
70
70
70
70
70
70
70
70
ENDCHAR
STARTCHAR icircumflex
ENCODING 238
SWIDTH 42 0
DWIDTH 8 0
BBX 8 19 4 0
BITMAP
3C
3C
66
C3
00
38
38
38
38
38
38
38
38
38
38
38
38
38
38
ENDCHAR
STARTCHAR idieresis
ENCODING 239
SWIDTH 42 0
DWIDTH 8 0
BBX 7 17 4 0
BITMAP
C6
C6
00
38
38
38
38
38
38
38
38
38
38
38
38
38
38
ENDCHAR
STARTCHAR eth
ENCODING 240
SWIDTH 42 0
DWIDTH 16 0
BBX 13 19 1 0
BITMAP
FF00
8F80
3E00
3980
21C0
0FE0
3FE0
78F0
7070
E038
E038
E038
E038
E038
E038
7070
78F0
3FE0
0F80
ENDCHAR
STARTCHAR ntilde
ENCODING 241
SWIDTH 42 0
DWIDTH 16 0
BBX 11 18 3 0
BITMAP
3880
7F80
6700
0000
E780
EFC0
F8E0
F0E0
E0E0
E0E0
E0E0
E0E0
E0E0
E0E0
E0E0
E0E0
E0E0
E0E0
ENDCHAR
STARTCHAR ograve
ENCODING 242
SWIDTH 42 0
DWIDTH 16 0
BBX 13 19 1 0
BITMAP
1C00
0E00
0700
0380
0000
0F80
3FE0
78F0
7070
E038
E038
E038
E038
E038
E038
7070
78F0
3FE0
0F80
ENDCHAR
STARTCHAR oacute
ENCODING 243
SWIDTH 42 0
DWIDTH 16 0
BBX 13 19 1 0
BITMAP
01C0
0380
0700
0E00
0000
0F80
3FE0
78F0
7070
E038
E038
E038
E038
E038
E038
7070
78F0
3FE0
0F80
ENDCHAR
STARTCHAR ocircumflex
ENCODING 244
SWIDTH 42 0
DWIDTH 16 0
BBX 13 19 1 0
BITMAP
0780
0780
0CC0
1860
0000
0F80
3FE0
78F0
7070
E038
E038
E038
E038
E038
E038
7070
78F0
3FE0
0F80
ENDCHAR
STARTCHAR otilde
ENCODING 245
SWIDTH 42 0
DWIDTH 16 0
BBX 13 18 1 0
BITMAP
0E20
1FE0
19C0
0000
0F80
3FE0
78F0
7070
E038
E038
E038
E038
E038
E038
7070
78F0
3FE0
0F80
ENDCHAR
STARTCHAR odieresis
ENCODING 246
SWIDTH 42 0
DWIDTH 16 0
BBX 13 17 1 0
BITMAP
18C0
18C0
0000
0F80
3FE0
78F0
7070
E038
E038
E038
E038
E038
E038
7070
78F0
3FE0
0F80
ENDCHAR
STARTCHAR divide
ENCODING 247
SWIDTH 42 0
DWIDTH 16 0
BBX 15 14 1 0
BITMAP
0380
0380
0380
0000
0000
0000
FFFE
FFFE
0000
0000
0000
0380
0380
0380
ENDCHAR
STARTCHAR oslash
ENCODING 248
SWIDTH 42 0
DWIDTH 16 0
BBX 13 14 1 0
BITMAP
0FB8
3FF0
78F0
70F0
E1F8
E3B8
E338
E638
EE38
FC38
7870
78F0
7FE0
EF80
ENDCHAR
STARTCHAR ugrave
ENCODING 249
SWIDTH 42 0
DWIDTH 16 0
BBX 11 19 2 0
BITMAP
3800
1C00
0E00
0700
0000
E0E0
E0E0
E0E0
E0E0
E0E0
E0E0
E0E0
E0E0
E0E0
E0E0
E1E0
E3E0
7EE0
3CE0
ENDCHAR
STARTCHAR uacute
ENCODING 250
SWIDTH 42 0
DWIDTH 16 0
BBX 11 19 2 0
BITMAP
0380
0700
0E00
1C00
0000
E0E0
E0E0
E0E0
E0E0
E0E0
E0E0
E0E0
E0E0
E0E0
E0E0
E1E0
E3E0
7EE0
3CE0
ENDCHAR
STARTCHAR ucircumflex
ENCODING 251
SWIDTH 42 0
DWIDTH 16 0
BBX 11 19 2 0
BITMAP
0F00
0F00
1980
30C0
0000
E0E0
E0E0
E0E0
E0E0
E0E0
E0E0
E0E0
E0E0
E0E0
E0E0
E1E0
E3E0
7EE0
3CE0
ENDCHAR
STARTCHAR udieresis
ENCODING 252
SWIDTH 42 0
DWIDTH 16 0
BBX 11 17 2 0
BITMAP
3180
3180
0000
E0E0
E0E0
E0E0
E0E0
E0E0
E0E0
E0E0
E0E0
E0E0
E0E0
E1E0
E3E0
7EE0
3CE0
ENDCHAR
STARTCHAR yacute
ENCODING 253
SWIDTH 42 0
DWIDTH 14 0
BBX 13 24 0 -5
BITMAP
01C0
0380
0700
0E00
0000
E018
F030
7030
7070
7860
3860
38C0
1CC0
1DC0
1D80
0F80
0F00
0F00
0700
0600
0600
0E00
0C00
1C00
ENDCHAR
STARTCHAR thorn
ENCODING 254
SWIDTH 42 0
DWIDTH 16 0
BBX 12 23 3 -5
BITMAP
E000
E000
E000
E000
E780
EFE0
F8E0
F0F0
E070
E070
E070
E070
E070
E070
E0E0
F1E0
FFC0
EF80
E000
E000
E000
E000
E000
ENDCHAR
STARTCHAR ydieresis
ENCODING 255
SWIDTH 42 0
DWIDTH 14 0
BBX 13 22 0 -5
BITMAP
18C0
18C0
0000
E018
F030
7030
7070
7860
3860
38C0
1CC0
1DC0
1D80
0F80
0F00
0F00
0700
0600
0600
0E00
0C00
1C00
ENDCHAR
STARTCHAR fl
ENCODING -1
SWIDTH 42 0
DWIDTH 17 0
BBX 13 20 1 0
BITMAP
0FF8
1FF8
3838
3838
3838
3838
FE38
FE38
3838
3838
3838
3838
3838
3838
3838
3838
3838
3838
3838
3838
ENDCHAR
STARTCHAR endash
ENCODING -1
SWIDTH 42 0
DWIDTH 13 0
BBX 10 2 2 7
BITMAP
FFC0
FFC0
ENDCHAR
STARTCHAR dagger
ENCODING -1
SWIDTH 42 0
DWIDTH 16 0
BBX 10 23 3 -4
BITMAP
0C00
0C00
0C00
0C00
0C00
0C00
0C00
FFC0
FFC0
0C00
0C00
0C00
0C00
0C00
0C00
0C00
0C00
0C00
0C00
0C00
0C00
0C00
0C00
ENDCHAR
STARTCHAR Zcaron
ENCODING -1
SWIDTH 42 0
DWIDTH 16 0
BBX 13 24 1 0
BITMAP
1860
0CC0
0780
0780
0000
7FF8
7FF8
0078
0070
00F0
01E0
01C0
03C0
0780
0700
0F00
1E00
1C00
3C00
7800
7000
F000
FFF8
FFF8
ENDCHAR
STARTCHAR oe
ENCODING -1
SWIDTH 42 0
DWIDTH 24 0
BBX 20 14 2 0
BITMAP
0F8F80
3FDFE0
78D8E0
70F870
E07070
E07070
E07FF0
E07FF0
E07000
E07000
70F800
78DC10
3FDFF0
0F87E0
ENDCHAR
STARTCHAR Ydieresis
ENCODING -1
SWIDTH 42 0
DWIDTH 16 0
BBX 16 22 0 0
BITMAP
0630
0630
0000
E007
7006
780C
381C
3C18
1C30
1E30
0F60
07E0
07C0
0380
0380
0380
0380
0380
0380
0380
0380
0380
ENDCHAR
STARTCHAR dotlessi
ENCODING -1
SWIDTH 42 0
DWIDTH 8 0
BBX 3 14 2 0
BITMAP
E0
E0
E0
E0
E0
E0
E0
E0
E0
E0
E0
E0
E0
E0
ENDCHAR
STARTCHAR lslash
ENCODING -1
SWIDTH 42 0
DWIDTH 8 0
BBX 9 19 0 0
BITMAP
1C00
1C00
1C00
1C00
1C00
1C80
1F80
1F00
1C00
7C00
DC00
9C00
1C00
1C00
1C00
1C00
1C00
1C00
1C00
ENDCHAR
STARTCHAR Lslash
ENCODING -1
SWIDTH 42 0
DWIDTH 14 0
BBX 14 19 0 0
BITMAP
1C00
1C00
1C00
1C00
1C00
1C00
1C80
1F80
1F00
3C00
FC00
DC00
9C00
1C00
1C00
1C00
1C00
1FFC
1FFC
ENDCHAR
STARTCHAR daggerdbl
ENCODING -1
SWIDTH 42 0
DWIDTH 16 0
BBX 10 23 3 -4
BITMAP
0C00
0C00
0C00
0C00
0C00
0C00
0C00
FFC0
FFC0
0C00
0C00
0C00
0C00
0C00
0C00
FFC0
FFC0
0C00
0C00
0C00
0C00
0C00
0C00
ENDCHAR
STARTCHAR fi
ENCODING -1
SWIDTH 42 0
DWIDTH 17 0
BBX 13 20 1 0
BITMAP
0F80
1FB8
38B8
3838
3800
3800
FFF8
FFF8
3838
3838
3838
3838
3838
3838
3838
3838
3838
3838
3838
3838
ENDCHAR
STARTCHAR guilsinglright
ENCODING -1
SWIDTH 42 0
DWIDTH 9 0
BBX 6 12 1 1
BITMAP
40
E0
60
30
38
1C
1C
38
30
60
E0
40
ENDCHAR
STARTCHAR OE
ENCODING -1
SWIDTH 42 0
DWIDTH 26 0
BBX 24 19 1 0
BITMAP
03F7FE
0FFFFE
3C1F00
380F00
700700
700700
E00700
E00700
E007FC
E007FC
E00700
E00700
E00700
700700
700700
380F00
3C1F00
0FFFFF
03F7FF
ENDCHAR
STARTCHAR emdash
ENCODING -1
SWIDTH 42 0
DWIDTH 26 0
BBX 23 2 2 7
BITMAP
FFFFFE
FFFFFE
ENDCHAR
STARTCHAR caron
ENCODING -1
SWIDTH 42 0
DWIDTH 16 0
BBX 8 4 4 15
BITMAP
C3
66
3C
3C
ENDCHAR
STARTCHAR ogonek
ENCODING -1
SWIDTH 42 0
DWIDTH 16 0
BBX 4 4 6 -4
BITMAP
60
C0
C0
70
ENDCHAR
STARTCHAR hungarumlaut
ENCODING -1
SWIDTH 42 0
DWIDTH 16 0
BBX 8 4 5 15
BITMAP
1B
36
6C
D8
ENDCHAR
STARTCHAR guilsinglleft
ENCODING -1
SWIDTH 42 0
DWIDTH 9 0
BBX 6 12 2 1
BITMAP
08
1C
18
30
70
E0
E0
70
30
18
1C
08
ENDCHAR
STARTCHAR dotaccent
ENCODING -1
SWIDTH 42 0
DWIDTH 16 0
BBX 2 3 7 16
BITMAP
C0
C0
C0
ENDCHAR
STARTCHAR breve
ENCODING -1
SWIDTH 42 0
DWIDTH 16 0
BBX 8 4 4 15
BITMAP
C3
C3
7E
3C
ENDCHAR
STARTCHAR bullet
ENCODING -1
SWIDTH 42 0
DWIDTH 16 0
BBX 8 8 4 4
BITMAP
FF
FF
FF
FF
FF
FF
FF
FF
ENDCHAR
STARTCHAR tilde
ENCODING -1
SWIDTH 42 0
DWIDTH 16 0
BBX 8 3 4 16
BITMAP
71
FF
CE
ENDCHAR
STARTCHAR circumflex
ENCODING -1
SWIDTH 42 0
DWIDTH 16 0
BBX 8 4 4 15
BITMAP
3C
3C
66
C3
ENDCHAR
STARTCHAR quotedblleft
ENCODING -1
SWIDTH 42 0
DWIDTH 10 0
BBX 7 6 1 13
BITMAP
66
CC
CC
EE
EE
EE
ENDCHAR
STARTCHAR quotesingle
ENCODING -1
SWIDTH 42 0
DWIDTH 6 0
BBX 4 6 1 13
BITMAP
F0
F0
F0
60
60
60
ENDCHAR
STARTCHAR scaron
ENCODING -1
SWIDTH 42 0
DWIDTH 13 0
BBX 9 19 2 0
BITMAP
6180
3300
1E00
1E00
0000
3F00
7F00
F100
E000
E000
F800
7E00
3F00
0780
0380
0380
8780
FF00
7E00
ENDCHAR
STARTCHAR ring
ENCODING -1
SWIDTH 42 0
DWIDTH 16 0
BBX 4 4 6 16
BITMAP
60
90
90
60
ENDCHAR
STARTCHAR quotesinglbase
ENCODING -1
SWIDTH 42 0
DWIDTH 6 0
BBX 3 8 1 -4
BITMAP
E0
E0
E0
E0
60
60
40
C0
ENDCHAR
STARTCHAR florin
ENCODING -1
SWIDTH 42 0
DWIDTH 16 0
BBX 12 23 3 -4
BITMAP
01F0
07F0
0600
0E00
0E00
1C00
1C00
1C00
FF00
FF00
1C00
1C00
3800
3800
3800
3800
7800
7000
7000
7000
7000
E000
E000
ENDCHAR
STARTCHAR trademark
ENCODING -1
SWIDTH 42 0
DWIDTH 21 0
BBX 20 10 0 9
BITMAP
FF3870
FF3870
183CF0
183CF0
1837F0
1837B0
1837B0
183330
183330
183030
ENDCHAR
STARTCHAR fraction
ENCODING -1
SWIDTH 42 0
DWIDTH 1 0
BBX 16 19 -7 0
BITMAP
0007
000E
000C
001C
0038
0030
0060
00E0
01C0
0180
0380
0700
0600
0C00
1C00
3800
3000
7000
E000
ENDCHAR
STARTCHAR grave
ENCODING -1
SWIDTH 42 0
DWIDTH 16 0
BBX 6 4 4 15
BITMAP
E0
70
38
1C
ENDCHAR
STARTCHAR perthousand
ENCODING -1
SWIDTH 42 0
DWIDTH 26 0
BBX 26 19 0 0
BITMAP
3C038000
7E070000
E7060000
C30C0000
C31C0000
C3380000
E7300000
7E600000
3CE00000
01DE0F00
03BF1F80
0373B9C0
0661B0C0
0E61B0C0
1C61B0C0
1861B0C0
3073B9C0
703F1F80
E01E0F00
ENDCHAR
STARTCHAR ellipsis
ENCODING -1
SWIDTH 42 0
DWIDTH 26 0
BBX 20 3 3 0
BITMAP
E07070
E07070
E07070
ENDCHAR
STARTCHAR quotedblright
ENCODING -1
SWIDTH 42 0
DWIDTH 10 0
BBX 7 6 1 13
BITMAP
EE
EE
EE
66
66
CC
ENDCHAR
STARTCHAR Scaron
ENCODING -1
SWIDTH 42 0
DWIDTH 14 0
BBX 11 24 1 0
BITMAP
30C0
1980
0F00
0F00
0000
1F80
7FC0
70C0
E000
E000
E000
F000
7C00
3E00
1F80
07C0
03C0
01E0
00E0
00E0
00E0
C1C0
FF80
7F00
ENDCHAR
STARTCHAR quotedblbase
ENCODING -1
SWIDTH 42 0
DWIDTH 10 0
BBX 7 8 1 -5
BITMAP
EE
EE
EE
66
66
66
CC
88
ENDCHAR
STARTCHAR zcaron
ENCODING -1
SWIDTH 42 0
DWIDTH 15 0
BBX 12 19 1 0
BITMAP
30C0
1980
0F00
0F00
0000
FFF0
FFF0
0060
00C0
0180
0380
0700
0E00
1C00
3800
3000
6000
FFF0
FFF0
ENDCHAR
ENDFONT
