#define dmover_plain_width 11
#define dmover_plain_height 11
#define dmover_plain_x_hot 5
#define dmover_plain_y_hot 5
static char dmover_plain_bits[] = {
   0x00, 0x00, 0xf8, 0x00, 0x88, 0x01, 0x88, 0x01, 0x8e, 0x03, 0x02, 0x06,
   0x04, 0x07, 0x88, 0x03, 0xd0, 0x01, 0xe0, 0x00, 0x40, 0x00};
