#define ldfast_width 16
#define ldfast_height 16
#define ldfast_x_hot 6
#define ldfast_y_hot 9
static char ldfast_bits[] = {
   0x00, 0x00, 0x40, 0x00, 0xc0, 0x00, 0x40, 0x01, 0x40, 0x02, 0x40, 0x04,
   0x42, 0x08, 0x46, 0x10, 0x4a, 0x20, 0xd2, 0x7f, 0x22, 0x00, 0x42, 0x00,
   0x82, 0x00, 0x02, 0x01, 0xfe, 0x03, 0x00, 0x00};
