#define lmover_plain_width 11
#define lmover_plain_height 11
#define lmover_plain_x_hot 5
#define lmover_plain_y_hot 5
static char lmover_plain_bits[] = {
   0x00, 0x00, 0x60, 0x00, 0x50, 0x00, 0xc8, 0x03, 0x04, 0x06, 0x02, 0x06,
   0x04, 0x06, 0xc8, 0x07, 0xd0, 0x07, 0xe0, 0x00, 0xc0, 0x00};
