#define lufast_width 16
#define lufast_height 16
#define lufast_x_hot 6
#define lufast_y_hot 6
static char lufast_bits[] = {
   0x00, 0x00, 0xfe, 0x03, 0x02, 0x01, 0x82, 0x00, 0x42, 0x00, 0x22, 0x00,
   0xd2, 0x7f, 0x4a, 0x20, 0x46, 0x10, 0x42, 0x08, 0x40, 0x04, 0x40, 0x02,
   0x40, 0x01, 0xc0, 0x00, 0x40, 0x00, 0x00, 0x00};
