#define radio_plain_width 11
#define radio_plain_height 11
#define radio_plain_x_hot 5
#define radio_plain_y_hot 5
static char radio_plain_bits[] = {
   0x70, 0x00, 0x8c, 0x01, 0x02, 0x02, 0x02, 0x02, 0x01, 0x04, 0x01, 0x04,
   0x01, 0x04, 0x02, 0x02, 0x02, 0x02, 0x8c, 0x01, 0x70, 0x00};
