#define rmover_plain_width 11
#define rmover_plain_height 11
#define rmover_plain_x_hot 5
#define rmover_plain_y_hot 5
static char rmover_plain_bits[] = {
   0x00, 0x00, 0x30, 0x00, 0x50, 0x00, 0x9e, 0x00, 0x02, 0x01, 0x02, 0x02,
   0x02, 0x07, 0x9e, 0x03, 0xdc, 0x01, 0xf0, 0x00, 0x60, 0x00};
