#define qdownmask_width 16
#define qdownmask_height 16
static char qdownmask_bits[] = {
   0xc0, 0x03, 0xc0, 0x03, 0xc0, 0x03, 0xc0, 0x03, 0xc0, 0x03, 0xc0, 0x03,
   0xc0, 0x03, 0xe0, 0x03, 0xf0, 0x03, 0xf8, 0x3d, 0xf8, 0x3c, 0x78, 0x3c,
   0xf8, 0x3e, 0xf8, 0x3f, 0xf0, 0x1f, 0xe0, 0x0f};
