#define qleftmask_width 16
#define qleftmask_height 16
static char qleftmask_bits[] = {
   0x00, 0x00, 0x00, 0x00, 0x00, 0x00, 0x7c, 0x00, 0xfe, 0x00, 0xff, 0x01,
   0xff, 0xff, 0xef, 0xff, 0xc7, 0xff, 0x8f, 0xff, 0x7f, 0x00, 0x7f, 0x00,
   0x7e, 0x00, 0x7c, 0x00, 0x00, 0x00, 0x00, 0x00};
