#define qleft_width 16
#define qleft_height 16
#define qleft_x_hot 7
#define qleft_y_hot 8
static char qleft_bits[] = {
   0x00, 0x00, 0x00, 0x00, 0x00, 0x00, 0x00, 0x00, 0x38, 0x00, 0x7c, 0x00,
   0xc6, 0x00, 0x82, 0x67, 0x02, 0x67, 0x02, 0x00, 0x06, 0x00, 0x3c, 0x00,
   0x38, 0x00, 0x00, 0x00, 0x00, 0x00, 0x00, 0x00};
