#define qrightmask_width 16
#define qrightmask_height 16
static char qrightmask_bits[] = {
   0x00, 0x00, 0x00, 0x00, 0x00, 0x3e, 0x00, 0x7e, 0x00, 0xfe, 0x00, 0xfe,
   0xff, 0xf1, 0xff, 0xe3, 0xff, 0xf7, 0xff, 0xff, 0x80, 0xff, 0x00, 0x7f,
   0x00, 0x3e, 0x00, 0x00, 0x00, 0x00, 0x00, 0x00};
