#define qright_width 16
#define qright_height 16
#define qright_x_hot 8
#define qright_y_hot 7
static char qright_bits[] = {
   0x00, 0x00, 0x00, 0x00, 0x00, 0x00, 0x00, 0x1c, 0x00, 0x3c, 0x00, 0x60,
   0x00, 0x40, 0xe6, 0x40, 0xe6, 0x41, 0x00, 0x63, 0x00, 0x3e, 0x00, 0x1c,
   0x00, 0x00, 0x00, 0x00, 0x00, 0x00, 0x00, 0x00};
