#define qup_width 16
#define qup_height 16
#define qup_x_hot 7
#define qup_y_hot 7
static char qup_bits[] = {
   0x00, 0x00, 0xe0, 0x03, 0x30, 0x06, 0x18, 0x0c, 0x18, 0x0c, 0x18, 0x0c,
   0x00, 0x06, 0x00, 0x03, 0x80, 0x01, 0x80, 0x01, 0x80, 0x01, 0x00, 0x00,
   0x00, 0x00, 0x80, 0x01, 0x80, 0x01, 0x00, 0x00};
