#define qupmask_width 16
#define qupmask_height 16
static char qupmask_bits[] = {
   0xf0, 0x07, 0xf8, 0x0f, 0xfc, 0x1f, 0x7c, 0x1f, 0x3c, 0x1e, 0x3c, 0x1f,
   0xbc, 0x1f, 0xc0, 0x0f, 0xc0, 0x07, 0xc0, 0x03, 0xc0, 0x03, 0xc0, 0x03,
   0xc0, 0x03, 0xc0, 0x03, 0xc0, 0x03, 0xc0, 0x03};
