#define pageChosen_width 15
#define pageChosen_height 20
#define pageChosen_x_hot 7
#define pageChosen_y_hot 16
static char pageChosen_bits[] = {
   0x00, 0x00, 0xfe, 0x07, 0xfe, 0x0f, 0x06, 0x1b, 0x06, 0x33, 0x06, 0x3f,
   0x06, 0x3f, 0x06, 0x30, 0x06, 0x30, 0x06, 0x30, 0x06, 0x30, 0x06, 0x30,
   0x06, 0x30, 0x06, 0x30, 0x06, 0x30, 0x06, 0x30, 0x06, 0x30, 0xfe, 0x3f,
   0xfe, 0x3f, 0x00, 0x00};
