#define pageBoth_width 15
#define pageBoth_height 20
#define pageBoth_x_hot 7
#define pageBoth_y_hot 16
static char pageBoth_bits[] = {
   0x00, 0x00, 0xfe, 0x07, 0xfe, 0x0f, 0x06, 0x1f, 0x06, 0x3f, 0x06, 0x3f,
   0x06, 0x3f, 0x06, 0x30, 0x06, 0x30, 0x06, 0x30, 0x06, 0x30, 0x06, 0x30,
   0x06, 0x30, 0x06, 0x30, 0x06, 0x30, 0x06, 0x30, 0x06, 0x30, 0xfe, 0x3f,
   0xfe, 0x3f, 0x00, 0x00};
