#define pagePlain_width 15
#define pagePlain_height 20
#define pagePlain_x_hot 7
#define pagePlain_y_hot 16
static char pagePlain_bits[] = {
   0x00, 0x00, 0xfe, 0x03, 0x02, 0x06, 0x02, 0x0a, 0x02, 0x12, 0x02, 0x3e,
   0x02, 0x20, 0x02, 0x20, 0x02, 0x20, 0x02, 0x20, 0x02, 0x20, 0x02, 0x20,
   0x02, 0x20, 0x02, 0x20, 0x02, 0x20, 0x02, 0x20, 0x02, 0x20, 0x02, 0x20,
   0xfe, 0x3f, 0x00, 0x00};
