#define pageHit_width 15
#define pageHit_height 20
#define pageHit_x_hot 7
#define pageHit_y_hot 16
static char pageHit_bits[] = {
   0x00, 0x00, 0xfe, 0x03, 0x02, 0x06, 0x02, 0x0e, 0x02, 0x1e, 0x02, 0x3e,
   0x02, 0x20, 0x02, 0x20, 0x02, 0x20, 0x02, 0x20, 0x02, 0x20, 0x02, 0x20,
   0x02, 0x20, 0x02, 0x20, 0x02, 0x20, 0x02, 0x20, 0x02, 0x20, 0x02, 0x20,
   0xfe, 0x3f, 0x00, 0x00};
