STARTFONT 2.1
FONT -Misc-Fixed-Medium-R-Normal--14-130-75-75-C-70-JISX0201.1976-0
SIZE 7 75 75
FONTBOUNDINGBOX 7 14 0 -2
STARTPROPERTIES 19
FONTNAME_REGISTRY ""
FOUNDRY "Misc"
FAMILY_NAME "Fixed"
WEIGHT_NAME "Medium"
SLANT "R"
SETWIDTH_NAME "Normal"
ADD_STYLE_NAME ""
PIXEL_SIZE 14
POINT_SIZE 130
RESOLUTION_X 75
RESOLUTION_Y 75
SPACING "C"
AVERAGE_WIDTH 70
CHARSET_REGISTRY "JISX0201.1976"
CHARSET_ENCODING "0"
DEFAULT_CHAR 32
FONT_DESCENT 2
FONT_ASCENT 12
COPYRIGHT "Public domain font.  Share and enjoy."
ENDPROPERTIES
CHARS 175
STARTCHAR 0001
ENCODING 1
SWIDTH 480 0
DWIDTH 7 0
BBX 7 14 0 -2
BITMAP
00
00
18
18
3C
3C
7E
7E
3C
3C
18
18
00
00
ENDCHAR
STARTCHAR 0002
ENCODING 2
SWIDTH 480 0
DWIDTH 7 0
BBX 7 14 0 -2
BITMAP
54
AA
54
AA
54
AA
54
AA
54
AA
54
AA
54
AA
ENDCHAR
STARTCHAR 000b
ENCODING 11
SWIDTH 480 0
DWIDTH 7 0
BBX 7 14 0 -2
BITMAP
10
10
10
10
10
10
10
F0
00
00
00
00
00
00
ENDCHAR
STARTCHAR 000c
ENCODING 12
SWIDTH 480 0
DWIDTH 7 0
BBX 7 14 0 -2
BITMAP
00
00
00
00
00
00
00
F0
10
10
10
10
10
10
ENDCHAR
STARTCHAR 000d
ENCODING 13
SWIDTH 480 0
DWIDTH 7 0
BBX 7 14 0 -2
BITMAP
00
00
00
00
00
00
00
1E
10
10
10
10
10
10
ENDCHAR
STARTCHAR 000e
ENCODING 14
SWIDTH 480 0
DWIDTH 7 0
BBX 7 14 0 -2
BITMAP
10
10
10
10
10
10
10
1E
00
00
00
00
00
00
ENDCHAR
STARTCHAR 000f
ENCODING 15
SWIDTH 480 0
DWIDTH 7 0
BBX 7 14 0 -2
BITMAP
10
10
10
10
10
10
10
FE
10
10
10
10
10
10
ENDCHAR
STARTCHAR 0010
ENCODING 16
SWIDTH 480 0
DWIDTH 7 0
BBX 7 14 0 -2
BITMAP
FE
00
00
00
00
00
00
00
00
00
00
00
00
00
ENDCHAR
STARTCHAR 0011
ENCODING 17
SWIDTH 480 0
DWIDTH 7 0
BBX 7 14 0 -2
BITMAP
00
00
00
00
FE
00
00
00
00
00
00
00
00
00
ENDCHAR
STARTCHAR 0012
ENCODING 18
SWIDTH 480 0
DWIDTH 7 0
BBX 7 14 0 -2
BITMAP
00
00
00
00
00
00
00
FE
00
00
00
00
00
00
ENDCHAR
STARTCHAR 0013
ENCODING 19
SWIDTH 480 0
DWIDTH 7 0
BBX 7 14 0 -2
BITMAP
00
00
00
00
00
00
00
00
00
FE
00
00
00
00
ENDCHAR
STARTCHAR 0014
ENCODING 20
SWIDTH 480 0
DWIDTH 7 0
BBX 7 14 0 -2
BITMAP
00
00
00
00
00
00
00
00
00
00
00
00
00
FE
ENDCHAR
STARTCHAR 0015
ENCODING 21
SWIDTH 480 0
DWIDTH 7 0
BBX 7 14 0 -2
BITMAP
10
10
10
10
10
10
10
1E
10
10
10
10
10
10
ENDCHAR
STARTCHAR 0016
ENCODING 22
SWIDTH 480 0
DWIDTH 7 0
BBX 7 14 0 -2
BITMAP
10
10
10
10
10
10
10
F0
10
10
10
10
10
10
ENDCHAR
STARTCHAR 0017
ENCODING 23
SWIDTH 480 0
DWIDTH 7 0
BBX 7 14 0 -2
BITMAP
10
10
10
10
10
10
10
FE
00
00
00
00
00
00
ENDCHAR
STARTCHAR 0018
ENCODING 24
SWIDTH 480 0
DWIDTH 7 0
BBX 7 14 0 -2
BITMAP
00
00
00
00
00
00
00
FE
10
10
10
10
10
10
ENDCHAR
STARTCHAR 0019
ENCODING 25
SWIDTH 480 0
DWIDTH 7 0
BBX 7 14 0 -2
BITMAP
10
10
10
10
10
10
10
10
10
10
10
10
10
10
ENDCHAR
STARTCHAR 0020
ENCODING 32
SWIDTH 480 0
DWIDTH 7 0
BBX 7 14 0 -2
BITMAP
00
00
00
00
00
00
00
00
00
00
00
00
00
00
ENDCHAR
STARTCHAR 0021
ENCODING 33
SWIDTH 480 0
DWIDTH 7 0
BBX 7 14 0 -2
BITMAP
00
00
10
10
10
10
10
10
10
00
10
10
00
00
ENDCHAR
STARTCHAR 0022
ENCODING 34
SWIDTH 480 0
DWIDTH 7 0
BBX 7 14 0 -2
BITMAP
6C
24
24
48
00
00
00
00
00
00
00
00
00
00
ENDCHAR
STARTCHAR 0023
ENCODING 35
SWIDTH 480 0
DWIDTH 7 0
BBX 7 14 0 -2
BITMAP
00
00
0A
0A
0A
7E
14
14
7E
28
28
28
00
00
ENDCHAR
STARTCHAR 0024
ENCODING 36
SWIDTH 480 0
DWIDTH 7 0
BBX 7 14 0 -2
BITMAP
00
00
08
3C
4A
4A
28
1C
0A
4A
4A
3C
08
00
ENDCHAR
STARTCHAR 0025
ENCODING 37
SWIDTH 480 0
DWIDTH 7 0
BBX 7 14 0 -2
BITMAP
00
00
32
4A
4C
38
08
10
1C
32
52
4C
00
00
ENDCHAR
STARTCHAR 0026
ENCODING 38
SWIDTH 480 0
DWIDTH 7 0
BBX 7 14 0 -2
BITMAP
00
00
18
24
24
24
18
32
4A
44
4C
32
00
00
ENDCHAR
STARTCHAR 0027
ENCODING 39
SWIDTH 480 0
DWIDTH 7 0
BBX 7 14 0 -2
BITMAP
30
10
10
20
00
00
00
00
00
00
00
00
00
00
ENDCHAR
STARTCHAR 0028
ENCODING 40
SWIDTH 480 0
DWIDTH 7 0
BBX 7 14 0 -2
BITMAP
00
02
04
08
08
10
10
10
10
10
08
08
04
02
ENDCHAR
STARTCHAR 0029
ENCODING 41
SWIDTH 480 0
DWIDTH 7 0
BBX 7 14 0 -2
BITMAP
00
40
20
10
10
08
08
08
08
08
10
10
20
40
ENDCHAR
STARTCHAR 002a
ENCODING 42
SWIDTH 480 0
DWIDTH 7 0
BBX 7 14 0 -2
BITMAP
00
00
08
2A
1C
08
1C
2A
08
00
00
00
00
00
ENDCHAR
STARTCHAR 002b
ENCODING 43
SWIDTH 480 0
DWIDTH 7 0
BBX 7 14 0 -2
BITMAP
00
00
00
00
10
10
10
7C
10
10
10
00
00
00
ENDCHAR
STARTCHAR 002c
ENCODING 44
SWIDTH 480 0
DWIDTH 7 0
BBX 7 14 0 -2
BITMAP
00
00
00
00
00
00
00
00
00
00
30
10
10
20
ENDCHAR
STARTCHAR 002d
ENCODING 45
SWIDTH 480 0
DWIDTH 7 0
BBX 7 14 0 -2
BITMAP
00
00
00
00
00
00
00
7E
00
00
00
00
00
00
ENDCHAR
STARTCHAR 002e
ENCODING 46
SWIDTH 480 0
DWIDTH 7 0
BBX 7 14 0 -2
BITMAP
00
00
00
00
00
00
00
00
00
00
10
10
00
00
ENDCHAR
STARTCHAR 002f
ENCODING 47
SWIDTH 480 0
DWIDTH 7 0
BBX 7 14 0 -2
BITMAP
00
02
02
04
04
08
08
08
10
10
20
20
40
40
ENDCHAR
STARTCHAR 0030
ENCODING 48
SWIDTH 480 0
DWIDTH 7 0
BBX 7 14 0 -2
BITMAP
00
00
18
24
42
42
42
42
42
42
24
18
00
00
ENDCHAR
STARTCHAR 0031
ENCODING 49
SWIDTH 480 0
DWIDTH 7 0
BBX 7 14 0 -2
BITMAP
00
00
08
18
28
08
08
08
08
08
08
3E
00
00
ENDCHAR
STARTCHAR 0032
ENCODING 50
SWIDTH 480 0
DWIDTH 7 0
BBX 7 14 0 -2
BITMAP
00
00
3C
42
42
02
04
04
08
10
20
7E
00
00
ENDCHAR
STARTCHAR 0033
ENCODING 51
SWIDTH 480 0
DWIDTH 7 0
BBX 7 14 0 -2
BITMAP
00
00
3C
42
42
02
1C
02
02
42
42
3C
00
00
ENDCHAR
STARTCHAR 0034
ENCODING 52
SWIDTH 480 0
DWIDTH 7 0
BBX 7 14 0 -2
BITMAP
00
00
04
0C
14
14
24
24
44
7E
04
04
00
00
ENDCHAR
STARTCHAR 0035
ENCODING 53
SWIDTH 480 0
DWIDTH 7 0
BBX 7 14 0 -2
BITMAP
00
00
7E
40
40
7C
42
02
02
42
42
3C
00
00
ENDCHAR
STARTCHAR 0036
ENCODING 54
SWIDTH 480 0
DWIDTH 7 0
BBX 7 14 0 -2
BITMAP
00
00
1C
22
42
40
5C
62
42
42
42
3C
00
00
ENDCHAR
STARTCHAR 0037
ENCODING 55
SWIDTH 480 0
DWIDTH 7 0
BBX 7 14 0 -2
BITMAP
00
00
7E
42
44
04
08
08
08
08
08
08
00
00
ENDCHAR
STARTCHAR 0038
ENCODING 56
SWIDTH 480 0
DWIDTH 7 0
BBX 7 14 0 -2
BITMAP
00
00
3C
42
42
24
18
24
42
42
42
3C
00
00
ENDCHAR
STARTCHAR 0039
ENCODING 57
SWIDTH 480 0
DWIDTH 7 0
BBX 7 14 0 -2
BITMAP
00
00
3C
42
42
42
46
3A
02
42
44
38
00
00
ENDCHAR
STARTCHAR 003a
ENCODING 58
SWIDTH 480 0
DWIDTH 7 0
BBX 7 14 0 -2
BITMAP
00
00
00
00
10
10
00
00
00
10
10
00
00
00
ENDCHAR
STARTCHAR 003b
ENCODING 59
SWIDTH 480 0
DWIDTH 7 0
BBX 7 14 0 -2
BITMAP
00
00
00
00
10
10
00
00
00
30
10
10
20
00
ENDCHAR
STARTCHAR 003c
ENCODING 60
SWIDTH 480 0
DWIDTH 7 0
BBX 7 14 0 -2
BITMAP
00
00
00
04
08
10
20
40
20
10
08
04
00
00
ENDCHAR
STARTCHAR 003d
ENCODING 61
SWIDTH 480 0
DWIDTH 7 0
BBX 7 14 0 -2
BITMAP
00
00
00
00
00
7E
00
00
7E
00
00
00
00
00
ENDCHAR
STARTCHAR 003e
ENCODING 62
SWIDTH 480 0
DWIDTH 7 0
BBX 7 14 0 -2
BITMAP
00
00
00
40
20
10
08
04
08
10
20
40
00
00
ENDCHAR
STARTCHAR 003f
ENCODING 63
SWIDTH 480 0
DWIDTH 7 0
BBX 7 14 0 -2
BITMAP
00
00
3C
42
42
04
08
08
08
00
08
08
00
00
ENDCHAR
STARTCHAR 0040
ENCODING 64
SWIDTH 480 0
DWIDTH 7 0
BBX 7 14 0 -2
BITMAP
00
00
1C
22
4E
52
52
52
52
4E
20
1E
00
00
ENDCHAR
STARTCHAR 0041
ENCODING 65
SWIDTH 480 0
DWIDTH 7 0
BBX 7 14 0 -2
BITMAP
00
00
10
18
28
24
44
42
7E
42
42
42
00
00
ENDCHAR
STARTCHAR 0042
ENCODING 66
SWIDTH 480 0
DWIDTH 7 0
BBX 7 14 0 -2
BITMAP
00
00
7C
42
42
44
7C
42
42
42
42
7C
00
00
ENDCHAR
STARTCHAR 0043
ENCODING 67
SWIDTH 480 0
DWIDTH 7 0
BBX 7 14 0 -2
BITMAP
00
00
3C
42
42
40
40
40
40
42
42
3C
00
00
ENDCHAR
STARTCHAR 0044
ENCODING 68
SWIDTH 480 0
DWIDTH 7 0
BBX 7 14 0 -2
BITMAP
00
00
78
44
42
42
42
42
42
42
44
78
00
00
ENDCHAR
STARTCHAR 0045
ENCODING 69
SWIDTH 480 0
DWIDTH 7 0
BBX 7 14 0 -2
BITMAP
00
00
7E
40
40
40
7C
40
40
40
40
7E
00
00
ENDCHAR
STARTCHAR 0046
ENCODING 70
SWIDTH 480 0
DWIDTH 7 0
BBX 7 14 0 -2
BITMAP
00
00
7E
40
40
40
7C
40
40
40
40
40
00
00
ENDCHAR
STARTCHAR 0047
ENCODING 71
SWIDTH 480 0
DWIDTH 7 0
BBX 7 14 0 -2
BITMAP
00
00
3C
42
42
40
40
4E
42
42
42
3C
00
00
ENDCHAR
STARTCHAR 0048
ENCODING 72
SWIDTH 480 0
DWIDTH 7 0
BBX 7 14 0 -2
BITMAP
00
00
42
42
42
42
7E
42
42
42
42
42
00
00
ENDCHAR
STARTCHAR 0049
ENCODING 73
SWIDTH 480 0
DWIDTH 7 0
BBX 7 14 0 -2
BITMAP
00
00
3E
08
08
08
08
08
08
08
08
3E
00
00
ENDCHAR
STARTCHAR 004a
ENCODING 74
SWIDTH 480 0
DWIDTH 7 0
BBX 7 14 0 -2
BITMAP
00
00
02
02
02
02
02
02
02
42
44
38
00
00
ENDCHAR
STARTCHAR 004b
ENCODING 75
SWIDTH 480 0
DWIDTH 7 0
BBX 7 14 0 -2
BITMAP
00
00
42
44
48
50
70
48
48
44
42
42
00
00
ENDCHAR
STARTCHAR 004c
ENCODING 76
SWIDTH 480 0
DWIDTH 7 0
BBX 7 14 0 -2
BITMAP
00
00
40
40
40
40
40
40
40
40
40
7E
00
00
ENDCHAR
STARTCHAR 004d
ENCODING 77
SWIDTH 480 0
DWIDTH 7 0
BBX 7 14 0 -2
BITMAP
00
00
42
46
66
6A
5A
52
52
42
42
42
00
00
ENDCHAR
STARTCHAR 004e
ENCODING 78
SWIDTH 480 0
DWIDTH 7 0
BBX 7 14 0 -2
BITMAP
00
00
62
62
52
52
52
4A
4A
4A
46
46
00
00
ENDCHAR
STARTCHAR 004f
ENCODING 79
SWIDTH 480 0
DWIDTH 7 0
BBX 7 14 0 -2
BITMAP
00
00
3C
42
42
42
42
42
42
42
42
3C
00
00
ENDCHAR
STARTCHAR 0050
ENCODING 80
SWIDTH 480 0
DWIDTH 7 0
BBX 7 14 0 -2
BITMAP
00
00
7C
42
42
42
42
7C
40
40
40
40
00
00
ENDCHAR
STARTCHAR 0051
ENCODING 81
SWIDTH 480 0
DWIDTH 7 0
BBX 7 14 0 -2
BITMAP
00
00
3C
42
42
42
42
42
72
4A
46
3C
04
02
ENDCHAR
STARTCHAR 0052
ENCODING 82
SWIDTH 480 0
DWIDTH 7 0
BBX 7 14 0 -2
BITMAP
00
00
7C
42
42
42
7C
44
42
42
42
42
00
00
ENDCHAR
STARTCHAR 0053
ENCODING 83
SWIDTH 480 0
DWIDTH 7 0
BBX 7 14 0 -2
BITMAP
00
00
3C
42
42
20
10
08
04
42
42
3C
00
00
ENDCHAR
STARTCHAR 0054
ENCODING 84
SWIDTH 480 0
DWIDTH 7 0
BBX 7 14 0 -2
BITMAP
00
00
7E
10
10
10
10
10
10
10
10
10
00
00
ENDCHAR
STARTCHAR 0055
ENCODING 85
SWIDTH 480 0
DWIDTH 7 0
BBX 7 14 0 -2
BITMAP
00
00
42
42
42
42
42
42
42
42
42
3C
00
00
ENDCHAR
STARTCHAR 0056
ENCODING 86
SWIDTH 480 0
DWIDTH 7 0
BBX 7 14 0 -2
BITMAP
00
00
42
42
42
44
24
24
28
18
10
10
00
00
ENDCHAR
STARTCHAR 0057
ENCODING 87
SWIDTH 480 0
DWIDTH 7 0
BBX 7 14 0 -2
BITMAP
00
00
4A
4A
4A
4A
4A
7E
24
24
24
24
00
00
ENDCHAR
STARTCHAR 0058
ENCODING 88
SWIDTH 480 0
DWIDTH 7 0
BBX 7 14 0 -2
BITMAP
00
00
42
42
24
24
18
18
24
24
42
42
00
00
ENDCHAR
STARTCHAR 0059
ENCODING 89
SWIDTH 480 0
DWIDTH 7 0
BBX 7 14 0 -2
BITMAP
00
00
42
42
44
24
28
18
10
10
10
10
00
00
ENDCHAR
STARTCHAR 005a
ENCODING 90
SWIDTH 480 0
DWIDTH 7 0
BBX 7 14 0 -2
BITMAP
00
00
7E
02
04
08
08
10
20
20
40
7E
00
00
ENDCHAR
STARTCHAR 005b
ENCODING 91
SWIDTH 480 0
DWIDTH 7 0
BBX 7 14 0 -2
BITMAP
00
1E
10
10
10
10
10
10
10
10
10
10
10
1E
ENDCHAR
STARTCHAR 005c
ENCODING 92
SWIDTH 480 0
DWIDTH 7 0
BBX 7 14 0 -2
BITMAP
00
00
42
24
18
7E
08
08
7E
08
08
08
00
00
ENDCHAR
STARTCHAR 005d
ENCODING 93
SWIDTH 480 0
DWIDTH 7 0
BBX 7 14 0 -2
BITMAP
00
78
08
08
08
08
08
08
08
08
08
08
08
78
ENDCHAR
STARTCHAR 005e
ENCODING 94
SWIDTH 480 0
DWIDTH 7 0
BBX 7 14 0 -2
BITMAP
18
24
42
00
00
00
00
00
00
00
00
00
00
00
ENDCHAR
STARTCHAR 005f
ENCODING 95
SWIDTH 480 0
DWIDTH 7 0
BBX 7 14 0 -2
BITMAP
00
00
00
00
00
00
00
00
00
00
00
00
00
7E
ENDCHAR
STARTCHAR 0060
ENCODING 96
SWIDTH 480 0
DWIDTH 7 0
BBX 7 14 0 -2
BITMAP
0C
08
08
04
00
00
00
00
00
00
00
00
00
00
ENDCHAR
STARTCHAR 0061
ENCODING 97
SWIDTH 480 0
DWIDTH 7 0
BBX 7 14 0 -2
BITMAP
00
00
00
00
00
3C
42
0E
32
42
46
3A
00
00
ENDCHAR
STARTCHAR 0062
ENCODING 98
SWIDTH 480 0
DWIDTH 7 0
BBX 7 14 0 -2
BITMAP
00
00
40
40
40
5C
62
42
42
42
62
5C
00
00
ENDCHAR
STARTCHAR 0063
ENCODING 99
SWIDTH 480 0
DWIDTH 7 0
BBX 7 14 0 -2
BITMAP
00
00
00
00
00
3C
42
40
40
40
42
3C
00
00
ENDCHAR
STARTCHAR 0064
ENCODING 100
SWIDTH 480 0
DWIDTH 7 0
BBX 7 14 0 -2
BITMAP
00
00
02
02
02
3A
46
42
42
42
46
3A
00
00
ENDCHAR
STARTCHAR 0065
ENCODING 101
SWIDTH 480 0
DWIDTH 7 0
BBX 7 14 0 -2
BITMAP
00
00
00
00
00
3C
42
42
7E
40
42
3C
00
00
ENDCHAR
STARTCHAR 0066
ENCODING 102
SWIDTH 480 0
DWIDTH 7 0
BBX 7 14 0 -2
BITMAP
00
00
0C
12
10
10
7C
10
10
10
10
10
00
00
ENDCHAR
STARTCHAR 0067
ENCODING 103
SWIDTH 480 0
DWIDTH 7 0
BBX 7 14 0 -2
BITMAP
00
00
00
00
00
3A
44
44
44
38
20
5C
42
3C
ENDCHAR
STARTCHAR 0068
ENCODING 104
SWIDTH 480 0
DWIDTH 7 0
BBX 7 14 0 -2
BITMAP
00
00
40
40
40
5C
62
42
42
42
42
42
00
00
ENDCHAR
STARTCHAR 0069
ENCODING 105
SWIDTH 480 0
DWIDTH 7 0
BBX 7 14 0 -2
BITMAP
00
00
10
10
00
10
10
10
10
10
10
10
00
00
ENDCHAR
STARTCHAR 006a
ENCODING 106
SWIDTH 480 0
DWIDTH 7 0
BBX 7 14 0 -2
BITMAP
00
00
04
04
00
04
04
04
04
04
04
04
44
38
ENDCHAR
STARTCHAR 006b
ENCODING 107
SWIDTH 480 0
DWIDTH 7 0
BBX 7 14 0 -2
BITMAP
00
00
40
40
40
44
48
50
70
48
44
42
00
00
ENDCHAR
STARTCHAR 006c
ENCODING 108
SWIDTH 480 0
DWIDTH 7 0
BBX 7 14 0 -2
BITMAP
00
00
10
10
10
10
10
10
10
10
10
10
00
00
ENDCHAR
STARTCHAR 006d
ENCODING 109
SWIDTH 480 0
DWIDTH 7 0
BBX 7 14 0 -2
BITMAP
00
00
00
00
00
7C
52
52
52
52
52
52
00
00
ENDCHAR
STARTCHAR 006e
ENCODING 110
SWIDTH 480 0
DWIDTH 7 0
BBX 7 14 0 -2
BITMAP
00
00
00
00
00
5C
62
42
42
42
42
42
00
00
ENDCHAR
STARTCHAR 006f
ENCODING 111
SWIDTH 480 0
DWIDTH 7 0
BBX 7 14 0 -2
BITMAP
00
00
00
00
00
3C
42
42
42
42
42
3C
00
00
ENDCHAR
STARTCHAR 0070
ENCODING 112
SWIDTH 480 0
DWIDTH 7 0
BBX 7 14 0 -2
BITMAP
00
00
00
00
00
5C
62
42
42
42
62
5C
40
40
ENDCHAR
STARTCHAR 0071
ENCODING 113
SWIDTH 480 0
DWIDTH 7 0
BBX 7 14 0 -2
BITMAP
00
00
00
00
00
3A
46
42
42
42
46
3A
02
02
ENDCHAR
STARTCHAR 0072
ENCODING 114
SWIDTH 480 0
DWIDTH 7 0
BBX 7 14 0 -2
BITMAP
00
00
00
00
00
5C
62
42
40
40
40
40
00
00
ENDCHAR
STARTCHAR 0073
ENCODING 115
SWIDTH 480 0
DWIDTH 7 0
BBX 7 14 0 -2
BITMAP
00
00
00
00
00
3C
42
20
18
04
42
3C
00
00
ENDCHAR
STARTCHAR 0074
ENCODING 116
SWIDTH 480 0
DWIDTH 7 0
BBX 7 14 0 -2
BITMAP
00
00
10
10
10
7E
10
10
10
10
10
0E
00
00
ENDCHAR
STARTCHAR 0075
ENCODING 117
SWIDTH 480 0
DWIDTH 7 0
BBX 7 14 0 -2
BITMAP
00
00
00
00
00
42
42
42
42
42
46
3A
00
00
ENDCHAR
STARTCHAR 0076
ENCODING 118
SWIDTH 480 0
DWIDTH 7 0
BBX 7 14 0 -2
BITMAP
00
00
00
00
00
42
42
22
24
14
18
08
00
00
ENDCHAR
STARTCHAR 0077
ENCODING 119
SWIDTH 480 0
DWIDTH 7 0
BBX 7 14 0 -2
BITMAP
00
00
00
00
00
4A
4A
4A
7E
24
24
24
00
00
ENDCHAR
STARTCHAR 0078
ENCODING 120
SWIDTH 480 0
DWIDTH 7 0
BBX 7 14 0 -2
BITMAP
00
00
00
00
00
42
42
24
18
24
42
42
00
00
ENDCHAR
STARTCHAR 0079
ENCODING 121
SWIDTH 480 0
DWIDTH 7 0
BBX 7 14 0 -2
BITMAP
00
00
00
00
00
42
42
22
24
14
1C
08
48
30
ENDCHAR
STARTCHAR 007a
ENCODING 122
SWIDTH 480 0
DWIDTH 7 0
BBX 7 14 0 -2
BITMAP
00
00
00
00
00
7E
04
08
10
10
20
7E
00
00
ENDCHAR
STARTCHAR 007b
ENCODING 123
SWIDTH 480 0
DWIDTH 7 0
BBX 7 14 0 -2
BITMAP
00
06
08
08
08
08
08
10
08
08
08
08
08
06
ENDCHAR
STARTCHAR 007c
ENCODING 124
SWIDTH 480 0
DWIDTH 7 0
BBX 7 14 0 -2
BITMAP
00
10
10
10
10
10
10
10
10
10
10
10
10
10
ENDCHAR
STARTCHAR 007d
ENCODING 125
SWIDTH 480 0
DWIDTH 7 0
BBX 7 14 0 -2
BITMAP
00
60
10
10
10
10
10
08
10
10
10
10
10
60
ENDCHAR
STARTCHAR 007e
ENCODING 126
SWIDTH 480 0
DWIDTH 7 0
BBX 7 14 0 -2
BITMAP
00
7E
00
00
00
00
00
00
00
00
00
00
00
00
ENDCHAR
STARTCHAR 0021
ENCODING 161
SWIDTH 480 0
DWIDTH 7 0
BBX 7 14 0 -2
BITMAP
00
00
00
00
00
00
00
00
30
48
48
30
00
00
ENDCHAR
STARTCHAR 0022
ENCODING 162
SWIDTH 480 0
DWIDTH 7 0
BBX 7 14 0 -2
BITMAP
00
1E
10
10
10
10
10
10
10
10
00
00
00
00
ENDCHAR
STARTCHAR 0023
ENCODING 163
SWIDTH 480 0
DWIDTH 7 0
BBX 7 14 0 -2
BITMAP
00
00
00
00
00
08
08
08
08
08
08
08
08
78
ENDCHAR
STARTCHAR 0024
ENCODING 164
SWIDTH 480 0
DWIDTH 7 0
BBX 7 14 0 -2
BITMAP
00
00
00
00
00
00
00
00
40
20
10
10
00
00
ENDCHAR
STARTCHAR 0025
ENCODING 165
SWIDTH 480 0
DWIDTH 7 0
BBX 7 14 0 -2
BITMAP
00
00
00
00
00
00
18
18
00
00
00
00
00
00
ENDCHAR
STARTCHAR 0026
ENCODING 166
SWIDTH 480 0
DWIDTH 7 0
BBX 7 14 0 -2
BITMAP
00
00
7E
02
02
7E
02
04
04
08
10
20
00
00
ENDCHAR
STARTCHAR 0027
ENCODING 167
SWIDTH 480 0
DWIDTH 7 0
BBX 7 14 0 -2
BITMAP
00
00
00
00
00
7E
02
0C
08
08
10
20
00
00
ENDCHAR
STARTCHAR 0028
ENCODING 168
SWIDTH 480 0
DWIDTH 7 0
BBX 7 14 0 -2
BITMAP
00
00
00
00
00
02
04
18
68
08
08
08
00
00
ENDCHAR
STARTCHAR 0029
ENCODING 169
SWIDTH 480 0
DWIDTH 7 0
BBX 7 14 0 -2
BITMAP
00
00
00
00
00
10
7E
42
42
04
08
30
00
00
ENDCHAR
STARTCHAR 002a
ENCODING 170
SWIDTH 480 0
DWIDTH 7 0
BBX 7 14 0 -2
BITMAP
00
00
00
00
00
00
7C
10
10
10
10
7E
00
00
ENDCHAR
STARTCHAR 002b
ENCODING 171
SWIDTH 480 0
DWIDTH 7 0
BBX 7 14 0 -2
BITMAP
00
00
00
00
00
04
7E
0C
14
24
44
0C
00
00
ENDCHAR
STARTCHAR 002c
ENCODING 172
SWIDTH 480 0
DWIDTH 7 0
BBX 7 14 0 -2
BITMAP
00
00
00
00
00
20
3E
64
18
10
10
10
00
00
ENDCHAR
STARTCHAR 002d
ENCODING 173
SWIDTH 480 0
DWIDTH 7 0
BBX 7 14 0 -2
BITMAP
00
00
00
00
00
00
38
08
08
08
08
7E
00
00
ENDCHAR
STARTCHAR 002e
ENCODING 174
SWIDTH 480 0
DWIDTH 7 0
BBX 7 14 0 -2
BITMAP
00
00
00
00
00
00
7C
04
3C
04
04
7C
00
00
ENDCHAR
STARTCHAR 002f
ENCODING 175
SWIDTH 480 0
DWIDTH 7 0
BBX 7 14 0 -2
BITMAP
00
00
00
00
00
12
4A
2A
24
04
08
10
00
00
ENDCHAR
STARTCHAR 0030
ENCODING 176
SWIDTH 480 0
DWIDTH 7 0
BBX 7 14 0 -2
BITMAP
00
00
00
00
00
00
7E
00
00
00
00
00
00
00
ENDCHAR
STARTCHAR 0031
ENCODING 177
SWIDTH 480 0
DWIDTH 7 0
BBX 7 14 0 -2
BITMAP
00
00
7E
02
0A
0C
08
08
08
10
10
20
00
00
ENDCHAR
STARTCHAR 0032
ENCODING 178
SWIDTH 480 0
DWIDTH 7 0
BBX 7 14 0 -2
BITMAP
00
00
02
04
18
68
08
08
08
08
08
08
00
00
ENDCHAR
STARTCHAR 0033
ENCODING 179
SWIDTH 480 0
DWIDTH 7 0
BBX 7 14 0 -2
BITMAP
00
00
10
10
7E
42
42
04
04
08
10
20
00
00
ENDCHAR
STARTCHAR 0034
ENCODING 180
SWIDTH 480 0
DWIDTH 7 0
BBX 7 14 0 -2
BITMAP
00
00
00
7C
10
10
10
10
10
10
10
7E
00
00
ENDCHAR
STARTCHAR 0035
ENCODING 181
SWIDTH 480 0
DWIDTH 7 0
BBX 7 14 0 -2
BITMAP
00
00
04
04
04
7E
0C
0C
14
24
44
0C
00
00
ENDCHAR
STARTCHAR 0036
ENCODING 182
SWIDTH 480 0
DWIDTH 7 0
BBX 7 14 0 -2
BITMAP
00
00
10
10
10
7E
12
12
12
22
22
4C
00
00
ENDCHAR
STARTCHAR 0037
ENCODING 183
SWIDTH 480 0
DWIDTH 7 0
BBX 7 14 0 -2
BITMAP
00
00
10
10
1E
68
08
0E
78
04
04
04
00
00
ENDCHAR
STARTCHAR 0038
ENCODING 184
SWIDTH 480 0
DWIDTH 7 0
BBX 7 14 0 -2
BITMAP
00
00
10
1E
12
22
42
04
04
08
10
20
00
00
ENDCHAR
STARTCHAR 0039
ENCODING 185
SWIDTH 480 0
DWIDTH 7 0
BBX 7 14 0 -2
BITMAP
00
00
20
20
20
3E
28
48
08
08
10
20
00
00
ENDCHAR
STARTCHAR 003a
ENCODING 186
SWIDTH 480 0
DWIDTH 7 0
BBX 7 14 0 -2
BITMAP
00
00
00
7C
04
04
04
04
04
04
7C
00
00
00
ENDCHAR
STARTCHAR 003b
ENCODING 187
SWIDTH 480 0
DWIDTH 7 0
BBX 7 14 0 -2
BITMAP
00
00
24
24
24
7E
24
24
24
08
08
10
00
00
ENDCHAR
STARTCHAR 003c
ENCODING 188
SWIDTH 480 0
DWIDTH 7 0
BBX 7 14 0 -2
BITMAP
00
00
20
10
10
42
22
24
04
08
10
60
00
00
ENDCHAR
STARTCHAR 003d
ENCODING 189
SWIDTH 480 0
DWIDTH 7 0
BBX 7 14 0 -2
BITMAP
00
00
00
7C
04
04
04
08
08
14
22
42
00
00
ENDCHAR
STARTCHAR 003e
ENCODING 190
SWIDTH 480 0
DWIDTH 7 0
BBX 7 14 0 -2
BITMAP
00
00
20
20
20
3E
62
24
28
20
20
1E
00
00
ENDCHAR
STARTCHAR 003f
ENCODING 191
SWIDTH 480 0
DWIDTH 7 0
BBX 7 14 0 -2
BITMAP
00
00
42
22
22
22
02
04
04
08
10
20
00
00
ENDCHAR
STARTCHAR 0040
ENCODING 192
SWIDTH 480 0
DWIDTH 7 0
BBX 7 14 0 -2
BITMAP
00
00
10
1E
12
12
2A
44
04
08
10
20
00
00
ENDCHAR
STARTCHAR 0041
ENCODING 193
SWIDTH 480 0
DWIDTH 7 0
BBX 7 14 0 -2
BITMAP
00
00
06
38
08
08
7E
08
08
08
10
20
00
00
ENDCHAR
STARTCHAR 0042
ENCODING 194
SWIDTH 480 0
DWIDTH 7 0
BBX 7 14 0 -2
BITMAP
00
00
12
4A
2A
22
02
02
04
04
08
10
00
00
ENDCHAR
STARTCHAR 0043
ENCODING 195
SWIDTH 480 0
DWIDTH 7 0
BBX 7 14 0 -2
BITMAP
00
00
3C
00
00
7E
08
08
08
08
10
20
00
00
ENDCHAR
STARTCHAR 0044
ENCODING 196
SWIDTH 480 0
DWIDTH 7 0
BBX 7 14 0 -2
BITMAP
00
00
20
20
20
30
28
24
24
20
20
20
00
00
ENDCHAR
STARTCHAR 0045
ENCODING 197
SWIDTH 480 0
DWIDTH 7 0
BBX 7 14 0 -2
BITMAP
00
00
08
08
08
7E
08
08
08
08
10
20
00
00
ENDCHAR
STARTCHAR 0046
ENCODING 198
SWIDTH 480 0
DWIDTH 7 0
BBX 7 14 0 -2
BITMAP
00
00
00
3C
00
00
00
00
00
00
7E
00
00
00
ENDCHAR
STARTCHAR 0047
ENCODING 199
SWIDTH 480 0
DWIDTH 7 0
BBX 7 14 0 -2
BITMAP
00
00
00
7C
04
04
24
18
08
14
22
42
00
00
ENDCHAR
STARTCHAR 0048
ENCODING 200
SWIDTH 480 0
DWIDTH 7 0
BBX 7 14 0 -2
BITMAP
00
00
08
08
7E
04
08
1C
6A
08
08
08
00
00
ENDCHAR
STARTCHAR 0049
ENCODING 201
SWIDTH 480 0
DWIDTH 7 0
BBX 7 14 0 -2
BITMAP
00
00
04
04
04
04
04
08
08
10
20
40
00
00
ENDCHAR
STARTCHAR 004a
ENCODING 202
SWIDTH 480 0
DWIDTH 7 0
BBX 7 14 0 -2
BITMAP
00
00
00
10
08
04
24
22
22
22
22
42
00
00
ENDCHAR
STARTCHAR 004b
ENCODING 203
SWIDTH 480 0
DWIDTH 7 0
BBX 7 14 0 -2
BITMAP
00
00
20
20
22
24
38
20
20
20
20
1E
00
00
ENDCHAR
STARTCHAR 004c
ENCODING 204
SWIDTH 480 0
DWIDTH 7 0
BBX 7 14 0 -2
BITMAP
00
00
00
7E
02
02
02
04
04
08
10
20
00
00
ENDCHAR
STARTCHAR 004d
ENCODING 205
SWIDTH 480 0
DWIDTH 7 0
BBX 7 14 0 -2
BITMAP
00
00
10
10
28
28
44
04
04
02
02
02
00
00
ENDCHAR
STARTCHAR 004e
ENCODING 206
SWIDTH 480 0
DWIDTH 7 0
BBX 7 14 0 -2
BITMAP
00
00
10
10
7E
10
34
32
52
52
10
10
00
00
ENDCHAR
STARTCHAR 004f
ENCODING 207
SWIDTH 480 0
DWIDTH 7 0
BBX 7 14 0 -2
BITMAP
00
00
00
7E
02
02
24
14
08
08
04
04
00
00
ENDCHAR
STARTCHAR 0050
ENCODING 208
SWIDTH 480 0
DWIDTH 7 0
BBX 7 14 0 -2
BITMAP
00
00
30
0C
02
30
0C
00
00
70
0C
02
00
00
ENDCHAR
STARTCHAR 0051
ENCODING 209
SWIDTH 480 0
DWIDTH 7 0
BBX 7 14 0 -2
BITMAP
00
00
10
10
10
10
10
18
24
24
7A
02
00
00
ENDCHAR
STARTCHAR 0052
ENCODING 210
SWIDTH 480 0
DWIDTH 7 0
BBX 7 14 0 -2
BITMAP
00
00
04
04
24
14
0C
04
0A
12
20
40
00
00
ENDCHAR
STARTCHAR 0053
ENCODING 211
SWIDTH 480 0
DWIDTH 7 0
BBX 7 14 0 -2
BITMAP
00
00
3C
10
10
10
7E
10
10
10
10
0E
00
00
ENDCHAR
STARTCHAR 0054
ENCODING 212
SWIDTH 480 0
DWIDTH 7 0
BBX 7 14 0 -2
BITMAP
00
00
20
20
3E
62
14
18
10
08
08
08
00
00
ENDCHAR
STARTCHAR 0055
ENCODING 213
SWIDTH 480 0
DWIDTH 7 0
BBX 7 14 0 -2
BITMAP
00
00
00
78
08
08
08
08
08
08
08
7E
00
00
ENDCHAR
STARTCHAR 0056
ENCODING 214
SWIDTH 480 0
DWIDTH 7 0
BBX 7 14 0 -2
BITMAP
00
00
00
7C
04
04
04
7C
04
04
04
7C
00
00
ENDCHAR
STARTCHAR 0057
ENCODING 215
SWIDTH 480 0
DWIDTH 7 0
BBX 7 14 0 -2
BITMAP
00
00
3C
00
00
7E
02
02
04
04
08
10
00
00
ENDCHAR
STARTCHAR 0058
ENCODING 216
SWIDTH 480 0
DWIDTH 7 0
BBX 7 14 0 -2
BITMAP
00
00
22
22
22
22
22
22
04
04
08
10
00
00
ENDCHAR
STARTCHAR 0059
ENCODING 217
SWIDTH 480 0
DWIDTH 7 0
BBX 7 14 0 -2
BITMAP
00
00
08
28
28
28
28
2A
2A
2C
4C
48
00
00
ENDCHAR
STARTCHAR 005a
ENCODING 218
SWIDTH 480 0
DWIDTH 7 0
BBX 7 14 0 -2
BITMAP
00
00
20
20
20
20
22
22
24
24
28
30
00
00
ENDCHAR
STARTCHAR 005b
ENCODING 219
SWIDTH 480 0
DWIDTH 7 0
BBX 7 14 0 -2
BITMAP
00
00
00
7C
44
44
44
44
44
44
7C
00
00
00
ENDCHAR
STARTCHAR 005c
ENCODING 220
SWIDTH 480 0
DWIDTH 7 0
BBX 7 14 0 -2
BITMAP
00
00
00
7E
42
42
42
04
04
08
10
20
00
00
ENDCHAR
STARTCHAR 005d
ENCODING 221
SWIDTH 480 0
DWIDTH 7 0
BBX 7 14 0 -2
BITMAP
00
00
40
20
20
02
02
04
04
08
10
60
00
00
ENDCHAR
STARTCHAR 005e
ENCODING 222
SWIDTH 480 0
DWIDTH 7 0
BBX 7 14 0 -2
BITMAP
00
00
48
24
24
00
00
00
00
00
00
00
00
00
ENDCHAR
STARTCHAR 005f
ENCODING 223
SWIDTH 480 0
DWIDTH 7 0
BBX 7 14 0 -2
BITMAP
00
00
30
48
48
30
00
00
00
00
00
00
00
00
ENDCHAR
ENDFONT
