STARTFONT 2.1
COMMENT  (c) Copyright Bigelow & Holmes 1986, 1985. Lucida is a registered
COMMENT  trademark of Bigelow & Holmes. See LEGAL NOTICE file for terms 
COMMENT  of the license. 
FONT -B&H-LucidaBright-Medium-I-Normal--17-120-100-100-P-96-ISO8859-1
SIZE 12 100 100
FONTBOUNDINGBOX 29 21 -10 -4
STARTPROPERTIES 19
COMMENT Begin LogicalFontDescription
FONTNAME_REGISTRY ""
FOUNDRY "B&H"
FAMILY_NAME "LucidaBright"
WEIGHT_NAME "Medium"
SLANT "I"
SETWIDTH_NAME "Normal"
ADD_STYLE_NAME ""
PIXEL_SIZE 17
POINT_SIZE 120
RESOLUTION_X 100
RESOLUTION_Y 100
SPACING "P"
AVERAGE_WIDTH 96
CHARSET_REGISTRY "ISO8859"
CHARSET_ENCODING "1"
COMMENT END LogicalFontDescription
FONT_ASCENT 15
FONT_DESCENT 4
DEFAULT_CHAR 0
COPYRIGHT "Copyright Bigelow & Holmes 1986, 1985."
ENDPROPERTIES
CHARS 228
STARTCHAR space
ENCODING 32
SWIDTH 42 0
DWIDTH 5 0
BBX 1 1 0 0
BITMAP
00
ENDCHAR
STARTCHAR exclam
ENCODING 33
SWIDTH 42 0
DWIDTH 4 0
BBX 4 13 1 0
BITMAP
30
30
30
20
20
20
40
40
40
40
00
00
C0
ENDCHAR
STARTCHAR quotedbl
ENCODING 34
SWIDTH 42 0
DWIDTH 6 0
BBX 4 4 3 9
BITMAP
D0
90
90
90
ENDCHAR
STARTCHAR numbersign
ENCODING 35
SWIDTH 42 0
DWIDTH 10 0
BBX 10 13 1 0
BITMAP
0640
0480
0480
0900
7FC0
1100
1200
2200
FF80
2400
4800
4800
9800
ENDCHAR
STARTCHAR dollar
ENCODING 36
SWIDTH 42 0
DWIDTH 10 0
BBX 7 14 3 -1
BITMAP
1E
2A
6A
68
68
30
18
1C
14
14
94
98
F0
20
ENDCHAR
STARTCHAR percent
ENCODING 37
SWIDTH 42 0
DWIDTH 13 0
BBX 12 13 1 0
BITMAP
3810
6420
4440
4480
4D00
3900
02E0
0520
0B30
1320
2220
4360
C1C0
ENDCHAR
STARTCHAR ampersand
ENCODING 38
SWIDTH 42 0
DWIDTH 12 0
BBX 13 13 1 0
BITMAP
0380
0CC0
08C0
0880
0F00
1C00
64F8
C620
C620
C340
C380
6180
3EE0
ENDCHAR
STARTCHAR quoteright
ENCODING 39
SWIDTH 42 0
DWIDTH 4 0
BBX 3 5 3 8
BITMAP
60
60
60
40
C0
ENDCHAR
STARTCHAR parenleft
ENCODING 40
SWIDTH 42 0
DWIDTH 5 0
BBX 6 16 2 -3
BITMAP
0C
10
10
20
60
40
40
C0
C0
C0
80
80
80
80
40
20
ENDCHAR
STARTCHAR parenright
ENCODING 41
SWIDTH 42 0
DWIDTH 5 0
BBX 6 16 0 -3
BITMAP
10
08
08
08
08
0C
08
08
08
18
18
10
20
20
40
80
ENDCHAR
STARTCHAR asterisk
ENCODING 42
SWIDTH 42 0
DWIDTH 8 0
BBX 6 6 3 7
BITMAP
10
10
FC
30
D0
58
ENDCHAR
STARTCHAR plus
ENCODING 43
SWIDTH 42 0
DWIDTH 10 0
BBX 10 11 1 0
BITMAP
0400
0400
0400
0400
0400
FFC0
0800
0800
0800
0800
0800
ENDCHAR
STARTCHAR comma
ENCODING 44
SWIDTH 42 0
DWIDTH 4 0
BBX 3 6 1 -3
BITMAP
60
60
60
40
40
C0
ENDCHAR
STARTCHAR minus
ENCODING 45
SWIDTH 42 0
DWIDTH 10 0
BBX 10 1 1 5
BITMAP
FFC0
ENDCHAR
STARTCHAR period
ENCODING 46
SWIDTH 42 0
DWIDTH 4 0
BBX 2 2 1 0
BITMAP
C0
C0
ENDCHAR
STARTCHAR slash
ENCODING 47
SWIDTH 42 0
DWIDTH 8 0
BBX 11 16 0 -3
BITMAP
0020
0040
0080
0080
0100
0300
0200
0400
0400
0800
1000
1000
2000
2000
4000
8000
ENDCHAR
STARTCHAR zero
ENCODING 48
SWIDTH 42 0
DWIDTH 10 0
BBX 9 13 2 0
BITMAP
0E00
1100
2180
6180
4180
C180
C180
C180
C100
C300
C200
4600
3800
ENDCHAR
STARTCHAR one
ENCODING 49
SWIDTH 42 0
DWIDTH 10 0
BBX 6 13 2 0
BITMAP
3C
0C
0C
08
08
18
18
18
10
10
30
30
FC
ENDCHAR
STARTCHAR two
ENCODING 50
SWIDTH 42 0
DWIDTH 10 0
BBX 9 13 2 0
BITMAP
1F00
3180
2180
0180
0180
0300
0200
0C00
1000
2000
4000
C000
FE00
ENDCHAR
STARTCHAR three
ENCODING 51
SWIDTH 42 0
DWIDTH 10 0
BBX 9 13 2 0
BITMAP
1E00
3300
2180
0180
0100
0600
3C00
0200
0300
0300
8300
8600
F800
ENDCHAR
STARTCHAR four
ENCODING 52
SWIDTH 42 0
DWIDTH 10 0
BBX 9 13 1 0
BITMAP
0080
0380
0500
0900
1300
2300
2300
4200
FF80
0600
0600
0600
1F00
ENDCHAR
STARTCHAR five
ENCODING 53
SWIDTH 42 0
DWIDTH 10 0
BBX 9 13 2 0
BITMAP
1F80
2000
2000
2000
3C00
0600
0300
0300
0300
0300
8600
8C00
F800
ENDCHAR
STARTCHAR six
ENCODING 54
SWIDTH 42 0
DWIDTH 10 0
BBX 9 13 2 0
BITMAP
0F80
1880
3080
6000
6000
5E00
E300
C100
C100
C300
C300
4600
3800
ENDCHAR
STARTCHAR seven
ENCODING 55
SWIDTH 42 0
DWIDTH 10 0
BBX 9 13 3 0
BITMAP
7F80
0100
0100
0200
0400
0800
0800
1000
2000
6000
6000
C000
C000
ENDCHAR
STARTCHAR eight
ENCODING 56
SWIDTH 42 0
DWIDTH 10 0
BBX 9 13 2 0
BITMAP
0F00
3180
2180
2180
3300
3E00
2E00
4700
C300
C300
C300
C600
7C00
ENDCHAR
STARTCHAR nine
ENCODING 57
SWIDTH 42 0
DWIDTH 10 0
BBX 9 13 2 0
BITMAP
0E00
3100
2180
6080
6180
6180
6380
3D80
0300
0300
8600
8C00
7800
ENDCHAR
STARTCHAR colon
ENCODING 58
SWIDTH 42 0
DWIDTH 4 0
BBX 4 9 1 0
BITMAP
30
70
00
00
00
00
00
E0
C0
ENDCHAR
STARTCHAR semicolon
ENCODING 59
SWIDTH 42 0
DWIDTH 4 0
BBX 4 12 1 -3
BITMAP
30
30
00
00
00
00
00
60
C0
40
40
80
ENDCHAR
STARTCHAR less
ENCODING 60
SWIDTH 42 0
DWIDTH 10 0
BBX 11 11 1 0
BITMAP
0020
00C0
0300
0C00
3000
C000
3000
1800
0600
0100
0080
ENDCHAR
STARTCHAR equal
ENCODING 61
SWIDTH 42 0
DWIDTH 10 0
BBX 11 4 1 3
BITMAP
7FE0
0000
0000
FFC0
ENDCHAR
STARTCHAR greater
ENCODING 62
SWIDTH 42 0
DWIDTH 10 0
BBX 11 11 0 0
BITMAP
2000
1000
0C00
0300
0180
0060
0180
0600
1800
6000
8000
ENDCHAR
STARTCHAR question
ENCODING 63
SWIDTH 42 0
DWIDTH 8 0
BBX 7 13 3 0
BITMAP
7C
CC
86
06
0C
18
30
60
40
40
00
00
C0
ENDCHAR
STARTCHAR at
ENCODING 64
SWIDTH 42 0
DWIDTH 15 0
BBX 14 13 2 0
BITMAP
03E0
0C18
3004
43E4
4444
8844
88C4
88C4
8B88
8E70
4000
2080
1F00
ENDCHAR
STARTCHAR A
ENCODING 65
SWIDTH 42 0
DWIDTH 13 0
BBX 13 13 0 0
BITMAP
00C0
00C0
01C0
03C0
02C0
0460
0C60
0860
1FE0
1060
6020
4030
F0F8
ENDCHAR
STARTCHAR B
ENCODING 66
SWIDTH 42 0
DWIDTH 10 0
BBX 10 13 1 0
BITMAP
3F80
18C0
18C0
18C0
1880
1100
1E00
3180
3180
3080
3180
6380
FE00
ENDCHAR
STARTCHAR C
ENCODING 67
SWIDTH 42 0
DWIDTH 12 0
BBX 11 13 2 0
BITMAP
07E0
1860
3020
6000
6000
C000
C000
C000
C000
C000
C000
6080
3F00
ENDCHAR
STARTCHAR D
ENCODING 68
SWIDTH 42 0
DWIDTH 13 0
BBX 13 13 1 0
BITMAP
3FE0
0870
0818
1818
1818
1818
1018
1018
3030
3030
3060
71C0
FF00
ENDCHAR
STARTCHAR E
ENCODING 69
SWIDTH 42 0
DWIDTH 10 0
BBX 11 13 0 0
BITMAP
3FE0
0C20
0800
0800
1800
1880
1F80
1080
3000
3000
3080
3080
FF80
ENDCHAR
STARTCHAR F
ENCODING 70
SWIDTH 42 0
DWIDTH 9 0
BBX 11 13 0 0
BITMAP
3FE0
0C20
0800
1800
1800
1880
1F80
1080
3000
3000
3000
3000
F800
ENDCHAR
STARTCHAR G
ENCODING 71
SWIDTH 42 0
DWIDTH 13 0
BBX 12 13 2 0
BITMAP
07F0
1C30
3020
2000
6000
4000
C000
C1F0
C0C0
C0C0
C0C0
70C0
3F00
ENDCHAR
STARTCHAR H
ENCODING 72
SWIDTH 42 0
DWIDTH 13 0
BBX 15 13 0 0
BITMAP
3E3E
0C18
0818
1818
1818
1810
1FF0
1030
3030
3030
3020
3060
F8F8
ENDCHAR
STARTCHAR I
ENCODING 73
SWIDTH 42 0
DWIDTH 6 0
BBX 7 13 1 0
BITMAP
3E
1C
18
18
18
18
10
30
30
30
30
70
F8
ENDCHAR
STARTCHAR J
ENCODING 74
SWIDTH 42 0
DWIDTH 7 0
BBX 10 16 0 -3
BITMAP
07C0
0300
0300
0300
0300
0200
0600
0600
0600
0600
0400
0C00
0C00
8C00
9800
F000
ENDCHAR
STARTCHAR K
ENCODING 75
SWIDTH 42 0
DWIDTH 12 0
BBX 13 13 0 0
BITMAP
3E78
0C30
0860
1880
1B00
1E00
1E00
1600
3300
3180
31C0
30C0
F9F0
ENDCHAR
STARTCHAR L
ENCODING 76
SWIDTH 42 0
DWIDTH 10 0
BBX 10 13 0 0
BITMAP
3F00
0C00
0800
0800
1800
1800
1800
1000
1000
3000
3040
30C0
FFC0
ENDCHAR
STARTCHAR M
ENCODING 77
SWIDTH 42 0
DWIDTH 15 0
BBX 16 13 1 0
BITMAP
3C0F
0C0E
0C1C
141C
162C
1668
1648
1298
2298
2318
2310
6030
F07C
ENDCHAR
STARTCHAR N
ENCODING 78
SWIDTH 42 0
DWIDTH 13 0
BBX 15 13 0 0
BITMAP
381E
0C08
0C08
1608
1610
1310
1110
1190
20D0
20D0
2060
2060
F020
ENDCHAR
STARTCHAR O
ENCODING 79
SWIDTH 42 0
DWIDTH 13 0
BBX 12 13 2 0
BITMAP
07C0
1860
3030
2030
6030
4030
C030
C020
C060
C040
C0C0
6180
3E00
ENDCHAR
STARTCHAR P
ENCODING 80
SWIDTH 42 0
DWIDTH 10 0
BBX 11 13 0 0
BITMAP
3FC0
0C60
0860
1860
1860
18C0
1980
1F00
3000
3000
3000
3000
F800
ENDCHAR
STARTCHAR Q
ENCODING 81
SWIDTH 42 0
DWIDTH 13 0
BBX 14 16 2 -3
BITMAP
07C0
1860
3020
2030
6030
4030
C030
C020
C060
C060
C0C0
6180
3F00
0200
0100
00FC
ENDCHAR
STARTCHAR R
ENCODING 82
SWIDTH 42 0
DWIDTH 12 0
BBX 11 13 1 0
BITMAP
3FC0
18E0
1860
1840
18C0
1180
1E00
3300
3300
3180
3180
70C0
F8E0
ENDCHAR
STARTCHAR S
ENCODING 83
SWIDTH 42 0
DWIDTH 9 0
BBX 9 13 1 0
BITMAP
0F00
1980
3100
3100
3000
1800
0C00
0600
0200
0300
8200
8600
FC00
ENDCHAR
STARTCHAR T
ENCODING 84
SWIDTH 42 0
DWIDTH 11 0
BBX 11 13 2 0
BITMAP
FFE0
8420
8C20
0C00
0C00
0C00
0800
1800
1800
1800
1800
3000
7C00
ENDCHAR
STARTCHAR U
ENCODING 85
SWIDTH 42 0
DWIDTH 12 0
BBX 12 13 3 0
BITMAP
F8F0
6040
6040
6040
6040
4080
C080
C080
C080
C080
C100
6300
3C00
ENDCHAR
STARTCHAR V
ENCODING 86
SWIDTH 42 0
DWIDTH 11 0
BBX 12 13 2 0
BITMAP
F070
6020
6040
6040
2080
3180
3100
3200
3200
1400
1C00
1800
1000
ENDCHAR
STARTCHAR W
ENCODING 87
SWIDTH 42 0
DWIDTH 15 0
BBX 16 13 2 0
BITMAP
F08F
6182
6184
6384
6388
6488
6490
6890
28A0
30E0
30C0
20C0
2080
ENDCHAR
STARTCHAR X
ENCODING 88
SWIDTH 42 0
DWIDTH 11 0
BBX 13 13 0 0
BITMAP
1E38
0C30
0C20
0640
0680
0300
0300
0700
0980
1180
10C0
60C0
E1E0
ENDCHAR
STARTCHAR Y
ENCODING 89
SWIDTH 42 0
DWIDTH 11 0
BBX 11 13 2 0
BITMAP
F0E0
6040
6080
3100
3200
1E00
1C00
1800
1800
1800
1000
3000
7C00
ENDCHAR
STARTCHAR Z
ENCODING 90
SWIDTH 42 0
DWIDTH 11 0
BBX 11 13 1 0
BITMAP
1FE0
30C0
2080
0180
0300
0600
0400
0C00
1800
3000
6080
6080
FF80
ENDCHAR
STARTCHAR bracketleft
ENCODING 91
SWIDTH 42 0
DWIDTH 5 0
BBX 6 16 1 -3
BITMAP
1C
10
30
30
30
20
20
60
60
60
40
40
40
C0
C0
E0
ENDCHAR
STARTCHAR backslash
ENCODING 92
SWIDTH 42 0
DWIDTH 8 0
BBX 5 16 2 -3
BITMAP
80
80
40
40
40
40
20
20
20
20
10
10
10
10
08
08
ENDCHAR
STARTCHAR bracketright
ENCODING 93
SWIDTH 42 0
DWIDTH 5 0
BBX 6 16 0 -3
BITMAP
1C
0C
0C
08
08
08
18
18
18
10
10
30
30
30
20
E0
ENDCHAR
STARTCHAR asciicircum
ENCODING 94
SWIDTH 42 0
DWIDTH 10 0
BBX 10 11 1 2
BITMAP
0200
0200
0500
0500
0900
1900
1080
2080
2080
4040
8040
ENDCHAR
STARTCHAR underscore
ENCODING 95
SWIDTH 42 0
DWIDTH 8 0
BBX 7 1 1 -1
BITMAP
FE
ENDCHAR
STARTCHAR quoteleft
ENCODING 96
SWIDTH 42 0
DWIDTH 4 0
BBX 3 5 3 8
BITMAP
60
40
C0
C0
C0
ENDCHAR
STARTCHAR a
ENCODING 97
SWIDTH 42 0
DWIDTH 10 0
BBX 9 9 1 0
BITMAP
0F80
1180
2180
4100
4300
C300
C700
CB00
7380
ENDCHAR
STARTCHAR b
ENCODING 98
SWIDTH 42 0
DWIDTH 10 0
BBX 9 13 2 0
BITMAP
7000
3000
3000
2000
2700
2980
7180
7180
6100
4100
4200
C400
F800
ENDCHAR
STARTCHAR c
ENCODING 99
SWIDTH 42 0
DWIDTH 8 0
BBX 8 9 1 0
BITMAP
1F
23
42
40
C0
C0
C0
C2
7C
ENDCHAR
STARTCHAR d
ENCODING 100
SWIDTH 42 0
DWIDTH 10 0
BBX 10 13 1 0
BITMAP
01C0
00C0
0080
0080
0F80
1180
2180
4100
4100
C300
C700
CB00
7380
ENDCHAR
STARTCHAR e
ENCODING 101
SWIDTH 42 0
DWIDTH 9 0
BBX 7 9 1 0
BITMAP
1E
22
62
46
F8
C0
C0
C6
7C
ENDCHAR
STARTCHAR f
ENCODING 102
SWIDTH 42 0
DWIDTH 6 0
BBX 8 16 1 -3
BITMAP
0F
19
11
10
7C
30
30
20
60
60
60
60
40
C0
C0
C0
ENDCHAR
STARTCHAR g
ENCODING 103
SWIDTH 42 0
DWIDTH 10 0
BBX 10 12 1 -3
BITMAP
0FC0
10C0
30C0
2080
6180
6380
4580
4500
7B00
0300
C200
7C00
ENDCHAR
STARTCHAR h
ENCODING 104
SWIDTH 42 0
DWIDTH 11 0
BBX 9 13 2 0
BITMAP
7000
3000
3000
3000
2700
2980
7180
6100
6100
4300
4300
C300
C380
ENDCHAR
STARTCHAR i
ENCODING 105
SWIDTH 42 0
DWIDTH 5 0
BBX 4 13 2 0
BITMAP
30
00
00
00
E0
60
60
60
40
40
40
C0
E0
ENDCHAR
STARTCHAR j
ENCODING 106
SWIDTH 42 0
DWIDTH 6 0
BBX 8 16 0 -3
BITMAP
03
00
00
00
0E
06
06
06
04
04
04
0C
0C
88
98
E0
ENDCHAR
STARTCHAR k
ENCODING 107
SWIDTH 42 0
DWIDTH 10 0
BBX 9 13 1 0
BITMAP
7000
3000
3000
3000
2180
2100
6600
7800
7800
4C00
4E00
C600
C380
ENDCHAR
STARTCHAR l
ENCODING 108
SWIDTH 42 0
DWIDTH 5 0
BBX 4 13 2 0
BITMAP
70
30
30
20
20
60
60
60
40
40
C0
C0
E0
ENDCHAR
STARTCHAR m
ENCODING 109
SWIDTH 42 0
DWIDTH 16 0
BBX 14 9 2 0
BITMAP
E738
696C
79CC
7388
6308
4318
C218
C218
C61C
ENDCHAR
STARTCHAR n
ENCODING 110
SWIDTH 42 0
DWIDTH 11 0
BBX 9 9 2 0
BITMAP
E300
6D80
7180
6100
6100
4300
4300
C300
C380
ENDCHAR
STARTCHAR o
ENCODING 111
SWIDTH 42 0
DWIDTH 10 0
BBX 8 9 1 0
BITMAP
1E
33
61
41
C3
C3
C2
C4
78
ENDCHAR
STARTCHAR p
ENCODING 112
SWIDTH 42 0
DWIDTH 10 0
BBX 10 12 1 -3
BITMAP
7380
34C0
38C0
30C0
3080
6080
6100
6200
7C00
4000
C000
C000
ENDCHAR
STARTCHAR q
ENCODING 113
SWIDTH 42 0
DWIDTH 10 0
BBX 9 12 1 -3
BITMAP
0F80
1180
2100
4100
4300
C300
C700
CA00
7200
0600
0600
0600
ENDCHAR
STARTCHAR r
ENCODING 114
SWIDTH 42 0
DWIDTH 8 0
BBX 8 9 2 0
BITMAP
F3
2E
78
70
60
40
40
C0
C0
ENDCHAR
STARTCHAR s
ENCODING 115
SWIDTH 42 0
DWIDTH 7 0
BBX 8 9 0 0
BITMAP
1F
31
31
38
1C
06
82
86
7C
ENDCHAR
STARTCHAR t
ENCODING 116
SWIDTH 42 0
DWIDTH 6 0
BBX 5 12 2 0
BITMAP
20
20
60
F8
60
60
40
40
C0
C0
C0
60
ENDCHAR
STARTCHAR u
ENCODING 117
SWIDTH 42 0
DWIDTH 11 0
BBX 9 9 2 0
BITMAP
E380
6180
6100
6100
4300
4700
C700
DB00
6380
ENDCHAR
STARTCHAR v
ENCODING 118
SWIDTH 42 0
DWIDTH 9 0
BBX 10 9 1 0
BITMAP
E0C0
70C0
3080
3180
1100
1200
1C00
1800
1000
ENDCHAR
STARTCHAR w
ENCODING 119
SWIDTH 42 0
DWIDTH 14 0
BBX 13 9 1 0
BITMAP
E118
6108
2308
3390
35B0
3DA0
18C0
10C0
1080
ENDCHAR
STARTCHAR x
ENCODING 120
SWIDTH 42 0
DWIDTH 9 0
BBX 9 9 1 0
BITMAP
7180
3180
1B00
1C00
0C00
3C00
6600
C600
C380
ENDCHAR
STARTCHAR y
ENCODING 121
SWIDTH 42 0
DWIDTH 9 0
BBX 11 12 0 -3
BITMAP
70E0
1840
1840
1880
0900
0900
0A00
0C00
0800
1000
2000
E000
ENDCHAR
STARTCHAR z
ENCODING 122
SWIDTH 42 0
DWIDTH 9 0
BBX 9 9 1 0
BITMAP
3F80
2300
0600
0C00
0800
1000
3000
6100
FF00
ENDCHAR
STARTCHAR braceleft
ENCODING 123
SWIDTH 42 0
DWIDTH 6 0
BBX 6 16 1 -3
BITMAP
0C
10
30
30
30
30
20
20
C0
60
60
40
C0
C0
C0
60
ENDCHAR
STARTCHAR bar
ENCODING 124
SWIDTH 42 0
DWIDTH 4 0
BBX 4 16 1 -3
BITMAP
10
10
30
20
20
20
20
20
40
40
40
40
40
C0
80
80
ENDCHAR
STARTCHAR braceright
ENCODING 125
SWIDTH 42 0
DWIDTH 6 0
BBX 6 16 1 -3
BITMAP
18
0C
0C
08
18
18
18
0C
10
10
30
20
20
20
60
C0
ENDCHAR
STARTCHAR asciitilde
ENCODING 126
SWIDTH 42 0
DWIDTH 10 0
BBX 10 4 1 3
BITMAP
7040
9840
8E40
8380
ENDCHAR
STARTCHAR exclamdown
ENCODING 161
SWIDTH 42 0
DWIDTH 4 0
BBX 4 12 1 -3
BITMAP
30
00
00
20
20
20
40
40
40
40
C0
C0
ENDCHAR
STARTCHAR cent
ENCODING 162
SWIDTH 42 0
DWIDTH 10 0
BBX 8 13 2 0
BITMAP
04
07
1D
29
48
C8
C8
C8
C8
CA
7C
10
10
ENDCHAR
STARTCHAR sterling
ENCODING 163
SWIDTH 42 0
DWIDTH 10 0
BBX 9 13 2 0
BITMAP
0780
0880
0880
1800
1800
1000
7C00
1000
3000
3000
2000
4000
FE00
ENDCHAR
STARTCHAR currency
ENCODING 164
SWIDTH 42 0
DWIDTH 10 0
BBX 12 11 1 1
BITMAP
2020
1770
18C0
1080
2080
2080
2080
2080
3100
4E80
8040
ENDCHAR
STARTCHAR yen
ENCODING 165
SWIDTH 42 0
DWIDTH 10 0
BBX 11 13 2 0
BITMAP
F0E0
6040
3180
3200
1C00
7E00
1800
1800
7E00
1000
1000
3000
7800
ENDCHAR
STARTCHAR brokenbar
ENCODING 166
SWIDTH 42 0
DWIDTH 4 0
BBX 4 16 1 -3
BITMAP
10
10
30
20
20
20
20
00
00
40
40
40
40
C0
80
80
ENDCHAR
STARTCHAR section
ENCODING 167
SWIDTH 42 0
DWIDTH 10 0
BBX 9 16 2 -3
BITMAP
0F80
1080
3080
2000
3000
3C00
2E00
6300
6300
3200
1C00
0600
0600
8600
8400
F800
ENDCHAR
STARTCHAR dieresis
ENCODING 168
SWIDTH 42 0
DWIDTH 10 0
BBX 5 1 5 12
BITMAP
D8
ENDCHAR
STARTCHAR copyright
ENCODING 169
SWIDTH 42 0
DWIDTH 14 0
BBX 13 13 2 0
BITMAP
0F80
3060
6010
43C8
8C48
8808
8808
8808
8808
4788
6010
3060
0F80
ENDCHAR
STARTCHAR ordfeminine
ENCODING 170
SWIDTH 42 0
DWIDTH 7 0
BBX 7 8 2 5
BITMAP
3E
64
44
CC
CC
9C
BC
EC
ENDCHAR
STARTCHAR guillemotleft
ENCODING 171
SWIDTH 42 0
DWIDTH 9 0
BBX 8 9 1 0
BITMAP
09
12
24
4C
D8
48
44
24
22
ENDCHAR
STARTCHAR logicalnot
ENCODING 172
SWIDTH 42 0
DWIDTH 10 0
BBX 10 5 1 2
BITMAP
FFC0
0040
0040
0080
0080
ENDCHAR
STARTCHAR hyphen
ENCODING 173
SWIDTH 42 0
DWIDTH 5 0
BBX 4 1 2 5
BITMAP
F0
ENDCHAR
STARTCHAR registered
ENCODING 174
SWIDTH 42 0
DWIDTH 10 0
BBX 7 8 3 5
BITMAP
38
46
9E
96
9A
AE
46
3C
ENDCHAR
STARTCHAR macron
ENCODING 175
SWIDTH 42 0
DWIDTH 10 0
BBX 5 1 5 12
BITMAP
F8
ENDCHAR
STARTCHAR degree
ENCODING 176
SWIDTH 42 0
DWIDTH 5 0
BBX 3 4 3 9
BITMAP
C0
A0
A0
C0
ENDCHAR
STARTCHAR plusminus
ENCODING 177
SWIDTH 42 0
DWIDTH 10 0
BBX 11 11 0 0
BITMAP
0200
0200
0200
0200
7FE0
0400
0400
0400
0000
0000
FFC0
ENDCHAR
STARTCHAR twosuperior
ENCODING 178
SWIDTH 42 0
DWIDTH 6 0
BBX 6 8 -9 5
BITMAP
38
44
04
08
30
40
80
F8
ENDCHAR
STARTCHAR threesuperior
ENCODING 179
SWIDTH 42 0
DWIDTH 6 0
BBX 5 8 -10 5
BITMAP
38
48
08
70
08
08
90
F0
ENDCHAR
STARTCHAR acute
ENCODING 180
SWIDTH 42 0
DWIDTH 10 0
BBX 4 2 6 11
BITMAP
30
C0
ENDCHAR
STARTCHAR mu
ENCODING 181
SWIDTH 42 0
DWIDTH 11 0
BBX 10 12 1 -3
BITMAP
71C0
30C0
3080
2080
6180
6180
6380
6500
7BC0
C000
C000
C000
ENDCHAR
STARTCHAR paragraph
ENCODING 182
SWIDTH 42 0
DWIDTH 10 0
BBX 7 16 3 -3
BITMAP
7E
FA
F2
F2
F4
74
34
14
24
28
28
28
28
28
28
48
ENDCHAR
STARTCHAR periodcentered
ENCODING 183
SWIDTH 42 0
DWIDTH 10 0
BBX 2 1 5 5
BITMAP
C0
ENDCHAR
STARTCHAR cedilla
ENCODING 184
SWIDTH 42 0
DWIDTH 10 0
BBX 3 3 3 -3
BITMAP
60
20
E0
ENDCHAR
STARTCHAR onesuperior
ENCODING 185
SWIDTH 42 0
DWIDTH 6 0
BBX 4 8 -10 5
BITMAP
70
10
20
20
20
20
20
F0
ENDCHAR
STARTCHAR ordmasculine
ENCODING 186
SWIDTH 42 0
DWIDTH 7 0
BBX 7 8 2 5
BITMAP
1C
24
46
C4
84
84
C8
70
ENDCHAR
STARTCHAR guillemotright
ENCODING 187
SWIDTH 42 0
DWIDTH 9 0
BBX 8 9 1 0
BITMAP
44
24
22
12
1B
32
24
48
90
ENDCHAR
STARTCHAR onequarter
ENCODING 188
SWIDTH 42 0
DWIDTH 14 0
BBX 13 13 3 0
BITMAP
7018
1030
2060
2040
2080
2130
2250
F490
0920
11F0
3020
6020
C060
ENDCHAR
STARTCHAR onehalf
ENCODING 189
SWIDTH 42 0
DWIDTH 14 0
BBX 13 13 3 0
BITMAP
7018
1030
2060
2040
2080
2170
2288
F408
0810
1060
3080
6100
C1F0
ENDCHAR
STARTCHAR threequarters
ENCODING 190
SWIDTH 42 0
DWIDTH 14 0
BBX 13 13 3 0
BITMAP
3818
4830
0860
7040
0880
0930
9250
F490
0920
11F0
3020
6020
C060
ENDCHAR
STARTCHAR questiondown
ENCODING 191
SWIDTH 42 0
DWIDTH 8 0
BBX 7 13 1 -4
BITMAP
06
00
00
0C
0C
08
10
20
40
C0
C6
C4
7C
ENDCHAR
STARTCHAR Agrave
ENCODING 192
SWIDTH 42 0
DWIDTH 13 0
BBX 13 16 0 0
BITMAP
00C0
0020
0000
00C0
00C0
01C0
03C0
02C0
0460
0C60
0860
1FE0
1060
6020
4030
F0F8
ENDCHAR
STARTCHAR Aacute
ENCODING 193
SWIDTH 42 0
DWIDTH 13 0
BBX 13 16 0 0
BITMAP
0030
00C0
0000
00C0
00C0
01C0
03C0
02C0
0460
0C60
0860
1FE0
1060
6020
4030
F0F8
ENDCHAR
STARTCHAR Acircumflex
ENCODING 194
SWIDTH 42 0
DWIDTH 13 0
BBX 13 16 0 0
BITMAP
0060
0190
0000
00C0
00C0
01C0
03C0
02C0
0460
0C60
0860
1FE0
1060
6020
4030
F0F8
ENDCHAR
STARTCHAR Atilde
ENCODING 195
SWIDTH 42 0
DWIDTH 13 0
BBX 13 16 0 0
BITMAP
00C8
0130
0000
00C0
00C0
01C0
03C0
02C0
0460
0C60
0860
1FE0
1060
6020
4030
F0F8
ENDCHAR
STARTCHAR Adieresis
ENCODING 196
SWIDTH 42 0
DWIDTH 13 0
BBX 13 15 0 0
BITMAP
01B0
0000
00C0
00C0
01C0
03C0
02C0
0460
0C60
0860
1FE0
1060
6020
4030
F0F8
ENDCHAR
STARTCHAR Aring
ENCODING 197
SWIDTH 42 0
DWIDTH 13 0
BBX 13 17 0 0
BITMAP
00E0
00A0
00E0
0000
00C0
00C0
01C0
03C0
02C0
0460
0C60
0860
1FE0
1060
6020
4030
F0F8
ENDCHAR
STARTCHAR AE
ENCODING 198
SWIDTH 42 0
DWIDTH 15 0
BBX 17 13 0 0
BITMAP
003F80
007080
00A000
016000
026000
026200
047E00
086000
0FC000
10C000
20C000
40C200
E3FE00
ENDCHAR
STARTCHAR Ccedilla
ENCODING 199
SWIDTH 42 0
DWIDTH 12 0
BBX 11 16 2 -3
BITMAP
07E0
1860
3020
6000
6000
C000
C000
C000
C000
C000
C000
6080
3F00
1000
0800
3800
ENDCHAR
STARTCHAR Egrave
ENCODING 200
SWIDTH 42 0
DWIDTH 10 0
BBX 11 16 0 0
BITMAP
0300
0080
0000
3FE0
0C20
0800
0800
1800
1880
1F80
1080
3000
3000
3080
3080
FF80
ENDCHAR
STARTCHAR Eacute
ENCODING 201
SWIDTH 42 0
DWIDTH 10 0
BBX 11 16 0 0
BITMAP
00C0
0300
0000
3FE0
0C20
0800
0800
1800
1880
1F80
1080
3000
3000
3080
3080
FF80
ENDCHAR
STARTCHAR Ecircumflex
ENCODING 202
SWIDTH 42 0
DWIDTH 10 0
BBX 11 16 0 0
BITMAP
0180
0640
0000
3FE0
0C20
0800
0800
1800
1880
1F80
1080
3000
3000
3080
3080
FF80
ENDCHAR
STARTCHAR Edieresis
ENCODING 203
SWIDTH 42 0
DWIDTH 10 0
BBX 11 15 0 0
BITMAP
06C0
0000
3FE0
0C20
0800
0800
1800
1880
1F80
1080
3000
3000
3080
3080
FF80
ENDCHAR
STARTCHAR Igrave
ENCODING 204
SWIDTH 42 0
DWIDTH 6 0
BBX 7 16 1 0
BITMAP
18
04
00
3E
1C
18
18
18
18
10
30
30
30
30
70
F8
ENDCHAR
STARTCHAR Iacute
ENCODING 205
SWIDTH 42 0
DWIDTH 6 0
BBX 8 16 1 0
BITMAP
03
0C
00
3E
1C
18
18
18
18
10
30
30
30
30
70
F8
ENDCHAR
STARTCHAR Icircumflex
ENCODING 206
SWIDTH 42 0
DWIDTH 6 0
BBX 7 16 1 0
BITMAP
0C
32
00
3E
1C
18
18
18
18
10
30
30
30
30
70
F8
ENDCHAR
STARTCHAR Idieresis
ENCODING 207
SWIDTH 42 0
DWIDTH 6 0
BBX 8 15 1 0
BITMAP
1B
00
3E
1C
18
18
18
18
10
30
30
30
30
70
F8
ENDCHAR
STARTCHAR Eth
ENCODING 208
SWIDTH 42 0
DWIDTH 13 0
BBX 13 13 1 0
BITMAP
3FE0
0870
1818
1818
1818
1818
7E18
1018
3030
3030
3060
31C0
FF00
ENDCHAR
STARTCHAR Ntilde
ENCODING 209
SWIDTH 42 0
DWIDTH 13 0
BBX 15 16 0 0
BITMAP
0190
0260
0000
381E
0C08
0C08
1608
1610
1310
1110
1190
20D0
20D0
2060
2060
F020
ENDCHAR
STARTCHAR Ograve
ENCODING 210
SWIDTH 42 0
DWIDTH 13 0
BBX 12 16 2 0
BITMAP
0300
0080
0000
07C0
1860
3030
2030
6030
4030
C030
C020
C060
C040
C0C0
6180
3E00
ENDCHAR
STARTCHAR Oacute
ENCODING 211
SWIDTH 42 0
DWIDTH 13 0
BBX 12 16 2 0
BITMAP
00C0
0300
0000
07C0
1860
3030
2030
6030
4030
C030
C020
C060
C040
C0C0
6180
3E00
ENDCHAR
STARTCHAR Ocircumflex
ENCODING 212
SWIDTH 42 0
DWIDTH 13 0
BBX 12 16 2 0
BITMAP
0180
0640
0000
07C0
1860
3030
2030
6030
4030
C030
C020
C060
C040
C0C0
6180
3E00
ENDCHAR
STARTCHAR Otilde
ENCODING 213
SWIDTH 42 0
DWIDTH 13 0
BBX 12 16 2 0
BITMAP
0320
04C0
0000
07C0
1860
3030
2030
6030
4030
C030
C020
C060
C040
C0C0
6180
3E00
ENDCHAR
STARTCHAR Odieresis
ENCODING 214
SWIDTH 42 0
DWIDTH 13 0
BBX 12 15 2 0
BITMAP
06C0
0000
07C0
1860
3030
2030
6030
4030
C030
C020
C060
C040
C0C0
6180
3E00
ENDCHAR
STARTCHAR multiply
ENCODING 215
SWIDTH 42 0
DWIDTH 10 0
BBX 12 11 0 0
BITMAP
2010
3020
1040
0880
0500
0600
0E00
1100
2080
40C0
8040
ENDCHAR
STARTCHAR Oslash
ENCODING 216
SWIDTH 42 0
DWIDTH 13 0
BBX 14 13 1 0
BITMAP
03E4
0C38
1818
1038
3058
2098
6118
6618
6830
7030
6060
70C0
9F00
ENDCHAR
STARTCHAR Ugrave
ENCODING 217
SWIDTH 42 0
DWIDTH 12 0
BBX 12 16 3 0
BITMAP
0600
0100
0000
F8F0
6040
6040
6040
6040
4080
C080
C080
C080
C080
C100
6300
3C00
ENDCHAR
STARTCHAR Uacute
ENCODING 218
SWIDTH 42 0
DWIDTH 12 0
BBX 12 16 3 0
BITMAP
0180
0600
0000
F8F0
6040
6040
6040
6040
4080
C080
C080
C080
C080
C100
6300
3C00
ENDCHAR
STARTCHAR Ucircumflex
ENCODING 219
SWIDTH 42 0
DWIDTH 12 0
BBX 12 16 3 0
BITMAP
0300
0C80
0000
F8F0
6040
6040
6040
6040
4080
C080
C080
C080
C080
C100
6300
3C00
ENDCHAR
STARTCHAR Udieresis
ENCODING 220
SWIDTH 42 0
DWIDTH 12 0
BBX 12 15 3 0
BITMAP
0D80
0000
F8F0
6040
6040
6040
6040
4080
C080
C080
C080
C080
C100
6300
3C00
ENDCHAR
STARTCHAR Yacute
ENCODING 221
SWIDTH 42 0
DWIDTH 11 0
BBX 11 16 2 0
BITMAP
0180
0600
0000
F0E0
6040
6080
3100
3200
1E00
1C00
1800
1800
1800
1000
3000
7C00
ENDCHAR
STARTCHAR Thorn
ENCODING 222
SWIDTH 42 0
DWIDTH 10 0
BBX 10 13 1 0
BITMAP
3E00
1800
1800
1F80
18C0
18C0
10C0
3080
3180
3E00
3000
7000
F800
ENDCHAR
STARTCHAR germandbls
ENCODING 223
SWIDTH 42 0
DWIDTH 10 0
BBX 9 16 1 -3
BITMAP
0F00
1980
1980
1100
3200
3400
3400
2700
2380
6180
6880
6980
4F00
4000
C000
C000
ENDCHAR
STARTCHAR agrave
ENCODING 224
SWIDTH 42 0
DWIDTH 10 0
BBX 9 12 1 0
BITMAP
0600
0100
0000
0F80
1180
2180
4100
4300
C300
C700
CB00
7380
ENDCHAR
STARTCHAR aacute
ENCODING 225
SWIDTH 42 0
DWIDTH 10 0
BBX 9 12 1 0
BITMAP
0180
0600
0000
0F80
1180
2180
4100
4300
C300
C700
CB00
7380
ENDCHAR
STARTCHAR acircumflex
ENCODING 226
SWIDTH 42 0
DWIDTH 10 0
BBX 9 12 1 0
BITMAP
0300
0C80
0000
0F80
1180
2180
4100
4300
C300
C700
CB00
7380
ENDCHAR
STARTCHAR atilde
ENCODING 227
SWIDTH 42 0
DWIDTH 10 0
BBX 10 12 1 0
BITMAP
0640
0980
0000
0F80
1180
2180
4100
4300
C300
C700
CB00
7380
ENDCHAR
STARTCHAR adieresis
ENCODING 228
SWIDTH 42 0
DWIDTH 10 0
BBX 9 11 1 0
BITMAP
0D80
0000
0F80
1180
2180
4100
4300
C300
C700
CB00
7380
ENDCHAR
STARTCHAR aring
ENCODING 229
SWIDTH 42 0
DWIDTH 10 0
BBX 9 13 1 0
BITMAP
0700
0500
0700
0000
0F80
1180
2180
4100
4300
C300
C700
CB00
7380
ENDCHAR
STARTCHAR ae
ENCODING 230
SWIDTH 42 0
DWIDTH 15 0
BBX 14 9 1 0
BITMAP
0FB8
10CC
218C
6188
43F0
C300
C500
C984
71F8
ENDCHAR
STARTCHAR ccedilla
ENCODING 231
SWIDTH 42 0
DWIDTH 8 0
BBX 8 12 1 -3
BITMAP
1F
23
42
40
C0
C0
C0
C2
7C
20
10
70
ENDCHAR
STARTCHAR egrave
ENCODING 232
SWIDTH 42 0
DWIDTH 9 0
BBX 7 12 1 0
BITMAP
0C
02
00
1E
22
62
46
F8
C0
C0
C6
7C
ENDCHAR
STARTCHAR eacute
ENCODING 233
SWIDTH 42 0
DWIDTH 9 0
BBX 8 12 1 0
BITMAP
03
0C
00
1E
22
62
46
F8
C0
C0
C6
7C
ENDCHAR
STARTCHAR ecircumflex
ENCODING 234
SWIDTH 42 0
DWIDTH 9 0
BBX 8 12 1 0
BITMAP
06
19
00
1E
22
62
46
F8
C0
C0
C6
7C
ENDCHAR
STARTCHAR edieresis
ENCODING 235
SWIDTH 42 0
DWIDTH 9 0
BBX 8 11 1 0
BITMAP
1B
00
1E
22
62
46
F8
C0
C0
C6
7C
ENDCHAR
STARTCHAR igrave
ENCODING 236
SWIDTH 42 0
DWIDTH 5 0
BBX 4 12 2 0
BITMAP
60
10
00
E0
60
60
40
40
40
C0
C0
E0
ENDCHAR
STARTCHAR iacute
ENCODING 237
SWIDTH 42 0
DWIDTH 5 0
BBX 6 12 2 0
BITMAP
0C
30
00
E0
60
60
40
40
40
C0
C0
E0
ENDCHAR
STARTCHAR icircumflex
ENCODING 238
SWIDTH 42 0
DWIDTH 5 0
BBX 6 12 2 0
BITMAP
18
64
00
E0
60
60
40
40
40
C0
C0
E0
ENDCHAR
STARTCHAR idieresis
ENCODING 239
SWIDTH 42 0
DWIDTH 5 0
BBX 6 11 2 0
BITMAP
6C
00
E0
60
60
40
40
40
C0
C0
E0
ENDCHAR
STARTCHAR eth
ENCODING 240
SWIDTH 42 0
DWIDTH 10 0
BBX 8 13 2 0
BITMAP
3F
0E
1A
23
1F
23
61
41
C1
C3
C2
C4
78
ENDCHAR
STARTCHAR ntilde
ENCODING 241
SWIDTH 42 0
DWIDTH 11 0
BBX 9 12 2 0
BITMAP
0C80
1300
0000
E300
6D80
7180
6100
6100
4300
4300
C300
C380
ENDCHAR
STARTCHAR ograve
ENCODING 242
SWIDTH 42 0
DWIDTH 10 0
BBX 8 12 1 0
BITMAP
0C
02
00
1E
33
61
41
C3
C3
C2
C4
78
ENDCHAR
STARTCHAR oacute
ENCODING 243
SWIDTH 42 0
DWIDTH 10 0
BBX 9 12 1 0
BITMAP
0180
0600
0000
1E00
3300
6100
4100
C300
C300
C200
C400
7800
ENDCHAR
STARTCHAR ocircumflex
ENCODING 244
SWIDTH 42 0
DWIDTH 10 0
BBX 8 12 1 0
BITMAP
06
19
00
1E
33
61
41
C3
C3
C2
C4
78
ENDCHAR
STARTCHAR otilde
ENCODING 245
SWIDTH 42 0
DWIDTH 10 0
BBX 9 12 1 0
BITMAP
0C80
1300
0000
1E00
3300
6100
4100
C300
C300
C200
C400
7800
ENDCHAR
STARTCHAR odieresis
ENCODING 246
SWIDTH 42 0
DWIDTH 10 0
BBX 9 11 1 0
BITMAP
0D80
0000
1E00
3300
6100
4100
C300
C300
C200
C400
7800
ENDCHAR
STARTCHAR divide
ENCODING 247
SWIDTH 42 0
DWIDTH 10 0
BBX 10 9 1 0
BITMAP
0600
0000
0000
0000
FFC0
0000
0000
0000
1800
ENDCHAR
STARTCHAR oslash
ENCODING 248
SWIDTH 42 0
DWIDTH 10 0
BBX 10 9 1 0
BITMAP
0FC0
1180
2180
6780
6980
7180
6300
6200
BC00
ENDCHAR
STARTCHAR ugrave
ENCODING 249
SWIDTH 42 0
DWIDTH 11 0
BBX 9 12 2 0
BITMAP
0C00
0200
0000
E380
6180
6100
6100
4300
4700
C700
DB00
6380
ENDCHAR
STARTCHAR uacute
ENCODING 250
SWIDTH 42 0
DWIDTH 11 0
BBX 9 12 2 0
BITMAP
0180
0600
0000
E380
6180
6100
6100
4300
4700
C700
DB00
6380
ENDCHAR
STARTCHAR ucircumflex
ENCODING 251
SWIDTH 42 0
DWIDTH 11 0
BBX 9 12 2 0
BITMAP
0300
0C80
0000
E380
6180
6100
6100
4300
4700
C700
DB00
6380
ENDCHAR
STARTCHAR udieresis
ENCODING 252
SWIDTH 42 0
DWIDTH 11 0
BBX 9 11 2 0
BITMAP
0D80
0000
E380
6180
6100
6100
4300
4700
C700
DB00
6380
ENDCHAR
STARTCHAR yacute
ENCODING 253
SWIDTH 42 0
DWIDTH 9 0
BBX 11 15 0 -3
BITMAP
00C0
0300
0000
70E0
1840
1840
1880
0900
0900
0A00
0C00
0800
1000
2000
E000
ENDCHAR
STARTCHAR thorn
ENCODING 254
SWIDTH 42 0
DWIDTH 10 0
BBX 10 16 1 -3
BITMAP
7800
1000
1000
3000
3380
34C0
38C0
30C0
7080
6080
6100
6200
7C00
C000
C000
C000
ENDCHAR
STARTCHAR ydieresis
ENCODING 255
SWIDTH 42 0
DWIDTH 9 0
BBX 11 14 0 -3
BITMAP
06C0
0000
70E0
1840
1840
1880
0900
0900
0A00
0C00
0800
1000
2000
E000
ENDCHAR
STARTCHAR fl
ENCODING -1
SWIDTH 42 0
DWIDTH 11 0
BBX 11 16 1 -3
BITMAP
07E0
0860
1840
1040
7EC0
30C0
30C0
2080
2080
6180
6180
6180
41C0
4000
C000
C000
ENDCHAR
STARTCHAR endash
ENCODING -1
SWIDTH 42 0
DWIDTH 8 0
BBX 7 1 2 5
BITMAP
FE
ENDCHAR
STARTCHAR dagger
ENCODING -1
SWIDTH 42 0
DWIDTH 10 0
BBX 8 16 3 -3
BITMAP
0C
08
08
08
08
FF
10
10
10
10
30
20
20
20
60
60
ENDCHAR
STARTCHAR Zcaron
ENCODING -1
SWIDTH 42 0
DWIDTH 11 0
BBX 11 16 1 0
BITMAP
04C0
0300
0000
1FE0
30C0
2080
0180
0300
0600
0400
0C00
1800
3000
6080
6080
FF80
ENDCHAR
STARTCHAR oe
ENCODING -1
SWIDTH 42 0
DWIDTH 15 0
BBX 14 9 1 0
BITMAP
0E38
334C
618C
4108
C1F0
C300
C300
C58C
79F0
ENDCHAR
STARTCHAR Ydieresis
ENCODING -1
SWIDTH 42 0
DWIDTH 11 0
BBX 11 15 2 0
BITMAP
0D80
0000
F0E0
6040
6080
3100
3200
1E00
1C00
1800
1800
1800
1000
3000
7C00
ENDCHAR
STARTCHAR dotlessi
ENCODING -1
SWIDTH 42 0
DWIDTH 5 0
BBX 3 9 2 0
BITMAP
E0
60
60
40
40
40
C0
C0
E0
ENDCHAR
STARTCHAR lslash
ENCODING -1
SWIDTH 42 0
DWIDTH 5 0
BBX 6 13 1 0
BITMAP
38
18
18
18
10
3C
F0
30
20
60
60
60
70
ENDCHAR
STARTCHAR Lslash
ENCODING -1
SWIDTH 42 0
DWIDTH 9 0
BBX 9 13 0 0
BITMAP
3E00
1C00
1800
1800
1A00
1C00
3800
7000
7000
3000
3080
3080
FF80
ENDCHAR
STARTCHAR daggerdbl
ENCODING -1
SWIDTH 42 0
DWIDTH 10 0
BBX 9 16 2 -3
BITMAP
0600
0400
0400
0800
7F80
0800
0800
0800
0800
0800
FF00
1000
1000
1000
3000
3000
ENDCHAR
STARTCHAR fi
ENCODING -1
SWIDTH 42 0
DWIDTH 11 0
BBX 10 16 1 -3
BITMAP
0EC0
1A00
1200
3000
7F80
3180
3180
2180
6100
6100
6300
6300
4380
C000
C000
C000
ENDCHAR
STARTCHAR guilsinglright
ENCODING -1
SWIDTH 42 0
DWIDTH 6 0
BBX 5 9 1 0
BITMAP
20
20
30
10
18
30
20
40
80
ENDCHAR
STARTCHAR OE
ENCODING -1
SWIDTH 42 0
DWIDTH 17 0
BBX 17 13 2 0
BITMAP
07BF80
187080
306080
206000
606000
406200
C07E00
C04200
C0C000
C0C000
C0C200
61C200
3FFE00
ENDCHAR
STARTCHAR emdash
ENCODING -1
SWIDTH 42 0
DWIDTH 17 0
BBX 16 1 1 5
BITMAP
FFFF
ENDCHAR
STARTCHAR caron
ENCODING -1
SWIDTH 42 0
DWIDTH 10 0
BBX 5 2 5 11
BITMAP
98
60
ENDCHAR
STARTCHAR ogonek
ENCODING -1
SWIDTH 42 0
DWIDTH 10 0
BBX 3 3 3 -3
BITMAP
60
80
E0
ENDCHAR
STARTCHAR hungarumlaut
ENCODING -1
SWIDTH 42 0
DWIDTH 10 0
BBX 6 2 5 11
BITMAP
7C
B0
ENDCHAR
STARTCHAR guilsinglleft
ENCODING -1
SWIDTH 42 0
DWIDTH 6 0
BBX 5 9 1 0
BITMAP
08
10
20
60
C0
40
60
20
20
ENDCHAR
STARTCHAR dotaccent
ENCODING -1
SWIDTH 42 0
DWIDTH 10 0
BBX 2 1 6 12
BITMAP
C0
ENDCHAR
STARTCHAR breve
ENCODING -1
SWIDTH 42 0
DWIDTH 10 0
BBX 6 2 5 11
BITMAP
84
F8
ENDCHAR
STARTCHAR bullet
ENCODING -1
SWIDTH 42 0
DWIDTH 10 0
BBX 5 5 4 3
BITMAP
70
F8
F8
F8
70
ENDCHAR
STARTCHAR tilde
ENCODING -1
SWIDTH 42 0
DWIDTH 10 0
BBX 6 2 4 11
BITMAP
64
98
ENDCHAR
STARTCHAR circumflex
ENCODING -1
SWIDTH 42 0
DWIDTH 10 0
BBX 5 2 5 11
BITMAP
30
C8
ENDCHAR
STARTCHAR quotedblleft
ENCODING -1
SWIDTH 42 0
DWIDTH 8 0
BBX 6 5 3 8
BITMAP
6C
48
C8
D8
D8
ENDCHAR
STARTCHAR quotesingle
ENCODING -1
SWIDTH 42 0
DWIDTH 4 0
BBX 2 5 3 8
BITMAP
C0
C0
C0
40
40
ENDCHAR
STARTCHAR scaron
ENCODING -1
SWIDTH 42 0
DWIDTH 7 0
BBX 9 12 0 0
BITMAP
0980
0600
0000
1F00
3100
3100
3800
1C00
0600
8200
8600
7C00
ENDCHAR
STARTCHAR ring
ENCODING -1
SWIDTH 42 0
DWIDTH 10 0
BBX 3 3 6 10
BITMAP
E0
A0
E0
ENDCHAR
STARTCHAR quotesinglbase
ENCODING -1
SWIDTH 42 0
DWIDTH 4 0
BBX 3 6 1 -3
BITMAP
60
60
60
40
40
C0
ENDCHAR
STARTCHAR florin
ENCODING -1
SWIDTH 42 0
DWIDTH 10 0
BBX 8 16 3 -3
BITMAP
07
19
11
30
30
30
F8
20
60
60
60
60
40
C0
C0
C0
ENDCHAR
STARTCHAR trademark
ENCODING -1
SWIDTH 42 0
DWIDTH 15 0
BBX 15 7 2 6
BITMAP
FDCE
30CC
21D8
2168
2168
2148
F61C
ENDCHAR
STARTCHAR fraction
ENCODING -1
SWIDTH 42 0
DWIDTH 1 0
BBX 13 13 -4 0
BITMAP
0018
0030
0060
0040
0080
0100
0200
0400
0800
1000
3000
6000
C000
ENDCHAR
STARTCHAR grave
ENCODING -1
SWIDTH 42 0
DWIDTH 10 0
BBX 3 2 5 11
BITMAP
C0
20
ENDCHAR
STARTCHAR perthousand
ENCODING -1
SWIDTH 42 0
DWIDTH 18 0
BBX 18 13 1 0
BITMAP
381800
642000
444000
44C000
4C8000
390000
02E380
052640
0B3440
132440
2224C0
436480
C1C700
ENDCHAR
STARTCHAR ellipsis
ENCODING -1
SWIDTH 42 0
DWIDTH 17 0
BBX 13 1 2 0
BITMAP
C218
ENDCHAR
STARTCHAR quotedblright
ENCODING -1
SWIDTH 42 0
DWIDTH 8 0
BBX 6 5 3 8
BITMAP
6C
6C
4C
48
D8
ENDCHAR
STARTCHAR Scaron
ENCODING -1
SWIDTH 42 0
DWIDTH 9 0
BBX 9 16 1 0
BITMAP
0980
0600
0000
0F00
1980
3100
3100
3000
1800
0C00
0600
0200
0300
8200
8600
FC00
ENDCHAR
STARTCHAR quotedblbase
ENCODING -1
SWIDTH 42 0
DWIDTH 8 0
BBX 6 6 1 -3
BITMAP
6C
6C
6C
48
48
98
ENDCHAR
STARTCHAR zcaron
ENCODING -1
SWIDTH 42 0
DWIDTH 9 0
BBX 9 12 1 0
BITMAP
0980
0600
0000
3F80
2300
0600
0C00
0800
1000
3000
6100
FF00
ENDCHAR
ENDFONT
