#define squish_width 48
#define squish_height 48
#define squish_x_hot -1
#define squish_y_hot -1
static char squish_bits[] = {
   0x00, 0x00, 0x00, 0x00, 0x00, 0x00, 0x00, 0x00, 0x00, 0x00, 0x00, 0x00,
   0x00, 0x00, 0x00, 0x00, 0x00, 0x00, 0x00, 0x00, 0x00, 0x00, 0x00, 0x00,
   0x00, 0x00, 0x60, 0x01, 0x00, 0x00, 0x00, 0x00, 0x46, 0x00, 0x20, 0x00,
   0x00, 0x00, 0x18, 0x08, 0x02, 0x00, 0x00, 0x40, 0x41, 0x52, 0x28, 0x00,
   0x00, 0x80, 0x81, 0x1c, 0x13, 0x00, 0x00, 0x00, 0x12, 0x69, 0x00, 0x00,
   0x00, 0x30, 0x88, 0x40, 0x09, 0x00, 0x00, 0x40, 0x40, 0x00, 0x04, 0x00,
   0x00, 0x90, 0x06, 0x01, 0x30, 0x00, 0x00, 0x98, 0x80, 0x02, 0x10, 0x00,
   0x80, 0x20, 0x00, 0x80, 0x44, 0x00, 0x00, 0x0c, 0x82, 0xb0, 0x00, 0x00,
   0x80, 0x22, 0x20, 0x10, 0x44, 0x00, 0x00, 0x04, 0x1e, 0xa1, 0x00, 0x00,
   0x00, 0x04, 0x02, 0xa6, 0x18, 0x06, 0x00, 0x80, 0x00, 0x80, 0x8b, 0x00,
   0x00, 0x88, 0x0e, 0x02, 0x01, 0x00, 0x40, 0x04, 0x05, 0x62, 0x50, 0x04,
   0x40, 0x00, 0x01, 0x50, 0x09, 0x00, 0x00, 0x28, 0x12, 0x13, 0x88, 0x04,
   0x40, 0xc1, 0x30, 0x40, 0x02, 0x00, 0x60, 0x02, 0x03, 0x50, 0xc1, 0x01,
   0x00, 0x42, 0x16, 0x94, 0x80, 0x06, 0x00, 0x00, 0x40, 0x10, 0x40, 0x00,
   0x00, 0x94, 0x10, 0xe4, 0x34, 0x02, 0x00, 0x80, 0x1c, 0x84, 0x89, 0x00,
   0x00, 0x11, 0x00, 0x00, 0x20, 0x02, 0x00, 0x30, 0x10, 0x80, 0x54, 0x00,
   0x00, 0x20, 0x91, 0xa5, 0xc4, 0x00, 0x00, 0x22, 0x20, 0x28, 0x92, 0x00,
   0x00, 0x52, 0x08, 0x4b, 0x00, 0x00, 0x00, 0x00, 0x90, 0x02, 0x2c, 0x00,
   0x00, 0x10, 0x01, 0x49, 0x00, 0x00, 0x00, 0x40, 0x04, 0x12, 0x0e, 0x00,
   0x00, 0x00, 0x20, 0x10, 0x00, 0x00, 0x00, 0x00, 0x05, 0x40, 0x01, 0x00,
   0x00, 0x00, 0x00, 0x01, 0x00, 0x00, 0x00, 0x00, 0x00, 0x00, 0x00, 0x00,
   0x00, 0x00, 0x00, 0x00, 0x00, 0x00, 0x00, 0x00, 0x00, 0x00, 0x00, 0x00,
   0x00, 0x00, 0x00, 0x00, 0x00, 0x00, 0x00, 0x00, 0x00, 0x00, 0x00, 0x00,
   0x00, 0x00, 0x00, 0x00, 0x00, 0x00, 0x00, 0x00, 0x00, 0x00, 0x00, 0x00};
