#define grabber_width 16
#define grabber_height 16
#define grabber_x_hot 2
#define grabber_y_hot 7
static char grabber_bits[] = {
   0x00, 0x00, 0x80, 0x03, 0x60, 0x0e, 0x90, 0x14, 0x08, 0x29, 0x64, 0x52,
   0x98, 0xe4, 0x04, 0x85, 0x8a, 0x80, 0x9a, 0x80, 0x62, 0x40, 0x04, 0x40,
   0x08, 0x20, 0x10, 0x20, 0x60, 0x10, 0x40, 0x10};
