#define grabberMask_width 16
#define grabberMask_height 16
#define grabberMask_x_hot 2
#define grabberMask_y_hot 7
static char grabberMask_bits[] = {
   0x00, 0x00, 0x80, 0x03, 0xe0, 0x0f, 0xf0, 0x1f, 0xf8, 0x3f, 0xfc, 0x7f,
   0x98, 0xff, 0x04, 0xff, 0x8e, 0xff, 0x9e, 0xff, 0xfe, 0x7f, 0xfc, 0x7f,
   0xf8, 0x3f, 0xf0, 0x3f, 0xe0, 0x1f, 0xc0, 0x1f};
