STARTFONT 2.1
COMMENT 
COMMENT  Copyright 1988 Digital Equipment Corporation
COMMENT 
COMMENT  Digital is a registered trademark of Digital Equipment Corporation.
COMMENT  Permission to use this trademark is hereby granted only in association
COMMENT  with the images described in this file.
COMMENT 
COMMENT  Permission to use, copy, modify, and distribute this software and
COMMENT  its documentation for any purpose and without fee is hereby granted,
COMMENT  provided that the above copyright notices appear in all copies and
COMMENT  that both those copyright notices and this permission notice appear
COMMENT  in supporting documentation, and that the name of 
COMMENT  Digital Equipment Corporation not be used in advertising or
COMMENT  publicity pertaining to distribution of the software without
COMMENT  specific, written prior permission.  Digital
COMMENT  Equipment Corporation make no representations about the suitability
COMMENT  of this software for any purpose.  It is provided "as is" without
COMMENT  express or implied warranty.
COMMENT 
COMMENT  DIGITAL EQUIPMENT CORPORATION DISCLAIMS ALL
COMMENT  WARRANTIES WITH REGARD TO THIS SOFTWARE, INCLUDING ALL IMPLIED
COMMENT  WARRANTIES OF MERCHANTABILITY AND FITNESS, IN NO EVENT SHALL 
COMMENT  DIGITAL EQUIPMENT CORPORATION BE LIABLE FOR ANY SPECIAL,
COMMENT  INDIRECT OR CONSEQUENTIAL DAMAGES OR ANY DAMAGES WHATSOEVER
COMMENT  RESULTING FROM LOSS OF USE, DATA OR PROFITS, WHETHER IN AN ACTION OF
COMMENT  CONTRACT, NEGLIGENCE OR OTHER TORTIOUS ACTION, ARISING OUT OF OR IN
COMMENT  CONNECTION WITH THE USE OR PERFORMANCE OF THIS SOFTWARE.
COMMENT 
COMMENT 
FONT -DEC-Terminal-Bold-R-Normal--14-140-75-75-C-80-DEC-DECtech
SIZE 14 75 75
FONTBOUNDINGBOX 8 15 0 -3
STARTPROPERTIES 22
FONT_DESCENT 3
FONT_ASCENT 12
COMMENT Begin LogicalFontDescription
FONTNAME_REGISTRY ""
FAMILY_NAME "Terminal"
FOUNDRY "DEC"
WEIGHT_NAME "Bold"
SETWIDTH_NAME "Normal"
SLANT "R"
ADD_STYLE_NAME ""
PIXEL_SIZE 14
POINT_SIZE 140
RESOLUTION_X 75
RESOLUTION_Y 75
SPACING "C"
AVERAGE_WIDTH 80
CHARSET_REGISTRY "DEC"
CHARSET_ENCODING "DECtech"
CHARSET_COLLECTIONS "DEC-DECtech"
FULL_NAME "Terminal Bold Normal"
COPYRIGHT "Copyright (c) 1988 Digital Equipment Corp."
CAP_HEIGHT 8
X_HEIGHT 6
COMMENT ***** end of inserted font properties
ENDPROPERTIES 
CHARS 180
STARTCHAR space
ENCODING 32
SWIDTH 570 0
DWIDTH 8 0
BBX 1 1 0 0
BITMAP
00
ENDCHAR
STARTCHAR exclam
ENCODING 33
SWIDTH 570 0
DWIDTH 8 0
BBX 2 9 3 0
BITMAP
C0
C0
C0
C0
C0
C0
00
C0
C0
ENDCHAR
STARTCHAR quotedbl
ENCODING 34
SWIDTH 570 0
DWIDTH 8 0
BBX 5 3 1 7
BITMAP
D8
D8
D8
ENDCHAR
STARTCHAR numbersign
ENCODING 35
SWIDTH 570 0
DWIDTH 8 0
BBX 6 9 1 0
BITMAP
48
48
FC
FC
48
FC
FC
48
48
ENDCHAR
STARTCHAR dollar
ENCODING 36
SWIDTH 570 0
DWIDTH 8 0
BBX 5 9 2 0
BITMAP
20
70
D8
C0
70
18
D8
70
20
ENDCHAR
STARTCHAR percent
ENCODING 37
SWIDTH 570 0
DWIDTH 8 0
BBX 7 8 1 0
BITMAP
6C
DC
78
18
30
3C
76
6C
ENDCHAR
STARTCHAR ampersand
ENCODING 38
SWIDTH 570 0
DWIDTH 8 0
BBX 7 8 1 0
BITMAP
30
58
58
32
7C
CC
CC
7A
ENDCHAR
STARTCHAR quoteright
ENCODING 39
SWIDTH 570 0
DWIDTH 8 0
BBX 3 3 2 7
BITMAP
60
60
C0
ENDCHAR
STARTCHAR parenleft
ENCODING 40
SWIDTH 570 0
DWIDTH 8 0
BBX 4 10 3 -1
BITMAP
30
60
60
C0
C0
C0
C0
60
60
30
ENDCHAR
STARTCHAR parenright
ENCODING 41
SWIDTH 570 0
DWIDTH 8 0
BBX 4 10 1 -1
BITMAP
C0
60
60
30
30
30
30
60
60
C0
ENDCHAR
STARTCHAR asterisk
ENCODING 42
SWIDTH 570 0
DWIDTH 8 0
BBX 7 7 1 1
BITMAP
10
54
38
FE
38
54
10
ENDCHAR
STARTCHAR plus
ENCODING 43
SWIDTH 570 0
DWIDTH 8 0
BBX 6 5 1 2
BITMAP
30
30
FC
30
30
ENDCHAR
STARTCHAR comma
ENCODING 44
SWIDTH 570 0
DWIDTH 8 0
BBX 3 3 2 -1
BITMAP
60
60
C0
ENDCHAR
STARTCHAR minus
ENCODING 45
SWIDTH 570 0
DWIDTH 8 0
BBX 6 2 1 3
BITMAP
FC
FC
ENDCHAR
STARTCHAR period
ENCODING 46
SWIDTH 570 0
DWIDTH 8 0
BBX 2 2 2 0
BITMAP
C0
C0
ENDCHAR
STARTCHAR slash
ENCODING 47
SWIDTH 570 0
DWIDTH 8 0
BBX 5 8 2 0
BITMAP
18
18
30
30
60
60
C0
C0
ENDCHAR
STARTCHAR zero
ENCODING 48
SWIDTH 570 0
DWIDTH 8 0
BBX 6 8 1 0
BITMAP
30
48
CC
CC
CC
CC
48
30
ENDCHAR
STARTCHAR one
ENCODING 49
SWIDTH 570 0
DWIDTH 8 0
BBX 6 8 1 0
BITMAP
30
70
B0
30
30
30
30
FC
ENDCHAR
STARTCHAR two
ENCODING 50
SWIDTH 570 0
DWIDTH 8 0
BBX 6 8 1 0
BITMAP
78
CC
1C
38
70
E0
CC
FC
ENDCHAR
STARTCHAR three
ENCODING 51
SWIDTH 570 0
DWIDTH 8 0
BBX 6 8 1 0
BITMAP
78
CC
0C
38
0C
0C
CC
78
ENDCHAR
STARTCHAR four
ENCODING 52
SWIDTH 570 0
DWIDTH 8 0
BBX 7 8 1 0
BITMAP
0C
1C
2C
4C
CC
FE
0C
0C
ENDCHAR
STARTCHAR five
ENCODING 53
SWIDTH 570 0
DWIDTH 8 0
BBX 6 8 1 0
BITMAP
F8
C0
C0
F8
0C
0C
CC
78
ENDCHAR
STARTCHAR six
ENCODING 54
SWIDTH 570 0
DWIDTH 8 0
BBX 6 8 1 0
BITMAP
78
C0
C0
F8
CC
CC
CC
78
ENDCHAR
STARTCHAR seven
ENCODING 55
SWIDTH 570 0
DWIDTH 8 0
BBX 5 8 2 0
BITMAP
F8
18
18
30
30
60
60
60
ENDCHAR
STARTCHAR eight
ENCODING 56
SWIDTH 570 0
DWIDTH 8 0
BBX 6 8 1 0
BITMAP
78
CC
CC
78
CC
CC
CC
78
ENDCHAR
STARTCHAR nine
ENCODING 57
SWIDTH 570 0
DWIDTH 8 0
BBX 6 8 1 0
BITMAP
78
CC
CC
CC
7C
0C
CC
78
ENDCHAR
STARTCHAR colon
ENCODING 58
SWIDTH 570 0
DWIDTH 8 0
BBX 2 6 3 0
BITMAP
C0
C0
00
00
C0
C0
ENDCHAR
STARTCHAR semicolon
ENCODING 59
SWIDTH 570 0
DWIDTH 8 0
BBX 3 7 2 -1
BITMAP
60
60
00
00
60
60
C0
ENDCHAR
STARTCHAR less
ENCODING 60
SWIDTH 570 0
DWIDTH 8 0
BBX 5 8 2 0
BITMAP
18
30
60
C0
C0
60
30
18
ENDCHAR
STARTCHAR equal
ENCODING 61
SWIDTH 570 0
DWIDTH 8 0
BBX 6 5 1 2
BITMAP
FC
FC
00
FC
FC
ENDCHAR
STARTCHAR greater
ENCODING 62
SWIDTH 570 0
DWIDTH 8 0
BBX 5 8 1 0
BITMAP
C0
60
30
18
18
30
60
C0
ENDCHAR
STARTCHAR question
ENCODING 63
SWIDTH 570 0
DWIDTH 8 0
BBX 6 9 1 0
BITMAP
78
CC
CC
0C
18
30
00
30
30
ENDCHAR
STARTCHAR at
ENCODING 64
SWIDTH 570 0
DWIDTH 8 0
BBX 7 8 1 0
BITMAP
7C
E2
CE
DA
DA
CE
E0
7C
ENDCHAR
STARTCHAR A
ENCODING 65
SWIDTH 570 0
DWIDTH 8 0
BBX 6 8 1 0
BITMAP
30
78
CC
CC
FC
CC
CC
CC
ENDCHAR
STARTCHAR B
ENCODING 66
SWIDTH 570 0
DWIDTH 8 0
BBX 6 8 1 0
BITMAP
F8
CC
CC
F8
CC
CC
CC
F8
ENDCHAR
STARTCHAR C
ENCODING 67
SWIDTH 570 0
DWIDTH 8 0
BBX 6 8 1 0
BITMAP
78
CC
C0
C0
C0
C0
CC
78
ENDCHAR
STARTCHAR D
ENCODING 68
SWIDTH 570 0
DWIDTH 8 0
BBX 6 8 1 0
BITMAP
F8
CC
CC
CC
CC
CC
CC
F8
ENDCHAR
STARTCHAR E
ENCODING 69
SWIDTH 570 0
DWIDTH 8 0
BBX 5 8 2 0
BITMAP
F8
C0
C0
F0
C0
C0
C0
F8
ENDCHAR
STARTCHAR F
ENCODING 70
SWIDTH 570 0
DWIDTH 8 0
BBX 5 8 2 0
BITMAP
F8
C0
C0
F0
C0
C0
C0
C0
ENDCHAR
STARTCHAR G
ENCODING 71
SWIDTH 570 0
DWIDTH 8 0
BBX 6 8 1 0
BITMAP
78
CC
C0
DC
CC
CC
CC
78
ENDCHAR
STARTCHAR H
ENCODING 72
SWIDTH 570 0
DWIDTH 8 0
BBX 6 8 1 0
BITMAP
CC
CC
CC
FC
CC
CC
CC
CC
ENDCHAR
STARTCHAR I
ENCODING 73
SWIDTH 570 0
DWIDTH 8 0
BBX 6 8 1 0
BITMAP
FC
30
30
30
30
30
30
FC
ENDCHAR
STARTCHAR J
ENCODING 74
SWIDTH 570 0
DWIDTH 8 0
BBX 5 8 1 0
BITMAP
78
18
18
18
18
18
D8
70
ENDCHAR
STARTCHAR K
ENCODING 75
SWIDTH 570 0
DWIDTH 8 0
BBX 7 8 1 0
BITMAP
C6
CC
D8
F0
F0
D8
CC
C6
ENDCHAR
STARTCHAR L
ENCODING 76
SWIDTH 570 0
DWIDTH 8 0
BBX 5 8 2 0
BITMAP
C0
C0
C0
C0
C0
C0
C0
F8
ENDCHAR
STARTCHAR M
ENCODING 77
SWIDTH 570 0
DWIDTH 8 0
BBX 7 8 1 0
BITMAP
C6
EE
FE
D6
C6
C6
C6
C6
ENDCHAR
STARTCHAR N
ENCODING 78
SWIDTH 570 0
DWIDTH 8 0
BBX 6 8 1 0
BITMAP
CC
CC
EC
EC
DC
DC
CC
CC
ENDCHAR
STARTCHAR O
ENCODING 79
SWIDTH 570 0
DWIDTH 8 0
BBX 6 8 1 0
BITMAP
78
CC
CC
CC
CC
CC
CC
78
ENDCHAR
STARTCHAR P
ENCODING 80
SWIDTH 570 0
DWIDTH 8 0
BBX 6 8 1 0
BITMAP
F8
CC
CC
CC
F8
C0
C0
C0
ENDCHAR
STARTCHAR Q
ENCODING 81
SWIDTH 570 0
DWIDTH 8 0
BBX 6 9 1 -1
BITMAP
78
CC
CC
CC
CC
CC
DC
78
0C
ENDCHAR
STARTCHAR R
ENCODING 82
SWIDTH 570 0
DWIDTH 8 0
BBX 7 8 1 0
BITMAP
F8
CC
CC
CC
F8
D8
CC
CE
ENDCHAR
STARTCHAR S
ENCODING 83
SWIDTH 570 0
DWIDTH 8 0
BBX 6 8 1 0
BITMAP
78
CC
C0
F8
7C
0C
CC
78
ENDCHAR
STARTCHAR T
ENCODING 84
SWIDTH 570 0
DWIDTH 8 0
BBX 6 8 1 0
BITMAP
FC
30
30
30
30
30
30
30
ENDCHAR
STARTCHAR U
ENCODING 85
SWIDTH 570 0
DWIDTH 8 0
BBX 6 8 1 0
BITMAP
CC
CC
CC
CC
CC
CC
CC
78
ENDCHAR
STARTCHAR V
ENCODING 86
SWIDTH 570 0
DWIDTH 8 0
BBX 6 8 1 0
BITMAP
CC
CC
CC
CC
CC
CC
78
30
ENDCHAR
STARTCHAR W
ENCODING 87
SWIDTH 570 0
DWIDTH 8 0
BBX 7 8 1 0
BITMAP
C6
C6
C6
D6
D6
D6
7C
28
ENDCHAR
STARTCHAR X
ENCODING 88
SWIDTH 570 0
DWIDTH 8 0
BBX 6 8 1 0
BITMAP
CC
CC
78
30
30
78
CC
CC
ENDCHAR
STARTCHAR Y
ENCODING 89
SWIDTH 570 0
DWIDTH 8 0
BBX 6 8 1 0
BITMAP
CC
CC
CC
78
30
30
30
30
ENDCHAR
STARTCHAR Z
ENCODING 90
SWIDTH 570 0
DWIDTH 8 0
BBX 6 8 1 0
BITMAP
FC
0C
1C
38
70
E0
C0
FC
ENDCHAR
STARTCHAR bracketleft
ENCODING 91
SWIDTH 570 0
DWIDTH 8 0
BBX 4 10 2 -1
BITMAP
F0
C0
C0
C0
C0
C0
C0
C0
C0
F0
ENDCHAR
STARTCHAR backslash
ENCODING 92
SWIDTH 570 0
DWIDTH 8 0
BBX 5 8 1 0
BITMAP
C0
C0
60
60
30
30
18
18
ENDCHAR
STARTCHAR bracketright
ENCODING 93
SWIDTH 570 0
DWIDTH 8 0
BBX 4 10 2 -1
BITMAP
F0
30
30
30
30
30
30
30
30
F0
ENDCHAR
STARTCHAR asciicircum
ENCODING 94
SWIDTH 570 0
DWIDTH 8 0
BBX 6 3 1 7
BITMAP
30
78
CC
ENDCHAR
STARTCHAR ldblank
ENCODING 95
SWIDTH 570 0
DWIDTH 8 0
BBX 1 1 0 0
BITMAP
00
ENDCHAR
STARTCHAR diamond
ENCODING 96
SWIDTH 570 0
DWIDTH 8 0
BBX 7 8 1 1
BITMAP
10
38
7C
FE
FE
7C
38
10
ENDCHAR
STARTCHAR checkerboard
ENCODING 97
SWIDTH 570 0
DWIDTH 8 0
BBX 8 14 0 -2
BITMAP
33
CC
CC
33
33
CC
CC
33
33
CC
CC
33
33
CC
ENDCHAR
STARTCHAR HT
ENCODING 98
SWIDTH 570 0
DWIDTH 8 0
BBX 6 13 1 -2
BITMAP
CC
CC
FC
CC
CC
CC
00
FC
30
30
30
30
30
ENDCHAR
STARTCHAR FF
ENCODING 99
SWIDTH 570 0
DWIDTH 8 0
BBX 7 13 1 -2
BITMAP
F8
C0
F0
C0
C0
C0
00
3E
30
3C
30
30
30
ENDCHAR
STARTCHAR CR
ENCODING 100
SWIDTH 570 0
DWIDTH 8 0
BBX 6 13 1 -2
BITMAP
78
C0
C0
C0
C0
78
00
F8
CC
CC
F8
D8
CC
ENDCHAR
STARTCHAR LF
ENCODING 101
SWIDTH 570 0
DWIDTH 8 0
BBX 6 13 1 -2
BITMAP
C0
C0
C0
C0
C0
F8
00
7C
60
78
60
60
60
ENDCHAR
STARTCHAR degree
ENCODING 102
SWIDTH 570 0
DWIDTH 8 0
BBX 5 3 1 6
BITMAP
70
D8
70
ENDCHAR
STARTCHAR plusminus
ENCODING 103
SWIDTH 570 0
DWIDTH 8 0
BBX 6 8 1 1
BITMAP
30
30
FC
30
30
00
FC
FC
ENDCHAR
STARTCHAR NL
ENCODING 104
SWIDTH 570 0
DWIDTH 8 0
BBX 6 13 1 -2
BITMAP
CC
EC
FC
DC
CC
CC
00
60
60
60
60
60
7C
ENDCHAR
STARTCHAR VT
ENCODING 105
SWIDTH 570 0
DWIDTH 8 0
BBX 6 13 1 -2
BITMAP
CC
CC
CC
CC
78
30
00
FC
30
30
30
30
30
ENDCHAR
STARTCHAR ldcornsqlr
ENCODING 106
SWIDTH 570 0
DWIDTH 8 0
BBX 5 8 0 4
BITMAP
18
18
18
18
18
18
F8
F8
ENDCHAR
STARTCHAR ldcornsqur
ENCODING 107
SWIDTH 570 0
DWIDTH 8 0
BBX 5 9 0 -3
BITMAP
F8
F8
18
18
18
18
18
18
18
ENDCHAR
STARTCHAR ldcornsqul
ENCODING 108
SWIDTH 570 0
DWIDTH 8 0
BBX 5 9 3 -3
BITMAP
F8
F8
C0
C0
C0
C0
C0
C0
C0
ENDCHAR
STARTCHAR ldcornsqll
ENCODING 109
SWIDTH 570 0
DWIDTH 8 0
BBX 5 8 3 4
BITMAP
C0
C0
C0
C0
C0
C0
F8
F8
ENDCHAR
STARTCHAR ldcross
ENCODING 110
SWIDTH 570 0
DWIDTH 8 0
BBX 8 15 0 -3
BITMAP
18
18
18
18
18
18
FF
FF
18
18
18
18
18
18
18
ENDCHAR
STARTCHAR ldscan1
ENCODING 111
SWIDTH 570 0
DWIDTH 8 0
BBX 8 2 0 10
BITMAP
FF
FF
ENDCHAR
STARTCHAR ldscan3
ENCODING 112
SWIDTH 570 0
DWIDTH 8 0
BBX 8 2 0 7
BITMAP
FF
FF
ENDCHAR
STARTCHAR ldhorizontal
ENCODING 113
SWIDTH 570 0
DWIDTH 8 0
BBX 8 2 0 4
BITMAP
FF
FF
ENDCHAR
STARTCHAR ldscan7
ENCODING 114
SWIDTH 570 0
DWIDTH 8 0
BBX 8 2 0 1
BITMAP
FF
FF
ENDCHAR
STARTCHAR ldscan9
ENCODING 115
SWIDTH 570 0
DWIDTH 8 0
BBX 8 2 0 -2
BITMAP
FF
FF
ENDCHAR
STARTCHAR ldteelft
ENCODING 116
SWIDTH 570 0
DWIDTH 8 0
BBX 5 15 3 -3
BITMAP
C0
C0
C0
C0
C0
C0
F8
F8
C0
C0
C0
C0
C0
C0
C0
ENDCHAR
STARTCHAR ldteert
ENCODING 117
SWIDTH 570 0
DWIDTH 8 0
BBX 5 15 0 -3
BITMAP
18
18
18
18
18
18
F8
F8
18
18
18
18
18
18
18
ENDCHAR
STARTCHAR ldteebt
ENCODING 118
SWIDTH 570 0
DWIDTH 8 0
BBX 8 8 0 4
BITMAP
18
18
18
18
18
18
FF
FF
ENDCHAR
STARTCHAR ldteetp
ENCODING 119
SWIDTH 570 0
DWIDTH 8 0
BBX 8 9 0 -3
BITMAP
FF
FF
18
18
18
18
18
18
18
ENDCHAR
STARTCHAR ldvertical
ENCODING 120
SWIDTH 570 0
DWIDTH 8 0
BBX 2 15 3 -3
BITMAP
C0
C0
C0
C0
C0
C0
C0
C0
C0
C0
C0
C0
C0
C0
C0
ENDCHAR
STARTCHAR lessequal
ENCODING 121
SWIDTH 570 0
DWIDTH 8 0
BBX 5 10 2 0
BITMAP
18
30
60
C0
60
30
18
00
F8
F8
ENDCHAR
STARTCHAR greaterequal
ENCODING 122
SWIDTH 570 0
DWIDTH 8 0
BBX 5 10 2 0
BITMAP
C0
60
30
18
30
60
C0
00
F8
F8
ENDCHAR
STARTCHAR pi
ENCODING 123
SWIDTH 570 0
DWIDTH 8 0
BBX 7 7 1 0
BITMAP
FE
FE
6C
6C
6C
6C
CC
ENDCHAR
STARTCHAR notequal
ENCODING 124
SWIDTH 570 0
DWIDTH 8 0
BBX 7 8 1 0
BITMAP
06
FE
FE
18
30
FE
FE
C0
ENDCHAR
STARTCHAR sterling
ENCODING 125
SWIDTH 570 0
DWIDTH 8 0
BBX 7 9 1 0
BITMAP
38
6C
60
60
F8
60
60
76
DC
ENDCHAR
STARTCHAR periodcentered
ENCODING 126
SWIDTH 570 0
DWIDTH 8 0
BBX 2 2 3 5
BITMAP
C0
C0
ENDCHAR
STARTCHAR ldradicalbt
ENCODING 161
SWIDTH 570 0
DWIDTH 8 0
BBX 4 12 1 0
BITMAP
30
30
30
30
30
30
30
30
F0
F0
30
10
ENDCHAR
STARTCHAR ldradicaltp
ENCODING 162
SWIDTH 570 0
DWIDTH 8 0
BBX 5 8 3 -3
BITMAP
F8
F8
C0
C0
C0
C0
C0
C0
ENDCHAR
STARTCHAR ldhorizontal
ENCODING 163
SWIDTH 570 0
DWIDTH 8 0
BBX 8 2 0 3
BITMAP
FF
FF
ENDCHAR
STARTCHAR ldintegraltp
ENCODING 164
SWIDTH 570 0
DWIDTH 8 0
BBX 5 12 3 -3
BITMAP
30
78
C8
C0
C0
C0
C0
C0
C0
C0
C0
C0
ENDCHAR
STARTCHAR ldintegralbt
ENCODING 165
SWIDTH 570 0
DWIDTH 8 0
BBX 5 11 0 1
BITMAP
18
18
18
18
18
18
18
18
98
F8
70
ENDCHAR
STARTCHAR ldvertical
ENCODING 166
SWIDTH 570 0
DWIDTH 8 0
BBX 2 15 3 -3
BITMAP
C0
C0
C0
C0
C0
C0
C0
C0
C0
C0
C0
C0
C0
C0
C0
ENDCHAR
STARTCHAR ldbracketlfttp
ENCODING 167
SWIDTH 570 0
DWIDTH 8 0
BBX 5 14 3 -3
BITMAP
F8
F8
C0
C0
C0
C0
C0
C0
C0
C0
C0
C0
C0
C0
ENDCHAR
STARTCHAR ldbracketlftbt
ENCODING 168
SWIDTH 570 0
DWIDTH 8 0
BBX 5 14 3 -2
BITMAP
C0
C0
C0
C0
C0
C0
C0
C0
C0
C0
C0
C0
F8
F8
ENDCHAR
STARTCHAR ldbracketrttp
ENCODING 169
SWIDTH 570 0
DWIDTH 8 0
BBX 4 14 1 -3
BITMAP
F0
F0
30
30
30
30
30
30
30
30
30
30
30
30
ENDCHAR
STARTCHAR ldbracketrtbt
ENCODING 170
SWIDTH 570 0
DWIDTH 8 0
BBX 4 14 1 -2
BITMAP
30
30
30
30
30
30
30
30
30
30
30
30
F0
F0
ENDCHAR
STARTCHAR ldbracelfttp
ENCODING 171
SWIDTH 570 0
DWIDTH 8 0
BBX 5 14 3 -3
BITMAP
78
F8
C0
C0
C0
C0
C0
C0
C0
C0
C0
C0
C0
C0
ENDCHAR
STARTCHAR ldbracelftbt
ENCODING 172
SWIDTH 570 0
DWIDTH 8 0
BBX 5 14 3 -2
BITMAP
C0
C0
C0
C0
C0
C0
C0
C0
C0
C0
C0
C0
F8
78
ENDCHAR
STARTCHAR ldbracerttp
ENCODING 173
SWIDTH 570 0
DWIDTH 8 0
BBX 4 14 1 -3
BITMAP
E0
F0
30
30
30
30
30
30
30
30
30
30
30
30
ENDCHAR
STARTCHAR ldbracertbt
ENCODING 174
SWIDTH 570 0
DWIDTH 8 0
BBX 4 14 1 -2
BITMAP
30
30
30
30
30
30
30
30
30
30
30
30
F0
E0
ENDCHAR
STARTCHAR ldbracelftmid
ENCODING 175
SWIDTH 570 0
DWIDTH 8 0
BBX 4 15 1 -3
BITMAP
30
30
30
30
30
30
60
C0
60
30
30
30
30
30
30
ENDCHAR
STARTCHAR ldbracertmid
ENCODING 176
SWIDTH 570 0
DWIDTH 8 0
BBX 4 15 3 -3
BITMAP
C0
C0
C0
C0
C0
C0
60
30
60
C0
C0
C0
C0
C0
C0
ENDCHAR
STARTCHAR ldsigmalfttp
ENCODING 177
SWIDTH 570 0
DWIDTH 8 0
BBX 5 9 3 -3
BITMAP
F8
F8
40
60
20
30
10
18
08
ENDCHAR
STARTCHAR ldsigmalftbt
ENCODING 178
SWIDTH 570 0
DWIDTH 8 0
BBX 5 8 3 4
BITMAP
08
18
10
30
20
60
F8
F8
ENDCHAR
STARTCHAR ldbackslash
ENCODING 179
SWIDTH 570 0
DWIDTH 8 0
BBX 8 15 0 -3
BITMAP
80
C0
40
60
20
30
10
18
08
0C
04
06
02
03
01
ENDCHAR
STARTCHAR ldslash
ENCODING 180
SWIDTH 570 0
DWIDTH 8 0
BBX 8 15 0 -3
BITMAP
01
03
02
06
04
0C
08
18
10
30
20
60
40
C0
80
ENDCHAR
STARTCHAR ldsigmarttp
ENCODING 181
SWIDTH 570 0
DWIDTH 8 0
BBX 7 4 0 1
BITMAP
FE
FE
02
02
ENDCHAR
STARTCHAR ldsigmartbt
ENCODING 182
SWIDTH 570 0
DWIDTH 8 0
BBX 7 4 0 3
BITMAP
02
02
FE
FE
ENDCHAR
STARTCHAR ldsigmamid
ENCODING 183
SWIDTH 570 0
DWIDTH 8 0
BBX 4 15 0 -3
BITMAP
80
80
C0
40
60
20
30
10
10
30
20
60
40
C0
80
ENDCHAR
STARTCHAR lessequal
ENCODING 188
SWIDTH 570 0
DWIDTH 8 0
BBX 5 8 2 0
BITMAP
08
18
30
60
F8
00
F8
F8
ENDCHAR
STARTCHAR notequal
ENCODING 189
SWIDTH 570 0
DWIDTH 8 0
BBX 5 7 2 -1
BITMAP
10
F8
F8
20
F8
F8
40
ENDCHAR
STARTCHAR greaterequal
ENCODING 190
SWIDTH 570 0
DWIDTH 8 0
BBX 5 8 1 0
BITMAP
80
C0
60
30
F8
00
F8
F8
ENDCHAR
STARTCHAR integral
ENCODING 191
SWIDTH 570 0
DWIDTH 8 0
BBX 6 12 1 -1
BITMAP
18
34
30
30
30
30
30
30
30
30
B0
60
ENDCHAR
STARTCHAR therefore
ENCODING 192
SWIDTH 570 0
DWIDTH 8 0
BBX 6 7 1 1
BITMAP
30
30
00
00
00
CC
CC
ENDCHAR
STARTCHAR proportional
ENCODING 193
SWIDTH 570 0
DWIDTH 8 0
BBX 6 5 1 1
BITMAP
6C
B8
90
B8
6C
ENDCHAR
STARTCHAR infinity
ENCODING 194
SWIDTH 570 0
DWIDTH 8 0
BBX 6 6 1 1
BITMAP
58
FC
A4
A4
FC
58
ENDCHAR
STARTCHAR divide
ENCODING 195
SWIDTH 570 0
DWIDTH 8 0
BBX 5 8 2 0
BITMAP
20
20
00
F8
F8
00
20
20
ENDCHAR
STARTCHAR Delta
ENCODING 196
SWIDTH 570 0
DWIDTH 8 0
BBX 7 6 1 1
BITMAP
10
28
44
82
FE
FE
ENDCHAR
STARTCHAR gradient
ENCODING 197
SWIDTH 570 0
DWIDTH 8 0
BBX 7 6 1 1
BITMAP
FE
FE
82
44
28
10
ENDCHAR
STARTCHAR Phi
ENCODING 198
SWIDTH 570 0
DWIDTH 8 0
BBX 7 9 1 0
BITMAP
38
38
10
7C
D6
7C
10
38
38
ENDCHAR
STARTCHAR Gamma
ENCODING 199
SWIDTH 570 0
DWIDTH 8 0
BBX 5 9 2 0
BITMAP
F8
F8
48
40
40
40
40
E0
E0
ENDCHAR
STARTCHAR similar
ENCODING 200
SWIDTH 570 0
DWIDTH 8 0
BBX 6 4 1 2
BITMAP
44
E4
BC
98
ENDCHAR
STARTCHAR approxequal
ENCODING 201
SWIDTH 570 0
DWIDTH 8 0
BBX 6 7 1 0
BITMAP
44
E4
BC
98
00
FC
FC
ENDCHAR
STARTCHAR Theta
ENCODING 202
SWIDTH 570 0
DWIDTH 8 0
BBX 6 9 1 0
BITMAP
30
78
CC
84
B4
84
CC
78
30
ENDCHAR
STARTCHAR multiply
ENCODING 203
SWIDTH 570 0
DWIDTH 8 0
BBX 5 6 2 1
BITMAP
88
D8
70
70
D8
88
ENDCHAR
STARTCHAR Lambda
ENCODING 204
SWIDTH 570 0
DWIDTH 8 0
BBX 7 8 1 0
BITMAP
10
38
6C
6C
6C
6C
6C
EE
ENDCHAR
STARTCHAR arrowdblboth
ENCODING 205
SWIDTH 570 0
DWIDTH 8 0
BBX 6 9 1 0
BITMAP
48
84
FC
FC
00
FC
FC
84
48
ENDCHAR
STARTCHAR arrowdblright
ENCODING 206
SWIDTH 570 0
DWIDTH 8 0
BBX 7 9 1 0
BITMAP
20
10
F8
FC
06
FC
F8
10
20
ENDCHAR
STARTCHAR equivalence
ENCODING 207
SWIDTH 570 0
DWIDTH 8 0
BBX 6 7 1 1
BITMAP
FC
FC
00
FC
00
FC
FC
ENDCHAR
STARTCHAR Pi
ENCODING 208
SWIDTH 570 0
DWIDTH 8 0
BBX 7 9 1 0
BITMAP
FE
6C
6C
6C
6C
6C
6C
6C
6C
ENDCHAR
STARTCHAR Psi
ENCODING 209
SWIDTH 570 0
DWIDTH 8 0
BBX 7 9 1 0
BITMAP
D6
D6
54
54
7C
38
10
38
38
ENDCHAR
STARTCHAR Sigma
ENCODING 211
SWIDTH 570 0
DWIDTH 8 0
BBX 6 9 1 0
BITMAP
FC
FC
C4
64
30
30
64
FC
FC
ENDCHAR
STARTCHAR radical
ENCODING 214
SWIDTH 570 0
DWIDTH 8 0
BBX 8 8 0 0
BITMAP
01
03
06
04
CC
58
30
30
ENDCHAR
STARTCHAR Omega
ENCODING 215
SWIDTH 570 0
DWIDTH 8 0
BBX 7 9 1 0
BITMAP
38
7C
C6
C6
C6
C6
6C
6C
EE
ENDCHAR
STARTCHAR Xi
ENCODING 216
SWIDTH 570 0
DWIDTH 8 0
BBX 7 7 1 0
BITMAP
FE
FE
00
7C
00
FE
FE
ENDCHAR
STARTCHAR Upsilon1
ENCODING 217
SWIDTH 570 0
DWIDTH 8 0
BBX 6 9 1 0
BITMAP
CC
48
48
48
30
30
30
30
30
ENDCHAR
STARTCHAR propersubset
ENCODING 218
SWIDTH 570 0
DWIDTH 8 0
BBX 6 7 1 0
BITMAP
7C
FC
C0
C0
C0
FC
7C
ENDCHAR
STARTCHAR propersuperset
ENCODING 219
SWIDTH 570 0
DWIDTH 8 0
BBX 6 7 1 0
BITMAP
F8
FC
0C
0C
0C
FC
F8
ENDCHAR
STARTCHAR intersection
ENCODING 220
SWIDTH 570 0
DWIDTH 8 0
BBX 6 7 1 0
BITMAP
78
FC
CC
CC
CC
CC
CC
ENDCHAR
STARTCHAR union
ENCODING 221
SWIDTH 570 0
DWIDTH 8 0
BBX 6 7 1 0
BITMAP
CC
CC
CC
CC
CC
FC
78
ENDCHAR
STARTCHAR logicaland
ENCODING 222
SWIDTH 570 0
DWIDTH 8 0
BBX 7 6 1 0
BITMAP
10
38
6C
6C
C6
C6
ENDCHAR
STARTCHAR logicalor
ENCODING 223
SWIDTH 570 0
DWIDTH 8 0
BBX 7 6 1 0
BITMAP
C6
6C
6C
6C
38
10
ENDCHAR
STARTCHAR logicalnot
ENCODING 224
SWIDTH 570 0
DWIDTH 8 0
BBX 6 4 1 2
BITMAP
FC
FC
04
04
ENDCHAR
STARTCHAR alpha
ENCODING 225
SWIDTH 570 0
DWIDTH 8 0
BBX 7 6 1 0
BITMAP
72
FE
CC
CC
FC
76
ENDCHAR
STARTCHAR beta
ENCODING 226
SWIDTH 570 0
DWIDTH 8 0
BBX 6 9 1 0
BITMAP
1C
34
34
38
38
6C
6C
FC
B8
ENDCHAR
STARTCHAR chi
ENCODING 227
SWIDTH 570 0
DWIDTH 8 0
BBX 6 8 1 -2
BITMAP
C4
64
3C
18
18
3C
64
C4
ENDCHAR
STARTCHAR delta
ENCODING 228
SWIDTH 570 0
DWIDTH 8 0
BBX 6 8 1 0
BITMAP
18
3C
24
70
D8
98
D8
70
ENDCHAR
STARTCHAR epsilon
ENCODING 229
SWIDTH 570 0
DWIDTH 8 0
BBX 4 7 1 0
BITMAP
70
F0
C0
F0
C0
F0
70
ENDCHAR
STARTCHAR phi
ENCODING 230
SWIDTH 570 0
DWIDTH 8 0
BBX 6 8 1 -1
BITMAP
08
78
FC
94
A4
FC
78
40
ENDCHAR
STARTCHAR gamma
ENCODING 231
SWIDTH 570 0
DWIDTH 8 0
BBX 7 9 1 -1
BITMAP
60
B0
36
16
14
1C
38
70
60
ENDCHAR
STARTCHAR eta
ENCODING 232
SWIDTH 570 0
DWIDTH 8 0
BBX 6 8 1 -2
BITMAP
98
7C
6C
6C
6C
6C
0C
0C
ENDCHAR
STARTCHAR iota
ENCODING 233
SWIDTH 570 0
DWIDTH 8 0
BBX 5 6 2 0
BITMAP
C0
C0
C0
C8
D8
70
ENDCHAR
STARTCHAR theta
ENCODING 234
SWIDTH 570 0
DWIDTH 8 0
BBX 5 8 2 0
BITMAP
70
F8
D8
F8
D8
D8
F8
70
ENDCHAR
STARTCHAR kappa
ENCODING 235
SWIDTH 570 0
DWIDTH 8 0
BBX 6 7 1 0
BITMAP
E0
64
6C
78
70
7C
6C
ENDCHAR
STARTCHAR lambda
ENCODING 236
SWIDTH 570 0
DWIDTH 8 0
BBX 6 8 1 0
BITMAP
60
70
18
18
1C
34
E4
C4
ENDCHAR
STARTCHAR nu
ENCODING 238
SWIDTH 570 0
DWIDTH 8 0
BBX 7 7 1 0
BITMAP
C0
66
66
66
66
6C
F0
ENDCHAR
STARTCHAR partialdiff
ENCODING 239
SWIDTH 570 0
DWIDTH 8 0
BBX 6 8 2 0
BITMAP
C0
70
38
3C
6C
6C
7C
38
ENDCHAR
STARTCHAR pi
ENCODING 240
SWIDTH 570 0
DWIDTH 8 0
BBX 7 6 1 0
BITMAP
FE
6C
6C
6C
6C
CC
ENDCHAR
STARTCHAR psi
ENCODING 241
SWIDTH 570 0
DWIDTH 8 0
BBX 8 8 0 -1
BITMAP
18
99
DB
7E
3C
18
18
18
ENDCHAR
STARTCHAR rho
ENCODING 242
SWIDTH 570 0
DWIDTH 8 0
BBX 6 7 1 0
BITMAP
18
3C
64
4C
F8
C0
80
ENDCHAR
STARTCHAR sigma
ENCODING 243
SWIDTH 570 0
DWIDTH 8 0
BBX 6 6 1 0
BITMAP
3C
70
D8
D8
F8
70
ENDCHAR
STARTCHAR tau
ENCODING 244
SWIDTH 570 0
DWIDTH 8 0
BBX 6 7 1 0
BITMAP
04
7C
F8
B0
30
30
38
ENDCHAR
STARTCHAR florin
ENCODING 246
SWIDTH 570 0
DWIDTH 8 0
BBX 7 12 1 -2
BITMAP
1C
3E
32
30
78
30
30
30
30
B0
B0
60
ENDCHAR
STARTCHAR omega
ENCODING 247
SWIDTH 570 0
DWIDTH 8 0
BBX 7 6 1 0
BITMAP
44
C6
D6
D6
D6
6C
ENDCHAR
STARTCHAR xi
ENCODING 248
SWIDTH 570 0
DWIDTH 8 0
BBX 6 11 1 0
BITMAP
40
80
F8
78
20
78
78
C0
C0
FC
7C
ENDCHAR
STARTCHAR upsilon
ENCODING 249
SWIDTH 570 0
DWIDTH 8 0
BBX 6 7 1 0
BITMAP
C0
CC
4C
4C
4C
4C
38
ENDCHAR
STARTCHAR zeta
ENCODING 250
SWIDTH 570 0
DWIDTH 8 0
BBX 6 13 1 -2
BITMAP
40
80
F8
78
30
60
60
C0
C0
F8
7C
04
18
ENDCHAR
STARTCHAR arrowleft
ENCODING 251
SWIDTH 570 0
DWIDTH 8 0
BBX 7 7 1 1
BITMAP
10
30
7E
FE
7E
30
10
ENDCHAR
STARTCHAR arrowup
ENCODING 252
SWIDTH 570 0
DWIDTH 8 0
BBX 7 8 1 0
BITMAP
10
38
7C
FE
38
38
38
38
ENDCHAR
STARTCHAR arrowright
ENCODING 253
SWIDTH 570 0
DWIDTH 8 0
BBX 7 7 0 1
BITMAP
10
18
FC
FE
FC
18
10
ENDCHAR
STARTCHAR arrowdown
ENCODING 254
SWIDTH 570 0
DWIDTH 8 0
BBX 7 8 0 1
BITMAP
38
38
38
38
FE
7C
38
10
ENDCHAR
ENDFONT
