#define queen_small_outline_width 64
#define queen_small_outline_height 64
static char queen_small_outline_bits[] = {
   0x00, 0x00, 0x00, 0x00, 0x00, 0x00, 0x00, 0x00, 0x00, 0x00, 0x00, 0xc0,
   0x01, 0x00, 0x00, 0x00, 0x00, 0x00, 0x00, 0x60, 0x03, 0x00, 0x00, 0x00,
   0x00, 0x00, 0x00, 0x20, 0x02, 0x00, 0x00, 0x00, 0x00, 0x00, 0x00, 0x60,
   0x03, 0x00, 0x00, 0x00, 0x00, 0x00, 0x00, 0xc0, 0x01, 0x00, 0x00, 0x00,
   0x00, 0x00, 0x00, 0x80, 0x01, 0x00, 0x00, 0x00, 0x00, 0x00, 0x0e, 0x80,
   0x01, 0x70, 0x00, 0x00, 0x00, 0x00, 0x1b, 0x80, 0x01, 0xd8, 0x00, 0x00,
   0x00, 0x00, 0x11, 0x80, 0x01, 0x88, 0x00, 0x00, 0x00, 0x00, 0x1b, 0xc0,
   0x03, 0xd8, 0x00, 0x00, 0x00, 0x00, 0x0e, 0x40, 0x02, 0x70, 0x00, 0x00,
   0x00, 0x00, 0x04, 0x40, 0x02, 0x20, 0x00, 0x00, 0x00, 0x00, 0x04, 0x40,
   0x02, 0x20, 0x00, 0x00, 0x00, 0x00, 0x0c, 0x40, 0x02, 0x30, 0x00, 0x00,
   0x00, 0x00, 0x0c, 0x40, 0x02, 0x30, 0x00, 0x00, 0x00, 0x00, 0x0c, 0x40,
   0x02, 0x50, 0x00, 0x00, 0x1c, 0x00, 0x1c, 0x20, 0x04, 0x58, 0x00, 0x00,
   0x36, 0x00, 0x14, 0x20, 0x04, 0x48, 0x00, 0x07, 0x22, 0x00, 0x14, 0x20,
   0x04, 0x48, 0x80, 0x0d, 0x36, 0x00, 0x24, 0x20, 0x04, 0x44, 0x80, 0x08,
   0x1c, 0x00, 0x24, 0x20, 0x04, 0x44, 0x80, 0x0d, 0x30, 0x00, 0x24, 0x20,
   0x04, 0x44, 0x00, 0x07, 0x30, 0x00, 0x44, 0x20, 0x04, 0x42, 0x00, 0x06,
   0x60, 0x00, 0x44, 0x20, 0x04, 0x42, 0x00, 0x02, 0xe0, 0x00, 0x44, 0x20,
   0x04, 0x42, 0x00, 0x03, 0xa0, 0x01, 0x44, 0x20, 0x04, 0x42, 0x80, 0x02,
   0x20, 0x01, 0xc4, 0x20, 0x04, 0x43, 0xc0, 0x02, 0x20, 0x03, 0x84, 0x20,
   0x04, 0x41, 0x40, 0x02, 0x20, 0x02, 0x84, 0x20, 0x04, 0x41, 0x20, 0x02,
   0x20, 0x04, 0x04, 0x31, 0x8c, 0x40, 0x20, 0x02, 0x40, 0x04, 0x04, 0x11,
   0x88, 0x40, 0x30, 0x02, 0x40, 0x08, 0x04, 0x13, 0xc8, 0x40, 0x18, 0x02,
   0x40, 0x18, 0x04, 0x12, 0x48, 0x40, 0x08, 0x02, 0x40, 0x10, 0x04, 0x12,
   0x48, 0x40, 0x0c, 0x02, 0x40, 0x20, 0x04, 0x12, 0x48, 0x40, 0x04, 0x03,
   0x40, 0x40, 0x04, 0x14, 0x28, 0x40, 0x02, 0x01, 0xc0, 0x40, 0x04, 0x0c,
   0x30, 0x40, 0x03, 0x01, 0x80, 0x80, 0x04, 0x00, 0x00, 0xc0, 0x01, 0x01,
   0x80, 0x80, 0x07, 0x00, 0x00, 0x40, 0x00, 0x01, 0x80, 0x00, 0x00, 0x00,
   0x00, 0x40, 0x00, 0x01, 0x80, 0x00, 0x00, 0x00, 0x00, 0x00, 0x00, 0x01,
   0x00, 0x01, 0x00, 0x00, 0x00, 0x00, 0x80, 0x00, 0x00, 0x01, 0x00, 0x00,
   0x00, 0x00, 0x80, 0x00, 0x00, 0x01, 0x00, 0x00, 0x00, 0x00, 0x80, 0x00,
   0x00, 0x01, 0x00, 0xf0, 0x1f, 0x00, 0x80, 0x00, 0x00, 0x02, 0xe0, 0x0f,
   0xe0, 0x07, 0xc0, 0x00, 0x00, 0xc2, 0x3f, 0x80, 0x01, 0xfc, 0x43, 0x00,
   0x00, 0x34, 0x00, 0xe0, 0x07, 0x00, 0x2c, 0x00, 0x00, 0x88, 0x01, 0xe0,
   0x07, 0x80, 0x11, 0x00, 0x00, 0xe8, 0x07, 0x80, 0x01, 0xe0, 0x17, 0x00,
   0x00, 0xc8, 0x03, 0x00, 0x00, 0xc0, 0x13, 0x00, 0x00, 0x98, 0x01, 0xfc,
   0x3f, 0x80, 0x19, 0x00, 0x00, 0x10, 0xf8, 0x07, 0xe0, 0x1f, 0x08, 0x00,
   0x00, 0xd0, 0x07, 0x00, 0x00, 0xe0, 0x0b, 0x00, 0x00, 0x10, 0x00, 0x00,
   0x00, 0x00, 0x08, 0x00, 0x00, 0x18, 0x00, 0x00, 0x00, 0x00, 0x18, 0x00,
   0x00, 0x08, 0x00, 0x00, 0x00, 0x00, 0x10, 0x00, 0x00, 0x08, 0x00, 0x00,
   0x00, 0x00, 0x10, 0x00, 0x00, 0xfc, 0xff, 0xff, 0xff, 0xff, 0x3f, 0x00,
   0x00, 0x00, 0x00, 0x00, 0x00, 0x00, 0x00, 0x00, 0x00, 0x00, 0x00, 0x00,
   0x00, 0x00, 0x00, 0x00, 0x00, 0x00, 0x00, 0x00, 0x00, 0x00, 0x00, 0x00,
   0x00, 0x00, 0x00, 0x00, 0x00, 0x00, 0x00, 0x00};
