#define rook_small_outline_width 64
#define rook_small_outline_height 64
static char rook_small_outline_bits[] = {
   0x00, 0x00, 0x00, 0x00, 0x00, 0x00, 0x00, 0x00, 0x00, 0x00, 0x00, 0x00,
   0x00, 0x00, 0x00, 0x00, 0x00, 0x00, 0xf0, 0xff, 0xff, 0x7f, 0x00, 0x00,
   0x00, 0x00, 0x0e, 0x10, 0x40, 0xc0, 0x03, 0x00, 0x00, 0xf0, 0x0b, 0x10,
   0x40, 0x40, 0x3e, 0x00, 0x00, 0x18, 0x08, 0x10, 0x40, 0x40, 0x60, 0x00,
   0x00, 0x08, 0x08, 0x10, 0x40, 0x40, 0x40, 0x00, 0x00, 0x08, 0x08, 0x1c,
   0xc0, 0x41, 0x40, 0x00, 0x00, 0x08, 0xf8, 0x07, 0x00, 0x7f, 0x40, 0x00,
   0x00, 0x08, 0x18, 0x00, 0x00, 0x60, 0x40, 0x00, 0x00, 0x08, 0x80, 0xff,
   0xff, 0x0f, 0x40, 0x00, 0x00, 0x08, 0x7c, 0x04, 0x80, 0xf8, 0x41, 0x00,
   0x00, 0xf8, 0x07, 0x04, 0x80, 0x00, 0x7f, 0x00, 0x00, 0x00, 0x04, 0x04,
   0x80, 0x00, 0x01, 0x00, 0x00, 0x00, 0x04, 0x04, 0x80, 0x00, 0x01, 0x00,
   0x00, 0x00, 0x04, 0x04, 0x80, 0x00, 0x01, 0x00, 0x00, 0x00, 0x04, 0x04,
   0x80, 0x00, 0x01, 0x00, 0x00, 0x00, 0x04, 0x04, 0x80, 0x00, 0x01, 0x00,
   0x00, 0x00, 0x04, 0x04, 0x80, 0x00, 0x01, 0x00, 0x00, 0x00, 0x04, 0x04,
   0x80, 0x00, 0x01, 0x00, 0x00, 0x00, 0x04, 0xff, 0xff, 0x03, 0x01, 0x00,
   0x00, 0x00, 0xfc, 0x01, 0x01, 0xfe, 0x01, 0x00, 0x00, 0x00, 0x04, 0x00,
   0x01, 0x00, 0x01, 0x00, 0x00, 0x00, 0x04, 0x00, 0x01, 0x00, 0x01, 0x00,
   0x00, 0x00, 0x04, 0x00, 0x01, 0x00, 0x01, 0x00, 0x00, 0x00, 0x04, 0x00,
   0x01, 0x00, 0x01, 0x00, 0x00, 0x00, 0x04, 0x00, 0x01, 0x00, 0x01, 0x00,
   0x00, 0x00, 0x04, 0x00, 0x01, 0x00, 0x01, 0x00, 0x00, 0x00, 0x04, 0x00,
   0x01, 0x00, 0x01, 0x00, 0x00, 0x00, 0x04, 0x00, 0x01, 0x00, 0x01, 0x00,
   0x00, 0x00, 0x04, 0xe0, 0x3f, 0x00, 0x01, 0x00, 0x00, 0x00, 0xfc, 0x3f,
   0xe0, 0xff, 0x01, 0x00, 0x00, 0x00, 0x04, 0x04, 0x80, 0x00, 0x01, 0x00,
   0x00, 0x00, 0x04, 0x04, 0x80, 0x00, 0x01, 0x00, 0x00, 0x00, 0x04, 0x04,
   0x80, 0x00, 0x01, 0x00, 0x00, 0x00, 0x04, 0x04, 0x80, 0x00, 0x01, 0x00,
   0x00, 0x00, 0x04, 0x04, 0x80, 0x00, 0x01, 0x00, 0x00, 0x00, 0x04, 0x04,
   0x80, 0x00, 0x01, 0x00, 0x00, 0x00, 0x04, 0x04, 0x80, 0x00, 0x01, 0x00,
   0x00, 0x00, 0x04, 0x04, 0x80, 0x00, 0x01, 0x00, 0x00, 0x00, 0x04, 0x04,
   0x80, 0x00, 0x01, 0x00, 0x00, 0x00, 0xfc, 0xff, 0xff, 0xff, 0x01, 0x00,
   0x00, 0x00, 0x04, 0x00, 0x02, 0x00, 0x01, 0x00, 0x00, 0x00, 0x04, 0x00,
   0x02, 0x00, 0x01, 0x00, 0x00, 0x00, 0x04, 0x00, 0x02, 0x00, 0x01, 0x00,
   0x00, 0x00, 0x04, 0x00, 0x02, 0x00, 0x01, 0x00, 0x00, 0x00, 0x04, 0x00,
   0x02, 0x00, 0x01, 0x00, 0x00, 0x00, 0x04, 0x00, 0x02, 0x00, 0x01, 0x00,
   0x00, 0x00, 0x04, 0x00, 0x02, 0x00, 0x01, 0x00, 0x00, 0x00, 0x04, 0x00,
   0x02, 0x00, 0x01, 0x00, 0x00, 0x00, 0x04, 0x00, 0x02, 0x00, 0x01, 0x00,
   0x00, 0x00, 0xfc, 0xff, 0xff, 0xff, 0x01, 0x00, 0x00, 0x80, 0x03, 0x00,
   0x00, 0x00, 0x0f, 0x00, 0x00, 0xc0, 0x00, 0x00, 0x00, 0x00, 0x18, 0x00,
   0x00, 0x40, 0x00, 0x00, 0x00, 0x00, 0x10, 0x00, 0x00, 0x40, 0x00, 0x00,
   0x00, 0x00, 0x10, 0x00, 0x00, 0xf0, 0xff, 0xff, 0xff, 0xff, 0x3f, 0x00,
   0x00, 0x18, 0x00, 0x00, 0x00, 0x00, 0x60, 0x00, 0x00, 0x0c, 0x00, 0x00,
   0x00, 0x00, 0xc0, 0x00, 0x00, 0x04, 0x00, 0x00, 0x00, 0x00, 0x80, 0x00,
   0x00, 0x04, 0x00, 0x00, 0x00, 0x00, 0x80, 0x00, 0x00, 0xfc, 0xff, 0xff,
   0xff, 0xff, 0xff, 0x00, 0x00, 0x00, 0x00, 0x00, 0x00, 0x00, 0x00, 0x00,
   0x00, 0x00, 0x00, 0x00, 0x00, 0x00, 0x00, 0x00};
