#define bishop_small_outline_width 64
#define bishop_small_outline_height 64
static char bishop_small_outline_bits[] = {
   0x00, 0x00, 0x00, 0x00, 0x00, 0x00, 0x00, 0x00, 0x00, 0x00, 0x00, 0x00,
   0x00, 0x00, 0x00, 0x00, 0x00, 0x00, 0x00, 0x80, 0xc7, 0x03, 0x00, 0x00,
   0x00, 0x00, 0x00, 0x80, 0x44, 0x02, 0x00, 0x00, 0x00, 0x00, 0x00, 0x80,
   0x47, 0x02, 0x00, 0x00, 0x00, 0x00, 0x00, 0x00, 0xc3, 0x03, 0x00, 0x00,
   0x00, 0x00, 0x00, 0x00, 0x27, 0x01, 0x00, 0x00, 0x00, 0x00, 0x00, 0xc0,
   0x1c, 0x02, 0x00, 0x00, 0x00, 0x00, 0x00, 0x40, 0x38, 0x02, 0x00, 0x00,
   0x00, 0x00, 0x00, 0x20, 0x20, 0x04, 0x00, 0x00, 0x00, 0x00, 0x00, 0x10,
   0x20, 0x04, 0x00, 0x00, 0x00, 0x00, 0x00, 0x18, 0x40, 0x04, 0x00, 0x00,
   0x00, 0x00, 0x00, 0x0c, 0xc0, 0x04, 0x00, 0x00, 0x00, 0x00, 0x00, 0x04,
   0x80, 0x0c, 0x00, 0x00, 0x00, 0x00, 0x00, 0x04, 0x07, 0x09, 0x00, 0x00,
   0x00, 0x00, 0x00, 0x02, 0x05, 0x09, 0x00, 0x00, 0x00, 0x00, 0x00, 0xc2,
   0x1d, 0x0a, 0x00, 0x00, 0x00, 0x00, 0x00, 0x41, 0x10, 0x0a, 0x00, 0x00,
   0x00, 0x00, 0x80, 0xc1, 0x1d, 0x0c, 0x00, 0x00, 0x00, 0x00, 0x80, 0x00,
   0x05, 0x08, 0x00, 0x00, 0x00, 0x00, 0x80, 0x00, 0x05, 0x08, 0x00, 0x00,
   0x00, 0x00, 0x80, 0x00, 0x05, 0x08, 0x00, 0x00, 0x00, 0x00, 0xc0, 0x00,
   0x05, 0x08, 0x00, 0x00, 0x00, 0x00, 0x40, 0x00, 0x07, 0x18, 0x00, 0x00,
   0x00, 0x00, 0x40, 0x00, 0x00, 0x10, 0x00, 0x00, 0x00, 0x00, 0x40, 0x00,
   0x00, 0x10, 0x00, 0x00, 0x00, 0x00, 0x40, 0x00, 0x00, 0x10, 0x00, 0x00,
   0x00, 0x00, 0x40, 0x00, 0x00, 0x18, 0x00, 0x00, 0x00, 0x00, 0x40, 0x00,
   0x00, 0x08, 0x00, 0x00, 0x00, 0x00, 0x40, 0x00, 0x00, 0x08, 0x00, 0x00,
   0x00, 0x00, 0xc0, 0x00, 0x00, 0x08, 0x00, 0x00, 0x00, 0x00, 0x80, 0x00,
   0x00, 0x04, 0x00, 0x00, 0x00, 0x00, 0x80, 0x01, 0x00, 0x04, 0x00, 0x00,
   0x00, 0x00, 0x00, 0x01, 0x00, 0x02, 0x00, 0x00, 0x00, 0x00, 0x00, 0x03,
   0x00, 0x02, 0x00, 0x00, 0x00, 0x00, 0x00, 0x02, 0x00, 0x02, 0x00, 0x00,
   0x00, 0x00, 0x00, 0x06, 0x00, 0x01, 0x00, 0x00, 0x00, 0x00, 0x00, 0xfc,
   0xff, 0x01, 0x00, 0x00, 0x00, 0x00, 0x00, 0x04, 0x00, 0x01, 0x00, 0x00,
   0x00, 0x00, 0x00, 0xfc, 0xff, 0x01, 0x00, 0x00, 0x00, 0x00, 0x00, 0x04,
   0x83, 0x00, 0x00, 0x00, 0x00, 0x00, 0x00, 0x8c, 0xc7, 0x00, 0x00, 0x00,
   0x00, 0x00, 0x00, 0x9c, 0xe4, 0x00, 0x00, 0x00, 0x00, 0x00, 0x00, 0x8c,
   0xc7, 0x00, 0x00, 0x00, 0x00, 0x00, 0x00, 0x04, 0x83, 0x01, 0x00, 0x00,
   0x00, 0x00, 0x00, 0xfc, 0xff, 0x01, 0x00, 0x00, 0x00, 0x00, 0x00, 0x02,
   0x00, 0x01, 0x00, 0x00, 0x00, 0x00, 0x00, 0x02, 0x00, 0x01, 0x00, 0x00,
   0x00, 0x00, 0x00, 0x02, 0x00, 0x03, 0x00, 0x00, 0x00, 0x00, 0x00, 0xff,
   0xff, 0x03, 0x00, 0x00, 0x00, 0x00, 0x00, 0x80, 0x04, 0x00, 0x00, 0x00,
   0x00, 0x00, 0x00, 0xc0, 0x0c, 0x00, 0x00, 0x00, 0x00, 0x00, 0x00, 0x40,
   0x18, 0x00, 0x00, 0x00, 0x00, 0x00, 0x00, 0x20, 0x30, 0x00, 0x00, 0x00,
   0x00, 0x80, 0x7f, 0x18, 0x63, 0xf0, 0x0f, 0x00, 0x00, 0xe0, 0xc0, 0x8f,
   0xc4, 0x0f, 0x38, 0x00, 0x00, 0x38, 0x00, 0x40, 0x04, 0x00, 0xe0, 0x00,
   0x00, 0x0c, 0x00, 0x20, 0x08, 0x00, 0x80, 0x01, 0x00, 0xe8, 0xff, 0x1f,
   0xf0, 0xff, 0xbf, 0x00, 0x00, 0x18, 0x00, 0x00, 0x00, 0x00, 0xc0, 0x00,
   0x00, 0x08, 0x00, 0x00, 0x00, 0x00, 0x80, 0x00, 0x00, 0x00, 0x00, 0x00,
   0x00, 0x00, 0x00, 0x00, 0x00, 0x00, 0x00, 0x00, 0x00, 0x00, 0x00, 0x00,
   0x00, 0x00, 0x00, 0x00, 0x00, 0x00, 0x00, 0x00};
