#define king_small_outline_width 64
#define king_small_outline_height 64
static char king_small_outline_bits[] = {
 0x01,0x00,0x00,0x00,0x00,0x00,0x00,0x00,0x01,0x00,0x00,0xc0,0x03,0x00,0x00,
 0x00,0x01,0x00,0x00,0x60,0x0c,0x00,0x00,0x00,0x01,0x00,0x00,0x20,0x08,0x00,
 0x00,0x00,0x01,0x00,0x00,0x20,0x08,0x00,0x00,0x00,0x01,0x00,0x00,0x60,0x0c,
 0x00,0x00,0x00,0x01,0x00,0x00,0x40,0x00,0x00,0x00,0x00,0x01,0x00,0x00,0x70,
 0x1c,0x00,0x00,0x00,0x01,0x00,0x00,0x10,0x10,0x00,0x00,0x00,0x01,0xff,0x01,
 0x18,0x30,0xc0,0xff,0x00,0x81,0x00,0x06,0x88,0x23,0x30,0x00,0x01,0x41,0x00,
 0x1c,0x48,0x22,0x1c,0x00,0x02,0x21,0x00,0x30,0x48,0x20,0x04,0x00,0x04,0x11,
 0x00,0x40,0xc8,0x22,0x02,0x38,0x08,0x19,0x0c,0x83,0x99,0xb3,0x81,0xc0,0x18,
 0x09,0x02,0x0c,0x13,0x90,0x30,0x80,0x18,0x09,0x03,0x18,0x12,0xd0,0x18,0x80,
 0x11,0x0d,0x01,0x10,0x94,0x53,0x00,0x00,0x31,0x85,0x00,0x20,0x7c,0x3e,0x04,
 0x00,0x23,0x85,0x00,0x40,0x30,0x0c,0x04,0x00,0x22,0x85,0x00,0xc0,0x00,0x00,
 0x02,0x1c,0x22,0xc1,0x38,0x80,0x00,0x01,0x41,0x1c,0x02,0x41,0x38,0x08,0x81,
 0x83,0x41,0x1c,0x02,0x41,0x78,0x04,0x81,0x83,0x40,0x04,0x02,0x45,0x40,0x04,
 0x02,0x41,0x40,0x02,0x22,0x45,0xc0,0x00,0x02,0x40,0x40,0x13,0x22,0x45,0x88,
 0x00,0x00,0x00,0x40,0x0f,0x23,0x45,0xb8,0x01,0x04,0x00,0xc0,0x05,0x21,0x05,
 0xe0,0x03,0x04,0x21,0xc0,0x03,0x21,0x89,0x80,0x03,0x8c,0x23,0xc0,0x01,0x31,
 0x89,0x00,0x02,0x88,0x23,0xc0,0x80,0x11,0x89,0x01,0x02,0x08,0x21,0x40,0x80,
 0x10,0x09,0x01,0x04,0x18,0x10,0x20,0x80,0x18,0x19,0x03,0x0c,0x10,0x10,0x20,
 0x80,0x18,0x11,0x02,0x08,0x10,0x10,0x30,0x80,0x08,0x11,0x02,0x08,0x10,0x10,
 0x10,0x40,0x08,0x21,0x04,0x18,0x00,0x09,0x10,0x40,0x04,0x21,0x04,0x10,0x20,
 0x09,0x18,0x00,0x04,0x41,0x0c,0x30,0x20,0x08,0x08,0x20,0x02,0x41,0x08,0x20,
 0x20,0x08,0x04,0x30,0x03,0x81,0x10,0x20,0x20,0x08,0x00,0x08,0x01,0x81,0x30,
 0x00,0x20,0x08,0x00,0x8c,0x01,0x01,0x21,0x00,0x20,0x08,0x00,0xc4,0x00,0x01,
 0x02,0xf8,0x3f,0xf8,0x1f,0x42,0x00,0x01,0xc4,0x0f,0x00,0x00,0xf0,0x23,0x00,
 0x01,0x00,0x00,0x11,0x11,0x01,0x10,0x00,0x01,0x10,0x10,0x11,0x11,0x11,0x08,
 0x00,0x01,0xa0,0x11,0x00,0x00,0x90,0x01,0x00,0x01,0x00,0x01,0xfe,0xff,0x00,
 0x05,0x00,0x01,0x00,0xf0,0x03,0x00,0x1f,0x04,0x00,0x01,0x00,0x00,0xc0,0x07,
 0x00,0x00,0x00,0x01,0x80,0x03,0xf0,0x0f,0xc0,0x01,0x00,0x01,0x80,0x07,0xc0,
 0x07,0xe0,0x01,0x00,0x01,0x80,0x0f,0x00,0x01,0xf0,0x01,0x00,0x01,0x80,0x03,
 0xfc,0xff,0xc0,0x01,0x00,0x01,0x00,0xe0,0x07,0x80,0x1f,0x00,0x00,0x01,0x00,
 0x3f,0x00,0x00,0xf0,0x00,0x00,0x01,0x40,0x00,0x00,0x00,0x00,0x02,0x00,0x01,
 0x00,0x00,0x00,0x00,0x00,0x00,0x00,0x01,0x00,0x00,0x00,0x00,0x00,0x00,0x00,
 0x01,0x00,0x00,0x00,0x00,0x00,0x00,0x00,0x01,0x00,0x00,0x00,0x00,0x00,0x00,
 0x00,0x01,0x00,0x00,0x00,0x00,0x00,0x00,0x00,0x01,0x00,0x00,0x00,0x00,0x00,
 0x00,0x00};
