#define knight_small_outline_width 64
#define knight_small_outline_height 64
static char knight_small_outline_bits[] = {
   0x00, 0x00, 0x00, 0x00, 0x00, 0x00, 0x00, 0x00, 0x00, 0x00, 0x00, 0x00,
   0x00, 0x00, 0x00, 0x00, 0x00, 0x00, 0x00, 0x04, 0x00, 0x00, 0x00, 0x00,
   0x00, 0x00, 0x00, 0x0c, 0x00, 0x00, 0x00, 0x00, 0x00, 0x00, 0x20, 0x0c,
   0x00, 0x00, 0x00, 0x00, 0x00, 0x00, 0x40, 0x1a, 0x00, 0x00, 0x00, 0x00,
   0x00, 0x00, 0xc0, 0x12, 0x00, 0x00, 0x00, 0x00, 0x00, 0x00, 0xc0, 0xf3,
   0x01, 0x00, 0x00, 0x00, 0x00, 0x00, 0x80, 0x00, 0x07, 0x00, 0x00, 0x00,
   0x00, 0x00, 0x80, 0x00, 0x78, 0x00, 0x00, 0x00, 0x00, 0x00, 0x80, 0x00,
   0x70, 0x00, 0x00, 0x00, 0x00, 0x00, 0x80, 0x00, 0x60, 0x00, 0x00, 0x00,
   0x00, 0x00, 0xe0, 0x00, 0xc0, 0x07, 0x00, 0x00, 0x00, 0x00, 0x38, 0x00,
   0x00, 0x02, 0x00, 0x00, 0x00, 0x00, 0x86, 0x03, 0x00, 0x1c, 0x00, 0x00,
   0x00, 0x00, 0xc3, 0x0f, 0x00, 0xf8, 0x00, 0x00, 0x00, 0x80, 0x61, 0x09,
   0x00, 0x20, 0x00, 0x00, 0x00, 0xe0, 0xc0, 0x0f, 0x00, 0xe0, 0x00, 0x00,
   0x00, 0x30, 0x00, 0x00, 0x00, 0xc0, 0x07, 0x00, 0x00, 0x18, 0x00, 0x00,
   0x00, 0x00, 0x01, 0x00, 0x00, 0x0c, 0x00, 0x00, 0x20, 0x00, 0x1f, 0x00,
   0x00, 0x06, 0x00, 0x00, 0x10, 0x00, 0x02, 0x00, 0x00, 0x03, 0x00, 0x00,
   0x10, 0x00, 0x0c, 0x00, 0x00, 0x01, 0x00, 0x00, 0x10, 0x00, 0x7c, 0x00,
   0x80, 0x01, 0x00, 0x00, 0x08, 0x00, 0x08, 0x00, 0xc0, 0x00, 0x00, 0x00,
   0x08, 0x00, 0xf8, 0x00, 0x40, 0x00, 0x04, 0x00, 0x06, 0x03, 0x30, 0x00,
   0x40, 0x00, 0x04, 0xc0, 0x81, 0x01, 0x20, 0x00, 0x20, 0x00, 0x08, 0x60,
   0xc1, 0x18, 0xe0, 0x01, 0x10, 0x00, 0x18, 0x1c, 0x41, 0x08, 0x20, 0x00,
   0x18, 0x00, 0xf8, 0x83, 0x3c, 0x04, 0xe0, 0x03, 0x08, 0x1c, 0x04, 0x80,
   0x07, 0x04, 0x40, 0x00, 0x0c, 0x34, 0x02, 0x80, 0x00, 0x02, 0xc0, 0x07,
   0x04, 0x12, 0x01, 0xc0, 0x00, 0x01, 0x80, 0x00, 0x8c, 0x91, 0x00, 0x40,
   0xe0, 0x00, 0x80, 0x07, 0xc8, 0x58, 0x00, 0x20, 0x18, 0x00, 0x80, 0x00,
   0x78, 0x4c, 0x00, 0x20, 0x0e, 0x00, 0x80, 0x0f, 0x10, 0x44, 0x00, 0x10,
   0x01, 0x00, 0x00, 0x01, 0x00, 0x34, 0x00, 0x08, 0x00, 0x00, 0x00, 0x0f,
   0x00, 0x18, 0x00, 0x04, 0x00, 0x00, 0x00, 0x03, 0x00, 0x00, 0x00, 0x04,
   0x00, 0x00, 0x00, 0x1e, 0x00, 0x00, 0x00, 0x02, 0x00, 0x00, 0x00, 0x02,
   0x00, 0x00, 0x00, 0x03, 0x00, 0x00, 0x00, 0x3e, 0x00, 0x00, 0x00, 0x01,
   0x00, 0x00, 0x00, 0x06, 0x00, 0x00, 0x80, 0x01, 0x00, 0x00, 0x00, 0x3c,
   0x00, 0x00, 0xc0, 0x00, 0x00, 0x00, 0x00, 0x04, 0x00, 0x00, 0x60, 0x00,
   0x00, 0x00, 0x00, 0x3c, 0x00, 0x00, 0x20, 0x00, 0x00, 0x00, 0x00, 0x04,
   0x00, 0x00, 0x10, 0x00, 0x00, 0x00, 0x00, 0x3c, 0x00, 0x00, 0x18, 0x00,
   0x00, 0x00, 0x00, 0x04, 0x00, 0x00, 0x08, 0x00, 0x00, 0x00, 0x00, 0x3c,
   0x00, 0x00, 0x08, 0x00, 0x00, 0x00, 0x00, 0x04, 0x00, 0x00, 0x04, 0x00,
   0x00, 0x00, 0x00, 0x3c, 0x00, 0x00, 0x06, 0x00, 0x00, 0x00, 0x00, 0x04,
   0x00, 0x00, 0x02, 0x00, 0x00, 0x00, 0x00, 0x3c, 0x00, 0x00, 0x03, 0x00,
   0x00, 0x00, 0x00, 0x04, 0x00, 0x00, 0x01, 0x00, 0x00, 0x00, 0x00, 0x3c,
   0x00, 0x80, 0x01, 0x00, 0x00, 0x00, 0x00, 0x04, 0x00, 0x80, 0x00, 0x00,
   0x00, 0x00, 0x00, 0x3c, 0x00, 0x40, 0x00, 0x00, 0x00, 0x00, 0x00, 0x04,
   0x00, 0x40, 0x00, 0x00, 0x00, 0x00, 0x00, 0x3c, 0x00, 0x40, 0x00, 0x00,
   0x00, 0x00, 0x00, 0x06, 0x00, 0xc0, 0xff, 0xff, 0xff, 0xff, 0xff, 0x03,
   0x00, 0x00, 0x00, 0x00, 0x00, 0x00, 0x00, 0x00};
