#define xs_ol_kt_width 40
#define xs_ol_kt_height 40
static char xs_ol_kt_bits[] = {
   0x00, 0x00, 0x00, 0x00, 0x00, 0x00, 0x00, 0x01, 0x00, 0x00, 0x00, 0x20,
   0x03, 0x00, 0x00, 0x00, 0x60, 0x03, 0x00, 0x00, 0x00, 0xc0, 0x1f, 0x00,
   0x00, 0x00, 0x40, 0xf0, 0x01, 0x00, 0x00, 0x40, 0xc0, 0x01, 0x00, 0x00,
   0x60, 0x80, 0x07, 0x00, 0x00, 0x38, 0x00, 0x1e, 0x00, 0x00, 0xcc, 0x01,
   0x38, 0x00, 0x00, 0x67, 0x03, 0x70, 0x00, 0x80, 0xc5, 0x01, 0xe0, 0x00,
   0xc0, 0x02, 0x80, 0xc0, 0x01, 0x60, 0x01, 0xc0, 0xc0, 0x03, 0xa0, 0x00,
   0x40, 0x80, 0x03, 0x70, 0x00, 0x40, 0x04, 0x07, 0x38, 0x08, 0x60, 0x02,
   0x07, 0x08, 0x18, 0x1c, 0x0b, 0x0e, 0x0c, 0xb0, 0xdf, 0x0d, 0x0e, 0xc4,
   0xf9, 0x78, 0x04, 0x1e, 0xe6, 0x0d, 0x08, 0x02, 0x3c, 0xb6, 0x06, 0x8c,
   0x01, 0x3c, 0xdc, 0x03, 0x74, 0x00, 0x3c, 0x4c, 0x01, 0x1e, 0x00, 0x38,
   0xc0, 0x01, 0x03, 0x00, 0x38, 0x00, 0x80, 0x01, 0x00, 0x38, 0x00, 0x80,
   0x00, 0x00, 0x78, 0x00, 0xc0, 0x00, 0x00, 0x70, 0x00, 0x60, 0x00, 0x00,
   0x70, 0x00, 0x20, 0x00, 0x00, 0x70, 0x00, 0x30, 0x00, 0x00, 0x70, 0x00,
   0x10, 0x00, 0x00, 0x70, 0x00, 0x18, 0x00, 0x00, 0x70, 0x00, 0x0c, 0x00,
   0x00, 0x70, 0x00, 0x04, 0x00, 0x00, 0x70, 0x00, 0x06, 0x00, 0x00, 0x70,
   0x00, 0x02, 0x00, 0x00, 0x70, 0x00, 0x03, 0x00, 0x00, 0x70, 0x00, 0xff,
   0xff, 0xff, 0x7f, 0x00, 0x00, 0x00, 0x00, 0x00};
