#define xs_ol_b_width 40
#define xs_ol_b_height 40
static char xs_ol_b_bits[] = {
   0x00, 0x00, 0x00, 0x00, 0x00, 0x00, 0x00, 0x10, 0x01, 0x00, 0x00, 0x00,
   0xb8, 0x03, 0x00, 0x00, 0x00, 0xb8, 0x03, 0x00, 0x00, 0x00, 0xf8, 0x03,
   0x00, 0x00, 0x00, 0xcc, 0x04, 0x00, 0x00, 0x00, 0x86, 0x04, 0x00, 0x00,
   0x00, 0x83, 0x09, 0x00, 0x00, 0x00, 0x31, 0x0b, 0x00, 0x00, 0x80, 0x31,
   0x0a, 0x00, 0x00, 0x80, 0xfc, 0x0e, 0x00, 0x00, 0xc0, 0xfc, 0x0c, 0x00,
   0x00, 0x40, 0x30, 0x08, 0x00, 0x00, 0x40, 0x30, 0x08, 0x00, 0x00, 0x40,
   0x30, 0x08, 0x00, 0x00, 0x40, 0x00, 0x08, 0x00, 0x00, 0x40, 0x00, 0x08,
   0x00, 0x00, 0x40, 0x00, 0x08, 0x00, 0x00, 0x40, 0x00, 0x08, 0x00, 0x00,
   0x40, 0x00, 0x0c, 0x00, 0x00, 0xc0, 0x00, 0x04, 0x00, 0x00, 0x80, 0x00,
   0x06, 0x00, 0x00, 0x80, 0x01, 0x02, 0x00, 0x00, 0x00, 0xff, 0x03, 0x00,
   0x00, 0x00, 0xff, 0x03, 0x00, 0x00, 0x00, 0x33, 0x03, 0x00, 0x00, 0x00,
   0x33, 0x03, 0x00, 0x00, 0x00, 0x33, 0x03, 0x00, 0x00, 0x00, 0xff, 0x03,
   0x00, 0x00, 0x80, 0x01, 0x02, 0x00, 0x00, 0x80, 0xff, 0x07, 0x00, 0x00,
   0x00, 0x28, 0x00, 0x00, 0x00, 0x00, 0x6c, 0x00, 0x00, 0x00, 0x00, 0xf6,
   0x00, 0x00, 0x00, 0xff, 0xbb, 0xff, 0x03, 0xc0, 0x01, 0x6c, 0x00, 0x0e,
   0x80, 0xff, 0xc7, 0xff, 0x07, 0xc0, 0x00, 0x00, 0x00, 0x0c, 0x00, 0x00,
   0x00, 0x00, 0x00, 0x00, 0x00, 0x00, 0x00, 0x00};
