#define xs_ol_q_width 40
#define xs_ol_q_height 40
static char xs_ol_q_bits[] = {
   0x00, 0x00, 0x00, 0x00, 0x00, 0x00, 0x00, 0x18, 0x00, 0x00, 0x00, 0x00,
   0x3c, 0x00, 0x00, 0x00, 0x00, 0x18, 0x00, 0x00, 0x00, 0x08, 0x18, 0x10,
   0x00, 0x00, 0x1c, 0x18, 0x38, 0x00, 0x00, 0x1c, 0x18, 0x38, 0x00, 0x00,
   0x08, 0x18, 0x10, 0x00, 0x00, 0x08, 0x18, 0x10, 0x00, 0x00, 0x18, 0x18,
   0x18, 0x00, 0x00, 0x18, 0x3c, 0x18, 0x00, 0x06, 0x18, 0x24, 0x18, 0x30,
   0x07, 0x38, 0x24, 0x1c, 0x70, 0x0e, 0x28, 0x24, 0x14, 0x70, 0x0c, 0x28,
   0x24, 0x14, 0x18, 0x18, 0x68, 0x24, 0x16, 0x18, 0x38, 0x48, 0x24, 0x12,
   0x1c, 0x28, 0x48, 0x24, 0x12, 0x16, 0x68, 0xc8, 0x24, 0x13, 0x1a, 0x48,
   0x88, 0x66, 0x11, 0x0b, 0xd8, 0x88, 0x42, 0x11, 0x09, 0x90, 0x89, 0xc3,
   0x91, 0x09, 0x10, 0x09, 0xc3, 0xd0, 0x08, 0x10, 0x0b, 0xc3, 0x50, 0x08,
   0x10, 0x0e, 0x00, 0x70, 0x08, 0x10, 0x0c, 0x00, 0x30, 0x08, 0x30, 0x00,
   0x00, 0x00, 0x0c, 0x20, 0x00, 0x00, 0x00, 0x04, 0x20, 0x00, 0xff, 0x00,
   0x04, 0x60, 0xff, 0x99, 0xff, 0x06, 0xc0, 0x07, 0x7e, 0xe0, 0x03, 0x80,
   0x1f, 0x3c, 0xf8, 0x01, 0x80, 0x0f, 0xff, 0xf0, 0x01, 0x80, 0xff, 0x81,
   0xff, 0x01, 0x80, 0x00, 0x00, 0x00, 0x01, 0x80, 0x00, 0x00, 0x00, 0x01,
   0xc0, 0x00, 0x00, 0x00, 0x03, 0xc0, 0xff, 0xff, 0xff, 0x03, 0x00, 0x00,
   0x00, 0x00, 0x00, 0x00, 0x00, 0x00, 0x00, 0x00};
