#define xs_ol_p_width 40
#define xs_ol_p_height 40
static char xs_ol_p_bits[] = {
   0x00, 0x00, 0x00, 0x00, 0x00, 0x00, 0x00, 0xfc, 0x00, 0x00, 0x00, 0x00,
   0x84, 0x00, 0x00, 0x00, 0x00, 0x86, 0x01, 0x00, 0x00, 0x00, 0x02, 0x01,
   0x00, 0x00, 0x00, 0x86, 0x01, 0x00, 0x00, 0x00, 0xcc, 0x00, 0x00, 0x00,
   0x00, 0xfe, 0x01, 0x00, 0x00, 0x00, 0x03, 0x03, 0x00, 0x00, 0xc0, 0x01,
   0x0e, 0x00, 0x00, 0xe0, 0xff, 0x1f, 0x00, 0x00, 0x00, 0x84, 0x00, 0x00,
   0x00, 0x00, 0x86, 0x01, 0x00, 0x00, 0x00, 0x02, 0x01, 0x00, 0x00, 0x00,
   0x02, 0x01, 0x00, 0x00, 0x00, 0x03, 0x03, 0x00, 0x00, 0x80, 0x01, 0x06,
   0x00, 0x00, 0x80, 0x00, 0x04, 0x00, 0x00, 0xc0, 0x00, 0x0c, 0x00, 0x00,
   0x40, 0x00, 0x08, 0x00, 0x00, 0x60, 0x00, 0x18, 0x00, 0x00, 0x20, 0x00,
   0x10, 0x00, 0x00, 0x20, 0x00, 0x10, 0x00, 0x00, 0x20, 0x00, 0x10, 0x00,
   0x00, 0x60, 0x00, 0x18, 0x00, 0x00, 0x40, 0x00, 0x08, 0x00, 0x00, 0x40,
   0x00, 0x08, 0x00, 0x00, 0xc0, 0x00, 0x0c, 0x00, 0x00, 0x80, 0x00, 0x04,
   0x00, 0x00, 0x80, 0x01, 0x06, 0x00, 0x00, 0x00, 0x03, 0x03, 0x00, 0x00,
   0x00, 0x02, 0x01, 0x00, 0x00, 0xf0, 0x87, 0x3f, 0x00, 0x00, 0x18, 0xfc,
   0x60, 0x00, 0x00, 0x0e, 0x00, 0xc0, 0x01, 0x00, 0x03, 0x00, 0x00, 0x03,
   0x00, 0x01, 0x00, 0x00, 0x02, 0x00, 0x01, 0x00, 0x00, 0x02, 0x00, 0xff,
   0xff, 0xff, 0x03, 0x00, 0x00, 0x00, 0x00, 0x00};
