#define xs_s_b_width 40
#define xs_s_b_height 40
static char xs_s_b_bits[] = {
   0x00, 0x00, 0x00, 0x00, 0x00, 0x00, 0x00, 0x30, 0x03, 0x00, 0x00, 0x00,
   0x30, 0x03, 0x00, 0x00, 0x00, 0xa0, 0x03, 0x00, 0x00, 0x00, 0xb8, 0x02,
   0x00, 0x00, 0x00, 0xfc, 0x06, 0x00, 0x00, 0x00, 0xfc, 0x04, 0x00, 0x00,
   0x00, 0xfe, 0x09, 0x00, 0x00, 0x00, 0xcf, 0x09, 0x00, 0x00, 0x00, 0xcf,
   0x0b, 0x00, 0x00, 0x80, 0x03, 0x13, 0x00, 0x00, 0x80, 0x03, 0x17, 0x00,
   0x00, 0x80, 0xcf, 0x17, 0x00, 0x00, 0xc0, 0xcf, 0x1f, 0x00, 0x00, 0xc0,
   0xcf, 0x0f, 0x00, 0x00, 0xc0, 0xff, 0x0f, 0x00, 0x00, 0xc0, 0xff, 0x0f,
   0x00, 0x00, 0xc0, 0xff, 0x0f, 0x00, 0x00, 0xc0, 0xff, 0x07, 0x00, 0x00,
   0xc0, 0xff, 0x07, 0x00, 0x00, 0x80, 0xff, 0x07, 0x00, 0x00, 0x80, 0xff,
   0x03, 0x00, 0x00, 0x00, 0xff, 0x03, 0x00, 0x00, 0x00, 0x01, 0x02, 0x00,
   0x00, 0x00, 0x01, 0x02, 0x00, 0x00, 0x00, 0xfe, 0x01, 0x00, 0x00, 0x00,
   0x44, 0x00, 0x00, 0x00, 0x00, 0xff, 0x03, 0x00, 0x00, 0x00, 0x03, 0x03,
   0x00, 0x00, 0x00, 0x03, 0x03, 0x00, 0x00, 0x00, 0xff, 0x03, 0x00, 0x00,
   0x00, 0x30, 0x00, 0x00, 0x00, 0x00, 0x78, 0x00, 0x00, 0x00, 0x00, 0xfc,
   0x00, 0x00, 0x00, 0x7e, 0xee, 0xf9, 0x01, 0x80, 0xff, 0xcf, 0xff, 0x07,
   0x80, 0xc3, 0x83, 0x0f, 0x07, 0x80, 0x00, 0x00, 0x00, 0x04, 0x00, 0x00,
   0x00, 0x00, 0x00, 0x00, 0x00, 0x00, 0x00, 0x00};
