#define checkbox_chosen_width 16
#define checkbox_chosen_height 16
#define checkbox_chosen_x_hot 0
#define checkbox_chosen_y_hot 11
static char checkbox_chosen_bits[] = {
   0x00, 0x00, 0xfe, 0x7f, 0x02, 0x40, 0x02, 0x40, 0x32, 0x4c, 0x72, 0x4e,
   0xe2, 0x47, 0xc2, 0x43, 0xc2, 0x43, 0xe2, 0x47, 0x72, 0x4e, 0x32, 0x4c,
   0x02, 0x40, 0x02, 0x40, 0xfe, 0x7f, 0x00, 0x00};
