#define radio_chosen_width 11
#define radio_chosen_height 11
#define radio_chosen_x_hot 5
#define radio_chosen_y_hot 5
static char radio_chosen_bits[] = {
   0x70, 0x00, 0x8c, 0x01, 0x02, 0x02, 0x72, 0x02, 0xf9, 0x04, 0xf9, 0x04,
   0xf9, 0x04, 0x72, 0x02, 0x02, 0x02, 0x8c, 0x01, 0x70, 0x00};
