#define radio_both_width 11
#define radio_both_height 11
#define radio_both_x_hot 5
#define radio_both_y_hot 5
static char radio_both_bits[] = {
   0x70, 0x00, 0xfc, 0x01, 0x8e, 0x03, 0x76, 0x03, 0xfb, 0x06, 0xfb, 0x06,
   0xfb, 0x06, 0x76, 0x03, 0x8e, 0x03, 0xfc, 0x01, 0x70, 0x00};
