#define rdfast_width 16
#define rdfast_height 16
#define rdfast_x_hot 9
#define rdfast_y_hot 9
static char rdfast_bits[] = {
   0x00, 0x00, 0x00, 0x02, 0x00, 0x03, 0x80, 0x02, 0x40, 0x02, 0x20, 0x02,
   0x10, 0x42, 0x08, 0x62, 0x04, 0x52, 0xfe, 0x4b, 0x00, 0x44, 0x00, 0x42,
   0x00, 0x41, 0x80, 0x40, 0xc0, 0x7f, 0x00, 0x00};
