#define umover_plain_width 11
#define umover_plain_height 11
#define umover_plain_x_hot 5
#define umover_plain_y_hot 5
static char umover_plain_bits[] = {
   0x00, 0x00, 0x20, 0x00, 0x50, 0x00, 0x88, 0x00, 0x04, 0x01, 0x02, 0x02,
   0x8e, 0x07, 0x88, 0x07, 0x88, 0x01, 0xf8, 0x01, 0xf0, 0x01};
