#define arrow_width 64
#define arrow_height 64
#define arrow_x_hot 9
#define arrow_y_hot 9
static char arrow_bits[] = {

0xff, 0xff, 0xff, 0xff, 0xff, 0xff, 0xff, 0xff,
0x01, 0x00, 0x00, 0x00, 0x00, 0x00, 0x00, 0x80,
0x01, 0x00, 0x00, 0x00, 0x00, 0x00, 0x00, 0x80,
0x01, 0x00, 0x00, 0x00, 0x00, 0x00, 0x00, 0x80,

0xf1, 0xff, 0x01, 0x00, 0x00, 0x00, 0x00, 0x80,
0xf1, 0xff, 0x00, 0x00, 0x00, 0x00, 0x00, 0x80,
0xf1, 0x7f, 0x00, 0x00, 0x00, 0x00, 0x00, 0x80,
0xf1, 0x3f, 0x00, 0x00, 0x00, 0x00, 0x00, 0x80,

0xf1, 0x1f, 0x00, 0x00, 0x00, 0x00, 0x00, 0x80,
0xf1, 0x1f, 0x00, 0x00, 0x00, 0x00, 0x00, 0x80,
0xf1, 0x3f, 0x00, 0x00, 0x00, 0x00, 0x00, 0x80,
0xf1, 0x7f, 0x00, 0x00, 0x00, 0x00, 0x00, 0x80,

0xf1, 0xff, 0x00, 0x00, 0x00, 0x00, 0x00, 0x80,
0xf1, 0xfc, 0x01, 0x00, 0x00, 0x00, 0x00, 0x80,
0x71, 0xf8, 0x03, 0x00, 0x00, 0x00, 0x00, 0x80,
0x31, 0xf0, 0x07, 0x00, 0x00, 0x00, 0x00, 0x80,

0x11, 0xe0, 0x0f, 0x00, 0x00, 0x00, 0x00, 0x80,
0x01, 0xc0, 0x1f, 0x00, 0x00, 0x00, 0x00, 0x80,
0x01, 0x80, 0x3f, 0x00, 0x00, 0x00, 0x00, 0x80,
0x01, 0x00, 0x7f, 0x00, 0x00, 0x00, 0x00, 0x80,

0x01, 0x00, 0xfe, 0x00, 0x00, 0x00, 0x00, 0x80,
0x01, 0x00, 0xfc, 0x01, 0x00, 0x00, 0x00, 0x80,
0x01, 0x00, 0xf8, 0x03, 0x00, 0x00, 0x00, 0x80,
0x01, 0x00, 0xf0, 0x07, 0x00, 0x00, 0x00, 0x80,

0x01, 0x00, 0xe0, 0x0f, 0x00, 0x00, 0x00, 0x80,
0x01, 0x00, 0xc0, 0x1f, 0x00, 0x00, 0x00, 0x80,
0x01, 0x00, 0x80, 0x3f, 0x00, 0x00, 0x00, 0x80,
0x01, 0x00, 0x00, 0x7f, 0x00, 0x00, 0x00, 0x80,

0x01, 0x00, 0x00, 0xfe, 0x00, 0x00, 0x00, 0x80,
0x01, 0x00, 0x00, 0xfc, 0x01, 0x00, 0x00, 0x80,
0x01, 0x00, 0x00, 0xf8, 0x03, 0x00, 0x00, 0x80,
0x01, 0x00, 0x00, 0xf0, 0x07, 0x00, 0x00, 0x80,

0x01, 0x00, 0x00, 0xe0, 0x0f, 0x00, 0x00, 0x80,
0x01, 0x00, 0x00, 0xc0, 0x1f, 0x00, 0x00, 0x80,
0x01, 0x00, 0x00, 0x80, 0x3f, 0x00, 0x00, 0x80,
0x01, 0x00, 0x00, 0x00, 0x7f, 0x00, 0x00, 0x80,

0x01, 0x00, 0x00, 0x00, 0xfe, 0x00, 0x00, 0x80,
0x01, 0x00, 0x00, 0x00, 0xfc, 0x01, 0x00, 0x80,
0x01, 0x00, 0x00, 0x00, 0xf8, 0x03, 0x00, 0x80,
0x01, 0x00, 0x00, 0x00, 0xf0, 0x07, 0x00, 0x80,

0x01, 0x00, 0x00, 0x00, 0xe0, 0x0f, 0x00, 0x80,
0x01, 0x00, 0x00, 0x00, 0xc0, 0x1f, 0x00, 0x80,
0x01, 0x00, 0x00, 0x00, 0x80, 0x3f, 0x00, 0x80,
0x01, 0x00, 0x00, 0x00, 0x00, 0x7f, 0x00, 0x80,

0x01, 0x00, 0x00, 0x00, 0x00, 0xfe, 0x00, 0x80,
0x01, 0x00, 0x00, 0x00, 0x00, 0xfc, 0x01, 0x80,
0x01, 0x00, 0x00, 0x00, 0x00, 0xf8, 0x03, 0x80,
0x01, 0x00, 0x00, 0x00, 0x00, 0xf0, 0x07, 0x80,

0x01, 0x00, 0x00, 0x00, 0x00, 0xe0, 0x0f, 0x80,
0x01, 0x00, 0x00, 0x00, 0x00, 0xc0, 0x1f, 0x80,
0x01, 0x00, 0x00, 0x00, 0x00, 0x80, 0x3f, 0x80,
0x01, 0x00, 0x00, 0x00, 0x00, 0x00, 0x7f, 0x80,

0x01, 0x00, 0x00, 0x00, 0x00, 0x00, 0x0e, 0x80,
0x01, 0x00, 0x00, 0x00, 0x00, 0x00, 0x0c, 0x80,
0x01, 0x00, 0x00, 0x00, 0x00, 0x00, 0x08, 0x80,
0x01, 0x00, 0x00, 0x00, 0x00, 0x00, 0x00, 0x80,

0x01, 0x00, 0x00, 0x00, 0x00, 0x00, 0x00, 0x80,
0x01, 0x00, 0x00, 0x00, 0x00, 0x00, 0x00, 0x80,
0x01, 0x00, 0x00, 0x00, 0x00, 0x00, 0x00, 0x80,
0x01, 0x00, 0x00, 0x00, 0x00, 0x00, 0x00, 0x80,

0x01, 0x00, 0x00, 0x00, 0x00, 0x00, 0x00, 0x80,
0x01, 0x00, 0x00, 0x00, 0x00, 0x00, 0x00, 0x80,
0x01, 0x00, 0x00, 0x00, 0x00, 0x00, 0x00, 0x80,
0xff, 0xff, 0xff, 0xff, 0xff, 0xff, 0xff, 0xff}

