#define arrow_width 64
#define arrow_height 64
#define arrow_x_hot 9
#define arrow_y_hot 9
static char arrow_bits[] = {

0x00, 0x00, 0x00, 0x00, 0x00, 0x00, 0x00, 0x00,
0x00, 0x00, 0x00, 0x00, 0x00, 0x00, 0x00, 0x00,
0x00, 0x00, 0x00, 0x00, 0x00, 0x00, 0x00, 0x00,
0x00, 0x00, 0x00, 0x00, 0x00, 0x00, 0x00, 0x00,

0xf0, 0xff, 0x01, 0x00, 0x00, 0x00, 0x00, 0x00,
0xf0, 0xff, 0x00, 0x00, 0x00, 0x00, 0x00, 0x00,
0xf0, 0x7f, 0x00, 0x00, 0x00, 0x00, 0x00, 0x00,
0xf0, 0x3f, 0x00, 0x00, 0x00, 0x00, 0x00, 0x00,

0xf0, 0x1f, 0x00, 0x00, 0x00, 0x00, 0x00, 0x00,
0xf0, 0x1f, 0x00, 0x00, 0x00, 0x00, 0x00, 0x00,
0xf0, 0x3f, 0x00, 0x00, 0x00, 0x00, 0x00, 0x00,
0xf0, 0x7f, 0x00, 0x00, 0x00, 0x00, 0x00, 0x00,

0xf0, 0xff, 0x00, 0x00, 0x00, 0x00, 0x00, 0x00,
0xf0, 0xfc, 0x01, 0x00, 0x00, 0x00, 0x00, 0x00,
0x70, 0xf8, 0x03, 0x00, 0x00, 0x00, 0x00, 0x00,
0x30, 0xf0, 0x07, 0x00, 0x00, 0x00, 0x00, 0x00,

0x10, 0xe0, 0x0f, 0x00, 0x00, 0x00, 0x00, 0x00,
0x00, 0xc0, 0x1f, 0x00, 0x00, 0x00, 0x00, 0x00,
0x00, 0x80, 0x3f, 0x00, 0x00, 0x00, 0x00, 0x00,
0x00, 0x00, 0x7f, 0x00, 0x00, 0x00, 0x00, 0x00,

0x00, 0x00, 0xfe, 0x00, 0x00, 0x00, 0x00, 0x00,
0x00, 0x00, 0xfc, 0x01, 0x00, 0x00, 0x00, 0x00,
0x00, 0x00, 0xf8, 0x03, 0x00, 0x00, 0x00, 0x00,
0x00, 0x00, 0xf0, 0x07, 0x00, 0x00, 0x00, 0x00,

0x00, 0x00, 0xe0, 0x0f, 0x00, 0x00, 0x00, 0x00,
0x00, 0x00, 0xc0, 0x1f, 0x00, 0x00, 0x00, 0x00,
0x00, 0x00, 0x80, 0x3f, 0x00, 0x00, 0x00, 0x00,
0x00, 0x00, 0x00, 0x7f, 0x00, 0x00, 0x00, 0x00,

0x00, 0x00, 0x00, 0xfe, 0x00, 0x00, 0x00, 0x00,
0x00, 0x00, 0x00, 0xfc, 0x01, 0x00, 0x00, 0x00,
0x00, 0x00, 0x00, 0xf8, 0x03, 0x00, 0x00, 0x00,
0x00, 0x00, 0x00, 0xf0, 0x07, 0x00, 0x00, 0x00,

0x00, 0x00, 0x00, 0xe0, 0x0f, 0x00, 0x00, 0x00,
0x00, 0x00, 0x00, 0xc0, 0x1f, 0x00, 0x00, 0x00,
0x00, 0x00, 0x00, 0x80, 0x3f, 0x00, 0x00, 0x00,
0x00, 0x00, 0x00, 0x00, 0x7f, 0x00, 0x00, 0x00,

0x00, 0x00, 0x00, 0x00, 0xfe, 0x00, 0x00, 0x00,
0x00, 0x00, 0x00, 0x00, 0xfc, 0x01, 0x00, 0x00,
0x00, 0x00, 0x00, 0x00, 0xf8, 0x03, 0x00, 0x00,
0x00, 0x00, 0x00, 0x00, 0xf0, 0x07, 0x00, 0x00,

0x00, 0x00, 0x00, 0x00, 0xe0, 0x0f, 0x00, 0x00,
0x00, 0x00, 0x00, 0x00, 0xc0, 0x1f, 0x00, 0x00,
0x00, 0x00, 0x00, 0x00, 0x80, 0x3f, 0x00, 0x00,
0x00, 0x00, 0x00, 0x00, 0x00, 0x7f, 0x00, 0x00,

0x00, 0x00, 0x00, 0x00, 0x00, 0xfe, 0x00, 0x00,
0x00, 0x00, 0x00, 0x00, 0x00, 0xfc, 0x01, 0x00,
0x00, 0x00, 0x00, 0x00, 0x00, 0xf8, 0x03, 0x00,
0x00, 0x00, 0x00, 0x00, 0x00, 0xf0, 0x07, 0x00,

0x00, 0x00, 0x00, 0x00, 0x00, 0xe0, 0x0f, 0x00,
0x00, 0x00, 0x00, 0x00, 0x00, 0xc0, 0x1f, 0x00,
0x00, 0x00, 0x00, 0x00, 0x00, 0x80, 0x3f, 0x00,
0x00, 0x00, 0x00, 0x00, 0x00, 0x00, 0x7f, 0x00,

0x00, 0x00, 0x00, 0x00, 0x00, 0x00, 0x0e, 0x00,
0x00, 0x00, 0x00, 0x00, 0x00, 0x00, 0x0c, 0x00,
0x00, 0x00, 0x00, 0x00, 0x00, 0x00, 0x08, 0x00,
0x00, 0x00, 0x00, 0x00, 0x00, 0x00, 0x00, 0x00,

0x00, 0x00, 0x00, 0x00, 0x00, 0x00, 0x00, 0x00,
0x00, 0x00, 0x00, 0x00, 0x00, 0x00, 0x00, 0x00,
0x00, 0x00, 0x00, 0x00, 0x00, 0x00, 0x00, 0x00,
0x00, 0x00, 0x00, 0x00, 0x00, 0x00, 0x00, 0x00,

0x00, 0x00, 0x00, 0x00, 0x00, 0x00, 0x00, 0x00,
0x00, 0x00, 0x00, 0x00, 0x00, 0x00, 0x00, 0x00,
0x00, 0x00, 0x00, 0x00, 0x00, 0x00, 0x00, 0x00,
0x00, 0x00, 0x00, 0x00, 0x00, 0x00, 0x00, 0x00}

