#define bullseye_width 65
#define bullseye_height 65
static char bullseye_bits[] = {
   0xff, 0xff, 0xff, 0xff, 0xff, 0xff, 0xff, 0xff, 0x01, 0x01, 0x00, 0x00,
   0x00, 0x00, 0x00, 0x00, 0x00, 0x01, 0x01, 0x00, 0x00, 0x00, 0x00, 0x00,
   0x00, 0x00, 0x01, 0x31, 0x00, 0x00, 0x00, 0x00, 0x00, 0x00, 0x18, 0x01,
   0xd1, 0x00, 0x00, 0x00, 0x00, 0x00, 0x00, 0x16, 0x01, 0x11, 0x07, 0x00,
   0x00, 0x00, 0x00, 0xc0, 0x11, 0x01, 0x21, 0x38, 0x00, 0x00, 0x00, 0x00,
   0x38, 0x08, 0x01, 0x21, 0xc0, 0x00, 0xf8, 0x3f, 0x00, 0x06, 0x08, 0x01,
   0x21, 0x00, 0x03, 0x07, 0xc0, 0x81, 0x01, 0x08, 0x01, 0x41, 0x00, 0xe0,
   0x00, 0x00, 0x0e, 0x00, 0x04, 0x01, 0x41, 0x00, 0x10, 0x00, 0x00, 0x10,
   0x00, 0x04, 0x01, 0x41, 0x00, 0x0c, 0x00, 0x00, 0x60, 0x00, 0x04, 0x01,
   0x41, 0x00, 0x02, 0xf0, 0x1f, 0x80, 0x00, 0x04, 0x01, 0x81, 0x80, 0x01,
   0x0e, 0xe0, 0x00, 0x03, 0x02, 0x01, 0x81, 0x40, 0x80, 0x01, 0x00, 0x03,
   0x04, 0x02, 0x01, 0x81, 0x20, 0x60, 0x00, 0x00, 0x0c, 0x08, 0x02, 0x01,
   0x01, 0x21, 0x10, 0x00, 0x00, 0x10, 0x08, 0x01, 0x01, 0x01, 0x11, 0x08,
   0xe0, 0x0f, 0x20, 0x10, 0x01, 0x01, 0x01, 0x08, 0x04, 0x1c, 0x70, 0x40,
   0x20, 0x00, 0x01, 0x01, 0x08, 0x02, 0x03, 0x80, 0x81, 0x20, 0x00, 0x01,
   0x01, 0x04, 0x81, 0x00, 0x00, 0x02, 0x41, 0x00, 0x01, 0x01, 0x82, 0x40,
   0x00, 0x00, 0x04, 0x82, 0x00, 0x01, 0x01, 0x82, 0x20, 0xe0, 0x0f, 0x08,
   0x82, 0x00, 0x01, 0x01, 0x42, 0x10, 0x18, 0x30, 0x10, 0x84, 0x00, 0x01,
   0x01, 0x41, 0x08, 0x04, 0x40, 0x20, 0x04, 0x01, 0x01, 0x01, 0x21, 0x08,
   0x02, 0x80, 0x20, 0x08, 0x01, 0x01, 0x01, 0x21, 0x04, 0x01, 0x00, 0x41,
   0x08, 0x01, 0x01, 0x81, 0x20, 0x84, 0xc0, 0x07, 0x42, 0x08, 0x02, 0x01,
   0x81, 0x10, 0x84, 0x20, 0x08, 0x42, 0x10, 0x02, 0x01, 0x81, 0x10, 0x42,
   0x10, 0x10, 0x84, 0x10, 0x02, 0x01, 0x81, 0x10, 0x42, 0x08, 0x20, 0x84,
   0x10, 0x02, 0x01, 0x81, 0x10, 0x42, 0x08, 0x20, 0x84, 0x10, 0x02, 0x01,
   0x81, 0x10, 0x42, 0x08, 0x21, 0x84, 0x10, 0x02, 0x01, 0x81, 0x10, 0x42,
   0x08, 0x20, 0x84, 0x10, 0x02, 0x01, 0x81, 0x10, 0x42, 0x08, 0x20, 0x84,
   0x10, 0x02, 0x01, 0x81, 0x10, 0x42, 0x10, 0x10, 0x84, 0x10, 0x02, 0x01,
   0x81, 0x10, 0x84, 0x20, 0x08, 0x42, 0x10, 0x02, 0x01, 0x81, 0x20, 0x84,
   0xc0, 0x07, 0x42, 0x08, 0x02, 0x01, 0x01, 0x21, 0x04, 0x01, 0x00, 0x41,
   0x08, 0x01, 0x01, 0x01, 0x21, 0x08, 0x02, 0x80, 0x20, 0x08, 0x01, 0x01,
   0x01, 0x41, 0x08, 0x04, 0x40, 0x20, 0x04, 0x01, 0x01, 0x01, 0x42, 0x10,
   0x18, 0x30, 0x10, 0x84, 0x00, 0x01, 0x01, 0x82, 0x20, 0xe0, 0x0f, 0x08,
   0x82, 0x00, 0x01, 0x01, 0x82, 0x40, 0x00, 0x00, 0x04, 0x82, 0x00, 0x01,
   0x01, 0x04, 0x81, 0x00, 0x00, 0x02, 0x41, 0x00, 0x01, 0x01, 0x08, 0x02,
   0x03, 0x80, 0x81, 0x20, 0x00, 0x01, 0x01, 0x08, 0x04, 0x1c, 0x70, 0x40,
   0x20, 0x00, 0x01, 0x01, 0x10, 0x08, 0xe0, 0x0f, 0x20, 0x10, 0x01, 0x01,
   0x01, 0x21, 0x10, 0x00, 0x00, 0x10, 0x08, 0x01, 0x01, 0x01, 0x21, 0x60,
   0x00, 0x00, 0x0c, 0x08, 0x02, 0x01, 0x81, 0x40, 0x80, 0x01, 0x00, 0x03,
   0x04, 0x02, 0x01, 0x81, 0x80, 0x01, 0x0e, 0xe0, 0x00, 0x03, 0x02, 0x01,
   0x81, 0x00, 0x02, 0xf0, 0x1f, 0x80, 0x00, 0x04, 0x01, 0x41, 0x00, 0x0c,
   0x00, 0x00, 0x60, 0x00, 0x04, 0x01, 0x41, 0x00, 0x10, 0x00, 0x00, 0x10,
   0x00, 0x04, 0x01, 0x41, 0x00, 0xe0, 0x00, 0x00, 0x0e, 0x00, 0x04, 0x01,
   0x21, 0x00, 0x00, 0x07, 0xc0, 0x01, 0x00, 0x08, 0x01, 0x21, 0x00, 0x03,
   0xf8, 0x3f, 0x80, 0x01, 0x08, 0x01, 0x21, 0xe0, 0x00, 0x00, 0x00, 0x00,
   0x0e, 0x08, 0x01, 0x11, 0x1e, 0x00, 0x00, 0x00, 0x00, 0xf0, 0x10, 0x01,
   0xd1, 0x01, 0x00, 0x00, 0x00, 0x00, 0x00, 0x17, 0x01, 0x31, 0x00, 0x00,
   0x00, 0x00, 0x00, 0x00, 0x18, 0x01, 0x01, 0x00, 0x00, 0x00, 0x00, 0x00,
   0x00, 0x00, 0x01, 0x01, 0x00, 0x00, 0x00, 0x00, 0x00, 0x00, 0x00, 0x01,
   0xff, 0xff, 0xff, 0xff, 0xff, 0xff, 0xff, 0xff, 0x01};
